<?xml version="1.0" encoding="utf-8" standalone="no"?>
<!DOCTYPE svg PUBLIC "-//W3C//DTD SVG 1.1//EN"
  "http://www.w3.org/Graphics/SVG/1.1/DTD/svg11.dtd">
<svg xmlns:xlink="http://www.w3.org/1999/xlink" width="720pt" height="432pt" viewBox="0 0 720 432" xmlns="http://www.w3.org/2000/svg" version="1.1">
 <metadata>
  <rdf:RDF xmlns:dc="http://purl.org/dc/elements/1.1/" xmlns:cc="http://creativecommons.org/ns#" xmlns:rdf="http://www.w3.org/1999/02/22-rdf-syntax-ns#">
   <cc:Work>
    <dc:type rdf:resource="http://purl.org/dc/dcmitype/StillImage"/>
    <dc:date>2024-12-03T12:58:33.431927</dc:date>
    <dc:format>image/svg+xml</dc:format>
    <dc:creator>
     <cc:Agent>
      <dc:title>Matplotlib v3.9.2, https://matplotlib.org/</dc:title>
     </cc:Agent>
    </dc:creator>
   </cc:Work>
  </rdf:RDF>
 </metadata>
 <defs>
  <style type="text/css">*{stroke-linejoin: round; stroke-linecap: butt}</style>
 </defs>
 <g id="figure_1">
  <g id="patch_1">
   <path d="M 0 432 
L 720 432 
L 720 0 
L 0 0 
z
" style="fill: #ffffff"/>
  </g>
  <g id="axes_1">
   <g id="patch_2">
    <path d="M 90 384.48 
L 648 384.48 
L 648 51.84 
L 90 51.84 
z
" style="fill: #ffffff"/>
   </g>
   <g id="line2d_1">
    <path d="M 211.570533 384.48 
L 211.570533 51.84 
" clip-path="url(#pddf3631b37)" style="fill: none; stroke-dasharray: 3.7,1.6; stroke-dashoffset: 0; stroke: #ff0000"/>
   </g>
   <g id="line2d_2">
    <path d="M 277.166144 384.48 
L 277.166144 51.84 
" clip-path="url(#pddf3631b37)" style="fill: none; stroke-dasharray: 3.7,1.6; stroke-dashoffset: 0; stroke: #ffa500"/>
   </g>
   <g id="line2d_3">
    <path d="M 342.761755 384.48 
L 342.761755 51.84 
" clip-path="url(#pddf3631b37)" style="fill: none; stroke-dasharray: 3.7,1.6; stroke-dashoffset: 0; stroke: #008000"/>
   </g>
   <g id="matplotlib.axis_1">
    <g id="xtick_1">
     <g id="line2d_4">
      <defs>
       <path id="m27746e34f3" d="M 0 0 
L 0 3.5 
" style="stroke: #000000; stroke-width: 0.8"/>
      </defs>
      <g>
       <use xlink:href="#m27746e34f3" x="145.974922" y="384.48" style="stroke: #000000; stroke-width: 0.8"/>
      </g>
     </g>
     <g id="text_1">
      <!-- 150 -->
      <g transform="translate(138.339922 397.55875) scale(0.08 -0.08)">
       <defs>
        <path id="DejaVuSans-31" d="M 794 531 
L 1825 531 
L 1825 4091 
L 703 3866 
L 703 4441 
L 1819 4666 
L 2450 4666 
L 2450 531 
L 3481 531 
L 3481 0 
L 794 0 
L 794 531 
z
" transform="scale(0.015625)"/>
        <path id="DejaVuSans-35" d="M 691 4666 
L 3169 4666 
L 3169 4134 
L 1269 4134 
L 1269 2991 
Q 1406 3038 1543 3061 
Q 1681 3084 1819 3084 
Q 2600 3084 3056 2656 
Q 3513 2228 3513 1497 
Q 3513 744 3044 326 
Q 2575 -91 1722 -91 
Q 1428 -91 1123 -41 
Q 819 9 494 109 
L 494 744 
Q 775 591 1075 516 
Q 1375 441 1709 441 
Q 2250 441 2565 725 
Q 2881 1009 2881 1497 
Q 2881 1984 2565 2268 
Q 2250 2553 1709 2553 
Q 1456 2553 1204 2497 
Q 953 2441 691 2322 
L 691 4666 
z
" transform="scale(0.015625)"/>
        <path id="DejaVuSans-30" d="M 2034 4250 
Q 1547 4250 1301 3770 
Q 1056 3291 1056 2328 
Q 1056 1369 1301 889 
Q 1547 409 2034 409 
Q 2525 409 2770 889 
Q 3016 1369 3016 2328 
Q 3016 3291 2770 3770 
Q 2525 4250 2034 4250 
z
M 2034 4750 
Q 2819 4750 3233 4129 
Q 3647 3509 3647 2328 
Q 3647 1150 3233 529 
Q 2819 -91 2034 -91 
Q 1250 -91 836 529 
Q 422 1150 422 2328 
Q 422 3509 836 4129 
Q 1250 4750 2034 4750 
z
" transform="scale(0.015625)"/>
       </defs>
       <use xlink:href="#DejaVuSans-31"/>
       <use xlink:href="#DejaVuSans-35" x="63.623047"/>
       <use xlink:href="#DejaVuSans-30" x="127.246094"/>
      </g>
     </g>
    </g>
    <g id="xtick_2">
     <g id="line2d_5">
      <g>
       <use xlink:href="#m27746e34f3" x="255.30094" y="384.48" style="stroke: #000000; stroke-width: 0.8"/>
      </g>
     </g>
     <g id="text_2">
      <!-- 200 -->
      <g transform="translate(247.66594 397.55875) scale(0.08 -0.08)">
       <defs>
        <path id="DejaVuSans-32" d="M 1228 531 
L 3431 531 
L 3431 0 
L 469 0 
L 469 531 
Q 828 903 1448 1529 
Q 2069 2156 2228 2338 
Q 2531 2678 2651 2914 
Q 2772 3150 2772 3378 
Q 2772 3750 2511 3984 
Q 2250 4219 1831 4219 
Q 1534 4219 1204 4116 
Q 875 4013 500 3803 
L 500 4441 
Q 881 4594 1212 4672 
Q 1544 4750 1819 4750 
Q 2544 4750 2975 4387 
Q 3406 4025 3406 3419 
Q 3406 3131 3298 2873 
Q 3191 2616 2906 2266 
Q 2828 2175 2409 1742 
Q 1991 1309 1228 531 
z
" transform="scale(0.015625)"/>
       </defs>
       <use xlink:href="#DejaVuSans-32"/>
       <use xlink:href="#DejaVuSans-30" x="63.623047"/>
       <use xlink:href="#DejaVuSans-30" x="127.246094"/>
      </g>
     </g>
    </g>
    <g id="xtick_3">
     <g id="line2d_6">
      <g>
       <use xlink:href="#m27746e34f3" x="364.626959" y="384.48" style="stroke: #000000; stroke-width: 0.8"/>
      </g>
     </g>
     <g id="text_3">
      <!-- 250 -->
      <g transform="translate(356.991959 397.55875) scale(0.08 -0.08)">
       <use xlink:href="#DejaVuSans-32"/>
       <use xlink:href="#DejaVuSans-35" x="63.623047"/>
       <use xlink:href="#DejaVuSans-30" x="127.246094"/>
      </g>
     </g>
    </g>
    <g id="xtick_4">
     <g id="line2d_7">
      <g>
       <use xlink:href="#m27746e34f3" x="473.952978" y="384.48" style="stroke: #000000; stroke-width: 0.8"/>
      </g>
     </g>
     <g id="text_4">
      <!-- 300 -->
      <g transform="translate(466.317978 397.55875) scale(0.08 -0.08)">
       <defs>
        <path id="DejaVuSans-33" d="M 2597 2516 
Q 3050 2419 3304 2112 
Q 3559 1806 3559 1356 
Q 3559 666 3084 287 
Q 2609 -91 1734 -91 
Q 1441 -91 1130 -33 
Q 819 25 488 141 
L 488 750 
Q 750 597 1062 519 
Q 1375 441 1716 441 
Q 2309 441 2620 675 
Q 2931 909 2931 1356 
Q 2931 1769 2642 2001 
Q 2353 2234 1838 2234 
L 1294 2234 
L 1294 2753 
L 1863 2753 
Q 2328 2753 2575 2939 
Q 2822 3125 2822 3475 
Q 2822 3834 2567 4026 
Q 2313 4219 1838 4219 
Q 1578 4219 1281 4162 
Q 984 4106 628 3988 
L 628 4550 
Q 988 4650 1302 4700 
Q 1616 4750 1894 4750 
Q 2613 4750 3031 4423 
Q 3450 4097 3450 3541 
Q 3450 3153 3228 2886 
Q 3006 2619 2597 2516 
z
" transform="scale(0.015625)"/>
       </defs>
       <use xlink:href="#DejaVuSans-33"/>
       <use xlink:href="#DejaVuSans-30" x="63.623047"/>
       <use xlink:href="#DejaVuSans-30" x="127.246094"/>
      </g>
     </g>
    </g>
    <g id="xtick_5">
     <g id="line2d_8">
      <g>
       <use xlink:href="#m27746e34f3" x="583.278997" y="384.48" style="stroke: #000000; stroke-width: 0.8"/>
      </g>
     </g>
     <g id="text_5">
      <!-- 350 -->
      <g transform="translate(575.643997 397.55875) scale(0.08 -0.08)">
       <use xlink:href="#DejaVuSans-33"/>
       <use xlink:href="#DejaVuSans-35" x="63.623047"/>
       <use xlink:href="#DejaVuSans-30" x="127.246094"/>
      </g>
     </g>
    </g>
    <g id="text_6">
     <!-- Minutes -->
     <g transform="translate(349.317969 410.820938) scale(0.1 -0.1)">
      <defs>
       <path id="DejaVuSans-4d" d="M 628 4666 
L 1569 4666 
L 2759 1491 
L 3956 4666 
L 4897 4666 
L 4897 0 
L 4281 0 
L 4281 4097 
L 3078 897 
L 2444 897 
L 1241 4097 
L 1241 0 
L 628 0 
L 628 4666 
z
" transform="scale(0.015625)"/>
       <path id="DejaVuSans-69" d="M 603 3500 
L 1178 3500 
L 1178 0 
L 603 0 
L 603 3500 
z
M 603 4863 
L 1178 4863 
L 1178 4134 
L 603 4134 
L 603 4863 
z
" transform="scale(0.015625)"/>
       <path id="DejaVuSans-6e" d="M 3513 2113 
L 3513 0 
L 2938 0 
L 2938 2094 
Q 2938 2591 2744 2837 
Q 2550 3084 2163 3084 
Q 1697 3084 1428 2787 
Q 1159 2491 1159 1978 
L 1159 0 
L 581 0 
L 581 3500 
L 1159 3500 
L 1159 2956 
Q 1366 3272 1645 3428 
Q 1925 3584 2291 3584 
Q 2894 3584 3203 3211 
Q 3513 2838 3513 2113 
z
" transform="scale(0.015625)"/>
       <path id="DejaVuSans-75" d="M 544 1381 
L 544 3500 
L 1119 3500 
L 1119 1403 
Q 1119 906 1312 657 
Q 1506 409 1894 409 
Q 2359 409 2629 706 
Q 2900 1003 2900 1516 
L 2900 3500 
L 3475 3500 
L 3475 0 
L 2900 0 
L 2900 538 
Q 2691 219 2414 64 
Q 2138 -91 1772 -91 
Q 1169 -91 856 284 
Q 544 659 544 1381 
z
M 1991 3584 
L 1991 3584 
z
" transform="scale(0.015625)"/>
       <path id="DejaVuSans-74" d="M 1172 4494 
L 1172 3500 
L 2356 3500 
L 2356 3053 
L 1172 3053 
L 1172 1153 
Q 1172 725 1289 603 
Q 1406 481 1766 481 
L 2356 481 
L 2356 0 
L 1766 0 
Q 1100 0 847 248 
Q 594 497 594 1153 
L 594 3053 
L 172 3053 
L 172 3500 
L 594 3500 
L 594 4494 
L 1172 4494 
z
" transform="scale(0.015625)"/>
       <path id="DejaVuSans-65" d="M 3597 1894 
L 3597 1613 
L 953 1613 
Q 991 1019 1311 708 
Q 1631 397 2203 397 
Q 2534 397 2845 478 
Q 3156 559 3463 722 
L 3463 178 
Q 3153 47 2828 -22 
Q 2503 -91 2169 -91 
Q 1331 -91 842 396 
Q 353 884 353 1716 
Q 353 2575 817 3079 
Q 1281 3584 2069 3584 
Q 2775 3584 3186 3129 
Q 3597 2675 3597 1894 
z
M 3022 2063 
Q 3016 2534 2758 2815 
Q 2500 3097 2075 3097 
Q 1594 3097 1305 2825 
Q 1016 2553 972 2059 
L 3022 2063 
z
" transform="scale(0.015625)"/>
       <path id="DejaVuSans-73" d="M 2834 3397 
L 2834 2853 
Q 2591 2978 2328 3040 
Q 2066 3103 1784 3103 
Q 1356 3103 1142 2972 
Q 928 2841 928 2578 
Q 928 2378 1081 2264 
Q 1234 2150 1697 2047 
L 1894 2003 
Q 2506 1872 2764 1633 
Q 3022 1394 3022 966 
Q 3022 478 2636 193 
Q 2250 -91 1575 -91 
Q 1294 -91 989 -36 
Q 684 19 347 128 
L 347 722 
Q 666 556 975 473 
Q 1284 391 1588 391 
Q 1994 391 2212 530 
Q 2431 669 2431 922 
Q 2431 1156 2273 1281 
Q 2116 1406 1581 1522 
L 1381 1569 
Q 847 1681 609 1914 
Q 372 2147 372 2553 
Q 372 3047 722 3315 
Q 1072 3584 1716 3584 
Q 2034 3584 2315 3537 
Q 2597 3491 2834 3397 
z
" transform="scale(0.015625)"/>
      </defs>
      <use xlink:href="#DejaVuSans-4d"/>
      <use xlink:href="#DejaVuSans-69" x="86.279297"/>
      <use xlink:href="#DejaVuSans-6e" x="114.0625"/>
      <use xlink:href="#DejaVuSans-75" x="177.441406"/>
      <use xlink:href="#DejaVuSans-74" x="240.820312"/>
      <use xlink:href="#DejaVuSans-65" x="280.029297"/>
      <use xlink:href="#DejaVuSans-73" x="341.552734"/>
     </g>
    </g>
   </g>
   <g id="matplotlib.axis_2">
    <g id="ytick_1">
     <g id="line2d_9">
      <defs>
       <path id="m8af4c6586f" d="M 0 0 
L -3.5 0 
" style="stroke: #000000; stroke-width: 0.8"/>
      </defs>
      <g>
       <use xlink:href="#m8af4c6586f" x="90" y="384.48" style="stroke: #000000; stroke-width: 0.8"/>
      </g>
     </g>
     <g id="text_7">
      <!-- 0 -->
      <g transform="translate(77.91 387.519375) scale(0.08 -0.08)">
       <use xlink:href="#DejaVuSans-30"/>
      </g>
     </g>
    </g>
    <g id="ytick_2">
     <g id="line2d_10">
      <g>
       <use xlink:href="#m8af4c6586f" x="90" y="332.116364" style="stroke: #000000; stroke-width: 0.8"/>
      </g>
     </g>
     <g id="text_8">
      <!-- 20 -->
      <g transform="translate(72.82 335.155739) scale(0.08 -0.08)">
       <use xlink:href="#DejaVuSans-32"/>
       <use xlink:href="#DejaVuSans-30" x="63.623047"/>
      </g>
     </g>
    </g>
    <g id="ytick_3">
     <g id="line2d_11">
      <g>
       <use xlink:href="#m8af4c6586f" x="90" y="279.752727" style="stroke: #000000; stroke-width: 0.8"/>
      </g>
     </g>
     <g id="text_9">
      <!-- 40 -->
      <g transform="translate(72.82 282.792102) scale(0.08 -0.08)">
       <defs>
        <path id="DejaVuSans-34" d="M 2419 4116 
L 825 1625 
L 2419 1625 
L 2419 4116 
z
M 2253 4666 
L 3047 4666 
L 3047 1625 
L 3713 1625 
L 3713 1100 
L 3047 1100 
L 3047 0 
L 2419 0 
L 2419 1100 
L 313 1100 
L 313 1709 
L 2253 4666 
z
" transform="scale(0.015625)"/>
       </defs>
       <use xlink:href="#DejaVuSans-34"/>
       <use xlink:href="#DejaVuSans-30" x="63.623047"/>
      </g>
     </g>
    </g>
    <g id="ytick_4">
     <g id="line2d_12">
      <g>
       <use xlink:href="#m8af4c6586f" x="90" y="227.389091" style="stroke: #000000; stroke-width: 0.8"/>
      </g>
     </g>
     <g id="text_10">
      <!-- 60 -->
      <g transform="translate(72.82 230.428466) scale(0.08 -0.08)">
       <defs>
        <path id="DejaVuSans-36" d="M 2113 2584 
Q 1688 2584 1439 2293 
Q 1191 2003 1191 1497 
Q 1191 994 1439 701 
Q 1688 409 2113 409 
Q 2538 409 2786 701 
Q 3034 994 3034 1497 
Q 3034 2003 2786 2293 
Q 2538 2584 2113 2584 
z
M 3366 4563 
L 3366 3988 
Q 3128 4100 2886 4159 
Q 2644 4219 2406 4219 
Q 1781 4219 1451 3797 
Q 1122 3375 1075 2522 
Q 1259 2794 1537 2939 
Q 1816 3084 2150 3084 
Q 2853 3084 3261 2657 
Q 3669 2231 3669 1497 
Q 3669 778 3244 343 
Q 2819 -91 2113 -91 
Q 1303 -91 875 529 
Q 447 1150 447 2328 
Q 447 3434 972 4092 
Q 1497 4750 2381 4750 
Q 2619 4750 2861 4703 
Q 3103 4656 3366 4563 
z
" transform="scale(0.015625)"/>
       </defs>
       <use xlink:href="#DejaVuSans-36"/>
       <use xlink:href="#DejaVuSans-30" x="63.623047"/>
      </g>
     </g>
    </g>
    <g id="ytick_5">
     <g id="line2d_13">
      <g>
       <use xlink:href="#m8af4c6586f" x="90" y="175.025455" style="stroke: #000000; stroke-width: 0.8"/>
      </g>
     </g>
     <g id="text_11">
      <!-- 80 -->
      <g transform="translate(72.82 178.06483) scale(0.08 -0.08)">
       <defs>
        <path id="DejaVuSans-38" d="M 2034 2216 
Q 1584 2216 1326 1975 
Q 1069 1734 1069 1313 
Q 1069 891 1326 650 
Q 1584 409 2034 409 
Q 2484 409 2743 651 
Q 3003 894 3003 1313 
Q 3003 1734 2745 1975 
Q 2488 2216 2034 2216 
z
M 1403 2484 
Q 997 2584 770 2862 
Q 544 3141 544 3541 
Q 544 4100 942 4425 
Q 1341 4750 2034 4750 
Q 2731 4750 3128 4425 
Q 3525 4100 3525 3541 
Q 3525 3141 3298 2862 
Q 3072 2584 2669 2484 
Q 3125 2378 3379 2068 
Q 3634 1759 3634 1313 
Q 3634 634 3220 271 
Q 2806 -91 2034 -91 
Q 1263 -91 848 271 
Q 434 634 434 1313 
Q 434 1759 690 2068 
Q 947 2378 1403 2484 
z
M 1172 3481 
Q 1172 3119 1398 2916 
Q 1625 2713 2034 2713 
Q 2441 2713 2670 2916 
Q 2900 3119 2900 3481 
Q 2900 3844 2670 4047 
Q 2441 4250 2034 4250 
Q 1625 4250 1398 4047 
Q 1172 3844 1172 3481 
z
" transform="scale(0.015625)"/>
       </defs>
       <use xlink:href="#DejaVuSans-38"/>
       <use xlink:href="#DejaVuSans-30" x="63.623047"/>
      </g>
     </g>
    </g>
    <g id="ytick_6">
     <g id="line2d_14">
      <g>
       <use xlink:href="#m8af4c6586f" x="90" y="122.661818" style="stroke: #000000; stroke-width: 0.8"/>
      </g>
     </g>
     <g id="text_12">
      <!-- 100 -->
      <g transform="translate(67.73 125.701193) scale(0.08 -0.08)">
       <use xlink:href="#DejaVuSans-31"/>
       <use xlink:href="#DejaVuSans-30" x="63.623047"/>
       <use xlink:href="#DejaVuSans-30" x="127.246094"/>
      </g>
     </g>
    </g>
    <g id="ytick_7">
     <g id="line2d_15">
      <g>
       <use xlink:href="#m8af4c6586f" x="90" y="70.298182" style="stroke: #000000; stroke-width: 0.8"/>
      </g>
     </g>
     <g id="text_13">
      <!-- 120 -->
      <g transform="translate(67.73 73.337557) scale(0.08 -0.08)">
       <use xlink:href="#DejaVuSans-31"/>
       <use xlink:href="#DejaVuSans-32" x="63.623047"/>
       <use xlink:href="#DejaVuSans-30" x="127.246094"/>
      </g>
     </g>
    </g>
    <g id="text_14">
     <!-- Runners -->
     <g transform="translate(61.650312 238.652187) rotate(-90) scale(0.1 -0.1)">
      <defs>
       <path id="DejaVuSans-52" d="M 2841 2188 
Q 3044 2119 3236 1894 
Q 3428 1669 3622 1275 
L 4263 0 
L 3584 0 
L 2988 1197 
Q 2756 1666 2539 1819 
Q 2322 1972 1947 1972 
L 1259 1972 
L 1259 0 
L 628 0 
L 628 4666 
L 2053 4666 
Q 2853 4666 3247 4331 
Q 3641 3997 3641 3322 
Q 3641 2881 3436 2590 
Q 3231 2300 2841 2188 
z
M 1259 4147 
L 1259 2491 
L 2053 2491 
Q 2509 2491 2742 2702 
Q 2975 2913 2975 3322 
Q 2975 3731 2742 3939 
Q 2509 4147 2053 4147 
L 1259 4147 
z
" transform="scale(0.015625)"/>
       <path id="DejaVuSans-72" d="M 2631 2963 
Q 2534 3019 2420 3045 
Q 2306 3072 2169 3072 
Q 1681 3072 1420 2755 
Q 1159 2438 1159 1844 
L 1159 0 
L 581 0 
L 581 3500 
L 1159 3500 
L 1159 2956 
Q 1341 3275 1631 3429 
Q 1922 3584 2338 3584 
Q 2397 3584 2469 3576 
Q 2541 3569 2628 3553 
L 2631 2963 
z
" transform="scale(0.015625)"/>
      </defs>
      <use xlink:href="#DejaVuSans-52"/>
      <use xlink:href="#DejaVuSans-75" x="64.982422"/>
      <use xlink:href="#DejaVuSans-6e" x="128.361328"/>
      <use xlink:href="#DejaVuSans-6e" x="191.740234"/>
      <use xlink:href="#DejaVuSans-65" x="255.119141"/>
      <use xlink:href="#DejaVuSans-72" x="316.642578"/>
      <use xlink:href="#DejaVuSans-73" x="357.755859"/>
     </g>
    </g>
   </g>
   <g id="patch_3">
    <path d="M 115.363636 384.48 
L 117.67995 384.48 
L 117.67995 379.243636 
L 115.363636 379.243636 
z
" clip-path="url(#pddf3631b37)" style="fill: #0000ff; fill-opacity: 0.5; stroke: #000000; stroke-width: 0.231631; stroke-linejoin: miter"/>
   </g>
   <g id="patch_4">
    <path d="M 117.67995 384.48 
L 119.996264 384.48 
L 119.996264 381.861818 
L 117.67995 381.861818 
z
" clip-path="url(#pddf3631b37)" style="fill: #0000ff; fill-opacity: 0.5; stroke: #000000; stroke-width: 0.231631; stroke-linejoin: miter"/>
   </g>
   <g id="patch_5">
    <path d="M 119.996264 384.48 
L 122.312578 384.48 
L 122.312578 384.48 
L 119.996264 384.48 
z
" clip-path="url(#pddf3631b37)" style="fill: #0000ff; fill-opacity: 0.5; stroke: #000000; stroke-width: 0.231631; stroke-linejoin: miter"/>
   </g>
   <g id="patch_6">
    <path d="M 122.312578 384.48 
L 124.628892 384.48 
L 124.628892 384.48 
L 122.312578 384.48 
z
" clip-path="url(#pddf3631b37)" style="fill: #0000ff; fill-opacity: 0.5; stroke: #000000; stroke-width: 0.231631; stroke-linejoin: miter"/>
   </g>
   <g id="patch_7">
    <path d="M 124.628892 384.48 
L 126.945205 384.48 
L 126.945205 376.625455 
L 124.628892 376.625455 
z
" clip-path="url(#pddf3631b37)" style="fill: #0000ff; fill-opacity: 0.5; stroke: #000000; stroke-width: 0.231631; stroke-linejoin: miter"/>
   </g>
   <g id="patch_8">
    <path d="M 126.945205 384.48 
L 129.261519 384.48 
L 129.261519 381.861818 
L 126.945205 381.861818 
z
" clip-path="url(#pddf3631b37)" style="fill: #0000ff; fill-opacity: 0.5; stroke: #000000; stroke-width: 0.231631; stroke-linejoin: miter"/>
   </g>
   <g id="patch_9">
    <path d="M 129.261519 384.48 
L 131.577833 384.48 
L 131.577833 376.625455 
L 129.261519 376.625455 
z
" clip-path="url(#pddf3631b37)" style="fill: #0000ff; fill-opacity: 0.5; stroke: #000000; stroke-width: 0.231631; stroke-linejoin: miter"/>
   </g>
   <g id="patch_10">
    <path d="M 131.577833 384.48 
L 133.894147 384.48 
L 133.894147 371.389091 
L 131.577833 371.389091 
z
" clip-path="url(#pddf3631b37)" style="fill: #0000ff; fill-opacity: 0.5; stroke: #000000; stroke-width: 0.231631; stroke-linejoin: miter"/>
   </g>
   <g id="patch_11">
    <path d="M 133.894147 384.48 
L 136.210461 384.48 
L 136.210461 366.152727 
L 133.894147 366.152727 
z
" clip-path="url(#pddf3631b37)" style="fill: #0000ff; fill-opacity: 0.5; stroke: #000000; stroke-width: 0.231631; stroke-linejoin: miter"/>
   </g>
   <g id="patch_12">
    <path d="M 136.210461 384.48 
L 138.526775 384.48 
L 138.526775 353.061818 
L 136.210461 353.061818 
z
" clip-path="url(#pddf3631b37)" style="fill: #0000ff; fill-opacity: 0.5; stroke: #000000; stroke-width: 0.231631; stroke-linejoin: miter"/>
   </g>
   <g id="patch_13">
    <path d="M 138.526775 384.48 
L 140.843088 384.48 
L 140.843088 371.389091 
L 138.526775 371.389091 
z
" clip-path="url(#pddf3631b37)" style="fill: #0000ff; fill-opacity: 0.5; stroke: #000000; stroke-width: 0.231631; stroke-linejoin: miter"/>
   </g>
   <g id="patch_14">
    <path d="M 140.843088 384.48 
L 143.159402 384.48 
L 143.159402 376.625455 
L 140.843088 376.625455 
z
" clip-path="url(#pddf3631b37)" style="fill: #0000ff; fill-opacity: 0.5; stroke: #000000; stroke-width: 0.231631; stroke-linejoin: miter"/>
   </g>
   <g id="patch_15">
    <path d="M 143.159402 384.48 
L 145.475716 384.48 
L 145.475716 376.625455 
L 143.159402 376.625455 
z
" clip-path="url(#pddf3631b37)" style="fill: #0000ff; fill-opacity: 0.5; stroke: #000000; stroke-width: 0.231631; stroke-linejoin: miter"/>
   </g>
   <g id="patch_16">
    <path d="M 145.475716 384.48 
L 147.79203 384.48 
L 147.79203 384.48 
L 145.475716 384.48 
z
" clip-path="url(#pddf3631b37)" style="fill: #0000ff; fill-opacity: 0.5; stroke: #000000; stroke-width: 0.231631; stroke-linejoin: miter"/>
   </g>
   <g id="patch_17">
    <path d="M 147.79203 384.48 
L 150.108344 384.48 
L 150.108344 381.861818 
L 147.79203 381.861818 
z
" clip-path="url(#pddf3631b37)" style="fill: #0000ff; fill-opacity: 0.5; stroke: #000000; stroke-width: 0.231631; stroke-linejoin: miter"/>
   </g>
   <g id="patch_18">
    <path d="M 150.108344 384.48 
L 152.424658 384.48 
L 152.424658 374.007273 
L 150.108344 374.007273 
z
" clip-path="url(#pddf3631b37)" style="fill: #0000ff; fill-opacity: 0.5; stroke: #000000; stroke-width: 0.231631; stroke-linejoin: miter"/>
   </g>
   <g id="patch_19">
    <path d="M 152.424658 384.48 
L 154.740971 384.48 
L 154.740971 371.389091 
L 152.424658 371.389091 
z
" clip-path="url(#pddf3631b37)" style="fill: #0000ff; fill-opacity: 0.5; stroke: #000000; stroke-width: 0.231631; stroke-linejoin: miter"/>
   </g>
   <g id="patch_20">
    <path d="M 154.740971 384.48 
L 157.057285 384.48 
L 157.057285 376.625455 
L 154.740971 376.625455 
z
" clip-path="url(#pddf3631b37)" style="fill: #0000ff; fill-opacity: 0.5; stroke: #000000; stroke-width: 0.231631; stroke-linejoin: miter"/>
   </g>
   <g id="patch_21">
    <path d="M 157.057285 384.48 
L 159.373599 384.48 
L 159.373599 374.007273 
L 157.057285 374.007273 
z
" clip-path="url(#pddf3631b37)" style="fill: #0000ff; fill-opacity: 0.5; stroke: #000000; stroke-width: 0.231631; stroke-linejoin: miter"/>
   </g>
   <g id="patch_22">
    <path d="M 159.373599 384.48 
L 161.689913 384.48 
L 161.689913 374.007273 
L 159.373599 374.007273 
z
" clip-path="url(#pddf3631b37)" style="fill: #0000ff; fill-opacity: 0.5; stroke: #000000; stroke-width: 0.231631; stroke-linejoin: miter"/>
   </g>
   <g id="patch_23">
    <path d="M 161.689913 384.48 
L 164.006227 384.48 
L 164.006227 379.243636 
L 161.689913 379.243636 
z
" clip-path="url(#pddf3631b37)" style="fill: #0000ff; fill-opacity: 0.5; stroke: #000000; stroke-width: 0.231631; stroke-linejoin: miter"/>
   </g>
   <g id="patch_24">
    <path d="M 164.006227 384.48 
L 166.32254 384.48 
L 166.32254 371.389091 
L 164.006227 371.389091 
z
" clip-path="url(#pddf3631b37)" style="fill: #0000ff; fill-opacity: 0.5; stroke: #000000; stroke-width: 0.231631; stroke-linejoin: miter"/>
   </g>
   <g id="patch_25">
    <path d="M 166.32254 384.48 
L 168.638854 384.48 
L 168.638854 360.916364 
L 166.32254 360.916364 
z
" clip-path="url(#pddf3631b37)" style="fill: #0000ff; fill-opacity: 0.5; stroke: #000000; stroke-width: 0.231631; stroke-linejoin: miter"/>
   </g>
   <g id="patch_26">
    <path d="M 168.638854 384.48 
L 170.955168 384.48 
L 170.955168 381.861818 
L 168.638854 381.861818 
z
" clip-path="url(#pddf3631b37)" style="fill: #0000ff; fill-opacity: 0.5; stroke: #000000; stroke-width: 0.231631; stroke-linejoin: miter"/>
   </g>
   <g id="patch_27">
    <path d="M 170.955168 384.48 
L 173.271482 384.48 
L 173.271482 371.389091 
L 170.955168 371.389091 
z
" clip-path="url(#pddf3631b37)" style="fill: #0000ff; fill-opacity: 0.5; stroke: #000000; stroke-width: 0.231631; stroke-linejoin: miter"/>
   </g>
   <g id="patch_28">
    <path d="M 173.271482 384.48 
L 175.587796 384.48 
L 175.587796 371.389091 
L 173.271482 371.389091 
z
" clip-path="url(#pddf3631b37)" style="fill: #0000ff; fill-opacity: 0.5; stroke: #000000; stroke-width: 0.231631; stroke-linejoin: miter"/>
   </g>
   <g id="patch_29">
    <path d="M 175.587796 384.48 
L 177.90411 384.48 
L 177.90411 358.298182 
L 175.587796 358.298182 
z
" clip-path="url(#pddf3631b37)" style="fill: #0000ff; fill-opacity: 0.5; stroke: #000000; stroke-width: 0.231631; stroke-linejoin: miter"/>
   </g>
   <g id="patch_30">
    <path d="M 177.90411 384.48 
L 180.220423 384.48 
L 180.220423 379.243636 
L 177.90411 379.243636 
z
" clip-path="url(#pddf3631b37)" style="fill: #0000ff; fill-opacity: 0.5; stroke: #000000; stroke-width: 0.231631; stroke-linejoin: miter"/>
   </g>
   <g id="patch_31">
    <path d="M 180.220423 384.48 
L 182.536737 384.48 
L 182.536737 376.625455 
L 180.220423 376.625455 
z
" clip-path="url(#pddf3631b37)" style="fill: #0000ff; fill-opacity: 0.5; stroke: #000000; stroke-width: 0.231631; stroke-linejoin: miter"/>
   </g>
   <g id="patch_32">
    <path d="M 182.536737 384.48 
L 184.853051 384.48 
L 184.853051 376.625455 
L 182.536737 376.625455 
z
" clip-path="url(#pddf3631b37)" style="fill: #0000ff; fill-opacity: 0.5; stroke: #000000; stroke-width: 0.231631; stroke-linejoin: miter"/>
   </g>
   <g id="patch_33">
    <path d="M 184.853051 384.48 
L 187.169365 384.48 
L 187.169365 363.534545 
L 184.853051 363.534545 
z
" clip-path="url(#pddf3631b37)" style="fill: #0000ff; fill-opacity: 0.5; stroke: #000000; stroke-width: 0.231631; stroke-linejoin: miter"/>
   </g>
   <g id="patch_34">
    <path d="M 187.169365 384.48 
L 189.485679 384.48 
L 189.485679 376.625455 
L 187.169365 376.625455 
z
" clip-path="url(#pddf3631b37)" style="fill: #0000ff; fill-opacity: 0.5; stroke: #000000; stroke-width: 0.231631; stroke-linejoin: miter"/>
   </g>
   <g id="patch_35">
    <path d="M 189.485679 384.48 
L 191.801993 384.48 
L 191.801993 350.443636 
L 189.485679 350.443636 
z
" clip-path="url(#pddf3631b37)" style="fill: #0000ff; fill-opacity: 0.5; stroke: #000000; stroke-width: 0.231631; stroke-linejoin: miter"/>
   </g>
   <g id="patch_36">
    <path d="M 191.801993 384.48 
L 194.118306 384.48 
L 194.118306 339.970909 
L 191.801993 339.970909 
z
" clip-path="url(#pddf3631b37)" style="fill: #0000ff; fill-opacity: 0.5; stroke: #000000; stroke-width: 0.231631; stroke-linejoin: miter"/>
   </g>
   <g id="patch_37">
    <path d="M 194.118306 384.48 
L 196.43462 384.48 
L 196.43462 358.298182 
L 194.118306 358.298182 
z
" clip-path="url(#pddf3631b37)" style="fill: #0000ff; fill-opacity: 0.5; stroke: #000000; stroke-width: 0.231631; stroke-linejoin: miter"/>
   </g>
   <g id="patch_38">
    <path d="M 196.43462 384.48 
L 198.750934 384.48 
L 198.750934 337.352727 
L 196.43462 337.352727 
z
" clip-path="url(#pddf3631b37)" style="fill: #0000ff; fill-opacity: 0.5; stroke: #000000; stroke-width: 0.231631; stroke-linejoin: miter"/>
   </g>
   <g id="patch_39">
    <path d="M 198.750934 384.48 
L 201.067248 384.48 
L 201.067248 355.68 
L 198.750934 355.68 
z
" clip-path="url(#pddf3631b37)" style="fill: #0000ff; fill-opacity: 0.5; stroke: #000000; stroke-width: 0.231631; stroke-linejoin: miter"/>
   </g>
   <g id="patch_40">
    <path d="M 201.067248 384.48 
L 203.383562 384.48 
L 203.383562 324.261818 
L 201.067248 324.261818 
z
" clip-path="url(#pddf3631b37)" style="fill: #0000ff; fill-opacity: 0.5; stroke: #000000; stroke-width: 0.231631; stroke-linejoin: miter"/>
   </g>
   <g id="patch_41">
    <path d="M 203.383562 384.48 
L 205.699875 384.48 
L 205.699875 326.88 
L 203.383562 326.88 
z
" clip-path="url(#pddf3631b37)" style="fill: #0000ff; fill-opacity: 0.5; stroke: #000000; stroke-width: 0.231631; stroke-linejoin: miter"/>
   </g>
   <g id="patch_42">
    <path d="M 205.699875 384.48 
L 208.016189 384.48 
L 208.016189 303.316364 
L 205.699875 303.316364 
z
" clip-path="url(#pddf3631b37)" style="fill: #0000ff; fill-opacity: 0.5; stroke: #000000; stroke-width: 0.231631; stroke-linejoin: miter"/>
   </g>
   <g id="patch_43">
    <path d="M 208.016189 384.48 
L 210.332503 384.48 
L 210.332503 316.407273 
L 208.016189 316.407273 
z
" clip-path="url(#pddf3631b37)" style="fill: #0000ff; fill-opacity: 0.5; stroke: #000000; stroke-width: 0.231631; stroke-linejoin: miter"/>
   </g>
   <g id="patch_44">
    <path d="M 210.332503 384.48 
L 212.648817 384.48 
L 212.648817 334.734545 
L 210.332503 334.734545 
z
" clip-path="url(#pddf3631b37)" style="fill: #0000ff; fill-opacity: 0.5; stroke: #000000; stroke-width: 0.231631; stroke-linejoin: miter"/>
   </g>
   <g id="patch_45">
    <path d="M 212.648817 384.48 
L 214.965131 384.48 
L 214.965131 319.025455 
L 212.648817 319.025455 
z
" clip-path="url(#pddf3631b37)" style="fill: #0000ff; fill-opacity: 0.5; stroke: #000000; stroke-width: 0.231631; stroke-linejoin: miter"/>
   </g>
   <g id="patch_46">
    <path d="M 214.965131 384.48 
L 217.281445 384.48 
L 217.281445 347.825455 
L 214.965131 347.825455 
z
" clip-path="url(#pddf3631b37)" style="fill: #0000ff; fill-opacity: 0.5; stroke: #000000; stroke-width: 0.231631; stroke-linejoin: miter"/>
   </g>
   <g id="patch_47">
    <path d="M 217.281445 384.48 
L 219.597758 384.48 
L 219.597758 355.68 
L 217.281445 355.68 
z
" clip-path="url(#pddf3631b37)" style="fill: #0000ff; fill-opacity: 0.5; stroke: #000000; stroke-width: 0.231631; stroke-linejoin: miter"/>
   </g>
   <g id="patch_48">
    <path d="M 219.597758 384.48 
L 221.914072 384.48 
L 221.914072 324.261818 
L 219.597758 324.261818 
z
" clip-path="url(#pddf3631b37)" style="fill: #0000ff; fill-opacity: 0.5; stroke: #000000; stroke-width: 0.231631; stroke-linejoin: miter"/>
   </g>
   <g id="patch_49">
    <path d="M 221.914072 384.48 
L 224.230386 384.48 
L 224.230386 324.261818 
L 221.914072 324.261818 
z
" clip-path="url(#pddf3631b37)" style="fill: #0000ff; fill-opacity: 0.5; stroke: #000000; stroke-width: 0.231631; stroke-linejoin: miter"/>
   </g>
   <g id="patch_50">
    <path d="M 224.230386 384.48 
L 226.5467 384.48 
L 226.5467 334.734545 
L 224.230386 334.734545 
z
" clip-path="url(#pddf3631b37)" style="fill: #0000ff; fill-opacity: 0.5; stroke: #000000; stroke-width: 0.231631; stroke-linejoin: miter"/>
   </g>
   <g id="patch_51">
    <path d="M 226.5467 384.48 
L 228.863014 384.48 
L 228.863014 326.88 
L 226.5467 326.88 
z
" clip-path="url(#pddf3631b37)" style="fill: #0000ff; fill-opacity: 0.5; stroke: #000000; stroke-width: 0.231631; stroke-linejoin: miter"/>
   </g>
   <g id="patch_52">
    <path d="M 228.863014 384.48 
L 231.179328 384.48 
L 231.179328 316.407273 
L 228.863014 316.407273 
z
" clip-path="url(#pddf3631b37)" style="fill: #0000ff; fill-opacity: 0.5; stroke: #000000; stroke-width: 0.231631; stroke-linejoin: miter"/>
   </g>
   <g id="patch_53">
    <path d="M 231.179328 384.48 
L 233.495641 384.48 
L 233.495641 261.425455 
L 231.179328 261.425455 
z
" clip-path="url(#pddf3631b37)" style="fill: #0000ff; fill-opacity: 0.5; stroke: #000000; stroke-width: 0.231631; stroke-linejoin: miter"/>
   </g>
   <g id="patch_54">
    <path d="M 233.495641 384.48 
L 235.811955 384.48 
L 235.811955 319.025455 
L 233.495641 319.025455 
z
" clip-path="url(#pddf3631b37)" style="fill: #0000ff; fill-opacity: 0.5; stroke: #000000; stroke-width: 0.231631; stroke-linejoin: miter"/>
   </g>
   <g id="patch_55">
    <path d="M 235.811955 384.48 
L 238.128269 384.48 
L 238.128269 313.789091 
L 235.811955 313.789091 
z
" clip-path="url(#pddf3631b37)" style="fill: #0000ff; fill-opacity: 0.5; stroke: #000000; stroke-width: 0.231631; stroke-linejoin: miter"/>
   </g>
   <g id="patch_56">
    <path d="M 238.128269 384.48 
L 240.444583 384.48 
L 240.444583 298.08 
L 238.128269 298.08 
z
" clip-path="url(#pddf3631b37)" style="fill: #0000ff; fill-opacity: 0.5; stroke: #000000; stroke-width: 0.231631; stroke-linejoin: miter"/>
   </g>
   <g id="patch_57">
    <path d="M 240.444583 384.48 
L 242.760897 384.48 
L 242.760897 334.734545 
L 240.444583 334.734545 
z
" clip-path="url(#pddf3631b37)" style="fill: #0000ff; fill-opacity: 0.5; stroke: #000000; stroke-width: 0.231631; stroke-linejoin: miter"/>
   </g>
   <g id="patch_58">
    <path d="M 242.760897 384.48 
L 245.07721 384.48 
L 245.07721 311.170909 
L 242.760897 311.170909 
z
" clip-path="url(#pddf3631b37)" style="fill: #0000ff; fill-opacity: 0.5; stroke: #000000; stroke-width: 0.231631; stroke-linejoin: miter"/>
   </g>
   <g id="patch_59">
    <path d="M 245.07721 384.48 
L 247.393524 384.48 
L 247.393524 311.170909 
L 245.07721 311.170909 
z
" clip-path="url(#pddf3631b37)" style="fill: #0000ff; fill-opacity: 0.5; stroke: #000000; stroke-width: 0.231631; stroke-linejoin: miter"/>
   </g>
   <g id="patch_60">
    <path d="M 247.393524 384.48 
L 249.709838 384.48 
L 249.709838 326.88 
L 247.393524 326.88 
z
" clip-path="url(#pddf3631b37)" style="fill: #0000ff; fill-opacity: 0.5; stroke: #000000; stroke-width: 0.231631; stroke-linejoin: miter"/>
   </g>
   <g id="patch_61">
    <path d="M 249.709838 384.48 
L 252.026152 384.48 
L 252.026152 308.552727 
L 249.709838 308.552727 
z
" clip-path="url(#pddf3631b37)" style="fill: #0000ff; fill-opacity: 0.5; stroke: #000000; stroke-width: 0.231631; stroke-linejoin: miter"/>
   </g>
   <g id="patch_62">
    <path d="M 252.026152 384.48 
L 254.342466 384.48 
L 254.342466 298.08 
L 252.026152 298.08 
z
" clip-path="url(#pddf3631b37)" style="fill: #0000ff; fill-opacity: 0.5; stroke: #000000; stroke-width: 0.231631; stroke-linejoin: miter"/>
   </g>
   <g id="patch_63">
    <path d="M 254.342466 384.48 
L 256.65878 384.48 
L 256.65878 311.170909 
L 254.342466 311.170909 
z
" clip-path="url(#pddf3631b37)" style="fill: #0000ff; fill-opacity: 0.5; stroke: #000000; stroke-width: 0.231631; stroke-linejoin: miter"/>
   </g>
   <g id="patch_64">
    <path d="M 256.65878 384.48 
L 258.975093 384.48 
L 258.975093 300.698182 
L 256.65878 300.698182 
z
" clip-path="url(#pddf3631b37)" style="fill: #0000ff; fill-opacity: 0.5; stroke: #000000; stroke-width: 0.231631; stroke-linejoin: miter"/>
   </g>
   <g id="patch_65">
    <path d="M 258.975093 384.48 
L 261.291407 384.48 
L 261.291407 321.643636 
L 258.975093 321.643636 
z
" clip-path="url(#pddf3631b37)" style="fill: #0000ff; fill-opacity: 0.5; stroke: #000000; stroke-width: 0.231631; stroke-linejoin: miter"/>
   </g>
   <g id="patch_66">
    <path d="M 261.291407 384.48 
L 263.607721 384.48 
L 263.607721 290.225455 
L 261.291407 290.225455 
z
" clip-path="url(#pddf3631b37)" style="fill: #0000ff; fill-opacity: 0.5; stroke: #000000; stroke-width: 0.231631; stroke-linejoin: miter"/>
   </g>
   <g id="patch_67">
    <path d="M 263.607721 384.48 
L 265.924035 384.48 
L 265.924035 287.607273 
L 263.607721 287.607273 
z
" clip-path="url(#pddf3631b37)" style="fill: #0000ff; fill-opacity: 0.5; stroke: #000000; stroke-width: 0.231631; stroke-linejoin: miter"/>
   </g>
   <g id="patch_68">
    <path d="M 265.924035 384.48 
L 268.240349 384.48 
L 268.240349 269.28 
L 265.924035 269.28 
z
" clip-path="url(#pddf3631b37)" style="fill: #0000ff; fill-opacity: 0.5; stroke: #000000; stroke-width: 0.231631; stroke-linejoin: miter"/>
   </g>
   <g id="patch_69">
    <path d="M 268.240349 384.48 
L 270.556663 384.48 
L 270.556663 282.370909 
L 268.240349 282.370909 
z
" clip-path="url(#pddf3631b37)" style="fill: #0000ff; fill-opacity: 0.5; stroke: #000000; stroke-width: 0.231631; stroke-linejoin: miter"/>
   </g>
   <g id="patch_70">
    <path d="M 270.556663 384.48 
L 272.872976 384.48 
L 272.872976 167.170909 
L 270.556663 167.170909 
z
" clip-path="url(#pddf3631b37)" style="fill: #0000ff; fill-opacity: 0.5; stroke: #000000; stroke-width: 0.231631; stroke-linejoin: miter"/>
   </g>
   <g id="patch_71">
    <path d="M 272.872976 384.48 
L 275.18929 384.48 
L 275.18929 240.48 
L 272.872976 240.48 
z
" clip-path="url(#pddf3631b37)" style="fill: #0000ff; fill-opacity: 0.5; stroke: #000000; stroke-width: 0.231631; stroke-linejoin: miter"/>
   </g>
   <g id="patch_72">
    <path d="M 275.18929 384.48 
L 277.505604 384.48 
L 277.505604 287.607273 
L 275.18929 287.607273 
z
" clip-path="url(#pddf3631b37)" style="fill: #0000ff; fill-opacity: 0.5; stroke: #000000; stroke-width: 0.231631; stroke-linejoin: miter"/>
   </g>
   <g id="patch_73">
    <path d="M 277.505604 384.48 
L 279.821918 384.48 
L 279.821918 261.425455 
L 277.505604 261.425455 
z
" clip-path="url(#pddf3631b37)" style="fill: #0000ff; fill-opacity: 0.5; stroke: #000000; stroke-width: 0.231631; stroke-linejoin: miter"/>
   </g>
   <g id="patch_74">
    <path d="M 279.821918 384.48 
L 282.138232 384.48 
L 282.138232 292.843636 
L 279.821918 292.843636 
z
" clip-path="url(#pddf3631b37)" style="fill: #0000ff; fill-opacity: 0.5; stroke: #000000; stroke-width: 0.231631; stroke-linejoin: miter"/>
   </g>
   <g id="patch_75">
    <path d="M 282.138232 384.48 
L 284.454545 384.48 
L 284.454545 311.170909 
L 282.138232 311.170909 
z
" clip-path="url(#pddf3631b37)" style="fill: #0000ff; fill-opacity: 0.5; stroke: #000000; stroke-width: 0.231631; stroke-linejoin: miter"/>
   </g>
   <g id="patch_76">
    <path d="M 284.454545 384.48 
L 286.770859 384.48 
L 286.770859 303.316364 
L 284.454545 303.316364 
z
" clip-path="url(#pddf3631b37)" style="fill: #0000ff; fill-opacity: 0.5; stroke: #000000; stroke-width: 0.231631; stroke-linejoin: miter"/>
   </g>
   <g id="patch_77">
    <path d="M 286.770859 384.48 
L 289.087173 384.48 
L 289.087173 277.134545 
L 286.770859 277.134545 
z
" clip-path="url(#pddf3631b37)" style="fill: #0000ff; fill-opacity: 0.5; stroke: #000000; stroke-width: 0.231631; stroke-linejoin: miter"/>
   </g>
   <g id="patch_78">
    <path d="M 289.087173 384.48 
L 291.403487 384.48 
L 291.403487 287.607273 
L 289.087173 287.607273 
z
" clip-path="url(#pddf3631b37)" style="fill: #0000ff; fill-opacity: 0.5; stroke: #000000; stroke-width: 0.231631; stroke-linejoin: miter"/>
   </g>
   <g id="patch_79">
    <path d="M 291.403487 384.48 
L 293.719801 384.48 
L 293.719801 258.807273 
L 291.403487 258.807273 
z
" clip-path="url(#pddf3631b37)" style="fill: #0000ff; fill-opacity: 0.5; stroke: #000000; stroke-width: 0.231631; stroke-linejoin: miter"/>
   </g>
   <g id="patch_80">
    <path d="M 293.719801 384.48 
L 296.036115 384.48 
L 296.036115 253.570909 
L 293.719801 253.570909 
z
" clip-path="url(#pddf3631b37)" style="fill: #0000ff; fill-opacity: 0.5; stroke: #000000; stroke-width: 0.231631; stroke-linejoin: miter"/>
   </g>
   <g id="patch_81">
    <path d="M 296.036115 384.48 
L 298.352428 384.48 
L 298.352428 261.425455 
L 296.036115 261.425455 
z
" clip-path="url(#pddf3631b37)" style="fill: #0000ff; fill-opacity: 0.5; stroke: #000000; stroke-width: 0.231631; stroke-linejoin: miter"/>
   </g>
   <g id="patch_82">
    <path d="M 298.352428 384.48 
L 300.668742 384.48 
L 300.668742 266.661818 
L 298.352428 266.661818 
z
" clip-path="url(#pddf3631b37)" style="fill: #0000ff; fill-opacity: 0.5; stroke: #000000; stroke-width: 0.231631; stroke-linejoin: miter"/>
   </g>
   <g id="patch_83">
    <path d="M 300.668742 384.48 
L 302.985056 384.48 
L 302.985056 258.807273 
L 300.668742 258.807273 
z
" clip-path="url(#pddf3631b37)" style="fill: #0000ff; fill-opacity: 0.5; stroke: #000000; stroke-width: 0.231631; stroke-linejoin: miter"/>
   </g>
   <g id="patch_84">
    <path d="M 302.985056 384.48 
L 305.30137 384.48 
L 305.30137 243.098182 
L 302.985056 243.098182 
z
" clip-path="url(#pddf3631b37)" style="fill: #0000ff; fill-opacity: 0.5; stroke: #000000; stroke-width: 0.231631; stroke-linejoin: miter"/>
   </g>
   <g id="patch_85">
    <path d="M 305.30137 384.48 
L 307.617684 384.48 
L 307.617684 224.770909 
L 305.30137 224.770909 
z
" clip-path="url(#pddf3631b37)" style="fill: #0000ff; fill-opacity: 0.5; stroke: #000000; stroke-width: 0.231631; stroke-linejoin: miter"/>
   </g>
   <g id="patch_86">
    <path d="M 307.617684 384.48 
L 309.933998 384.48 
L 309.933998 248.334545 
L 307.617684 248.334545 
z
" clip-path="url(#pddf3631b37)" style="fill: #0000ff; fill-opacity: 0.5; stroke: #000000; stroke-width: 0.231631; stroke-linejoin: miter"/>
   </g>
   <g id="patch_87">
    <path d="M 309.933998 384.48 
L 312.250311 384.48 
L 312.250311 67.68 
L 309.933998 67.68 
z
" clip-path="url(#pddf3631b37)" style="fill: #0000ff; fill-opacity: 0.5; stroke: #000000; stroke-width: 0.231631; stroke-linejoin: miter"/>
   </g>
   <g id="patch_88">
    <path d="M 312.250311 384.48 
L 314.566625 384.48 
L 314.566625 240.48 
L 312.250311 240.48 
z
" clip-path="url(#pddf3631b37)" style="fill: #0000ff; fill-opacity: 0.5; stroke: #000000; stroke-width: 0.231631; stroke-linejoin: miter"/>
   </g>
   <g id="patch_89">
    <path d="M 314.566625 384.48 
L 316.882939 384.48 
L 316.882939 227.389091 
L 314.566625 227.389091 
z
" clip-path="url(#pddf3631b37)" style="fill: #0000ff; fill-opacity: 0.5; stroke: #000000; stroke-width: 0.231631; stroke-linejoin: miter"/>
   </g>
   <g id="patch_90">
    <path d="M 316.882939 384.48 
L 319.199253 384.48 
L 319.199253 209.061818 
L 316.882939 209.061818 
z
" clip-path="url(#pddf3631b37)" style="fill: #0000ff; fill-opacity: 0.5; stroke: #000000; stroke-width: 0.231631; stroke-linejoin: miter"/>
   </g>
   <g id="patch_91">
    <path d="M 319.199253 384.48 
L 321.515567 384.48 
L 321.515567 240.48 
L 319.199253 240.48 
z
" clip-path="url(#pddf3631b37)" style="fill: #0000ff; fill-opacity: 0.5; stroke: #000000; stroke-width: 0.231631; stroke-linejoin: miter"/>
   </g>
   <g id="patch_92">
    <path d="M 321.515567 384.48 
L 323.83188 384.48 
L 323.83188 232.625455 
L 321.515567 232.625455 
z
" clip-path="url(#pddf3631b37)" style="fill: #0000ff; fill-opacity: 0.5; stroke: #000000; stroke-width: 0.231631; stroke-linejoin: miter"/>
   </g>
   <g id="patch_93">
    <path d="M 323.83188 384.48 
L 326.148194 384.48 
L 326.148194 209.061818 
L 323.83188 209.061818 
z
" clip-path="url(#pddf3631b37)" style="fill: #0000ff; fill-opacity: 0.5; stroke: #000000; stroke-width: 0.231631; stroke-linejoin: miter"/>
   </g>
   <g id="patch_94">
    <path d="M 326.148194 384.48 
L 328.464508 384.48 
L 328.464508 240.48 
L 326.148194 240.48 
z
" clip-path="url(#pddf3631b37)" style="fill: #0000ff; fill-opacity: 0.5; stroke: #000000; stroke-width: 0.231631; stroke-linejoin: miter"/>
   </g>
   <g id="patch_95">
    <path d="M 328.464508 384.48 
L 330.780822 384.48 
L 330.780822 224.770909 
L 328.464508 224.770909 
z
" clip-path="url(#pddf3631b37)" style="fill: #0000ff; fill-opacity: 0.5; stroke: #000000; stroke-width: 0.231631; stroke-linejoin: miter"/>
   </g>
   <g id="patch_96">
    <path d="M 330.780822 384.48 
L 333.097136 384.48 
L 333.097136 235.243636 
L 330.780822 235.243636 
z
" clip-path="url(#pddf3631b37)" style="fill: #0000ff; fill-opacity: 0.5; stroke: #000000; stroke-width: 0.231631; stroke-linejoin: miter"/>
   </g>
   <g id="patch_97">
    <path d="M 333.097136 384.48 
L 335.41345 384.48 
L 335.41345 214.298182 
L 333.097136 214.298182 
z
" clip-path="url(#pddf3631b37)" style="fill: #0000ff; fill-opacity: 0.5; stroke: #000000; stroke-width: 0.231631; stroke-linejoin: miter"/>
   </g>
   <g id="patch_98">
    <path d="M 335.41345 384.48 
L 337.729763 384.48 
L 337.729763 161.934545 
L 335.41345 161.934545 
z
" clip-path="url(#pddf3631b37)" style="fill: #0000ff; fill-opacity: 0.5; stroke: #000000; stroke-width: 0.231631; stroke-linejoin: miter"/>
   </g>
   <g id="patch_99">
    <path d="M 337.729763 384.48 
L 340.046077 384.48 
L 340.046077 156.698182 
L 337.729763 156.698182 
z
" clip-path="url(#pddf3631b37)" style="fill: #0000ff; fill-opacity: 0.5; stroke: #000000; stroke-width: 0.231631; stroke-linejoin: miter"/>
   </g>
   <g id="patch_100">
    <path d="M 340.046077 384.48 
L 342.362391 384.48 
L 342.362391 143.607273 
L 340.046077 143.607273 
z
" clip-path="url(#pddf3631b37)" style="fill: #0000ff; fill-opacity: 0.5; stroke: #000000; stroke-width: 0.231631; stroke-linejoin: miter"/>
   </g>
   <g id="patch_101">
    <path d="M 342.362391 384.48 
L 344.678705 384.48 
L 344.678705 180.261818 
L 342.362391 180.261818 
z
" clip-path="url(#pddf3631b37)" style="fill: #0000ff; fill-opacity: 0.5; stroke: #000000; stroke-width: 0.231631; stroke-linejoin: miter"/>
   </g>
   <g id="patch_102">
    <path d="M 344.678705 384.48 
L 346.995019 384.48 
L 346.995019 269.28 
L 344.678705 269.28 
z
" clip-path="url(#pddf3631b37)" style="fill: #0000ff; fill-opacity: 0.5; stroke: #000000; stroke-width: 0.231631; stroke-linejoin: miter"/>
   </g>
   <g id="patch_103">
    <path d="M 346.995019 384.48 
L 349.311333 384.48 
L 349.311333 282.370909 
L 346.995019 282.370909 
z
" clip-path="url(#pddf3631b37)" style="fill: #0000ff; fill-opacity: 0.5; stroke: #000000; stroke-width: 0.231631; stroke-linejoin: miter"/>
   </g>
   <g id="patch_104">
    <path d="M 349.311333 384.48 
L 351.627646 384.48 
L 351.627646 140.989091 
L 349.311333 140.989091 
z
" clip-path="url(#pddf3631b37)" style="fill: #0000ff; fill-opacity: 0.5; stroke: #000000; stroke-width: 0.231631; stroke-linejoin: miter"/>
   </g>
   <g id="patch_105">
    <path d="M 351.627646 384.48 
L 353.94396 384.48 
L 353.94396 253.570909 
L 351.627646 253.570909 
z
" clip-path="url(#pddf3631b37)" style="fill: #0000ff; fill-opacity: 0.5; stroke: #000000; stroke-width: 0.231631; stroke-linejoin: miter"/>
   </g>
   <g id="patch_106">
    <path d="M 353.94396 384.48 
L 356.260274 384.48 
L 356.260274 264.043636 
L 353.94396 264.043636 
z
" clip-path="url(#pddf3631b37)" style="fill: #0000ff; fill-opacity: 0.5; stroke: #000000; stroke-width: 0.231631; stroke-linejoin: miter"/>
   </g>
   <g id="patch_107">
    <path d="M 356.260274 384.48 
L 358.576588 384.48 
L 358.576588 292.843636 
L 356.260274 292.843636 
z
" clip-path="url(#pddf3631b37)" style="fill: #0000ff; fill-opacity: 0.5; stroke: #000000; stroke-width: 0.231631; stroke-linejoin: miter"/>
   </g>
   <g id="patch_108">
    <path d="M 358.576588 384.48 
L 360.892902 384.48 
L 360.892902 248.334545 
L 358.576588 248.334545 
z
" clip-path="url(#pddf3631b37)" style="fill: #0000ff; fill-opacity: 0.5; stroke: #000000; stroke-width: 0.231631; stroke-linejoin: miter"/>
   </g>
   <g id="patch_109">
    <path d="M 360.892902 384.48 
L 363.209215 384.48 
L 363.209215 250.952727 
L 360.892902 250.952727 
z
" clip-path="url(#pddf3631b37)" style="fill: #0000ff; fill-opacity: 0.5; stroke: #000000; stroke-width: 0.231631; stroke-linejoin: miter"/>
   </g>
   <g id="patch_110">
    <path d="M 363.209215 384.48 
L 365.525529 384.48 
L 365.525529 232.625455 
L 363.209215 232.625455 
z
" clip-path="url(#pddf3631b37)" style="fill: #0000ff; fill-opacity: 0.5; stroke: #000000; stroke-width: 0.231631; stroke-linejoin: miter"/>
   </g>
   <g id="patch_111">
    <path d="M 365.525529 384.48 
L 367.841843 384.48 
L 367.841843 250.952727 
L 365.525529 250.952727 
z
" clip-path="url(#pddf3631b37)" style="fill: #0000ff; fill-opacity: 0.5; stroke: #000000; stroke-width: 0.231631; stroke-linejoin: miter"/>
   </g>
   <g id="patch_112">
    <path d="M 367.841843 384.48 
L 370.158157 384.48 
L 370.158157 222.152727 
L 367.841843 222.152727 
z
" clip-path="url(#pddf3631b37)" style="fill: #0000ff; fill-opacity: 0.5; stroke: #000000; stroke-width: 0.231631; stroke-linejoin: miter"/>
   </g>
   <g id="patch_113">
    <path d="M 370.158157 384.48 
L 372.474471 384.48 
L 372.474471 240.48 
L 370.158157 240.48 
z
" clip-path="url(#pddf3631b37)" style="fill: #0000ff; fill-opacity: 0.5; stroke: #000000; stroke-width: 0.231631; stroke-linejoin: miter"/>
   </g>
   <g id="patch_114">
    <path d="M 372.474471 384.48 
L 374.790785 384.48 
L 374.790785 261.425455 
L 372.474471 261.425455 
z
" clip-path="url(#pddf3631b37)" style="fill: #0000ff; fill-opacity: 0.5; stroke: #000000; stroke-width: 0.231631; stroke-linejoin: miter"/>
   </g>
   <g id="patch_115">
    <path d="M 374.790785 384.48 
L 377.107098 384.48 
L 377.107098 269.28 
L 374.790785 269.28 
z
" clip-path="url(#pddf3631b37)" style="fill: #0000ff; fill-opacity: 0.5; stroke: #000000; stroke-width: 0.231631; stroke-linejoin: miter"/>
   </g>
   <g id="patch_116">
    <path d="M 377.107098 384.48 
L 379.423412 384.48 
L 379.423412 258.807273 
L 377.107098 258.807273 
z
" clip-path="url(#pddf3631b37)" style="fill: #0000ff; fill-opacity: 0.5; stroke: #000000; stroke-width: 0.231631; stroke-linejoin: miter"/>
   </g>
   <g id="patch_117">
    <path d="M 379.423412 384.48 
L 381.739726 384.48 
L 381.739726 240.48 
L 379.423412 240.48 
z
" clip-path="url(#pddf3631b37)" style="fill: #0000ff; fill-opacity: 0.5; stroke: #000000; stroke-width: 0.231631; stroke-linejoin: miter"/>
   </g>
   <g id="patch_118">
    <path d="M 381.739726 384.48 
L 384.05604 384.48 
L 384.05604 266.661818 
L 381.739726 266.661818 
z
" clip-path="url(#pddf3631b37)" style="fill: #0000ff; fill-opacity: 0.5; stroke: #000000; stroke-width: 0.231631; stroke-linejoin: miter"/>
   </g>
   <g id="patch_119">
    <path d="M 384.05604 384.48 
L 386.372354 384.48 
L 386.372354 282.370909 
L 384.05604 282.370909 
z
" clip-path="url(#pddf3631b37)" style="fill: #0000ff; fill-opacity: 0.5; stroke: #000000; stroke-width: 0.231631; stroke-linejoin: miter"/>
   </g>
   <g id="patch_120">
    <path d="M 386.372354 384.48 
L 388.688667 384.48 
L 388.688667 195.970909 
L 386.372354 195.970909 
z
" clip-path="url(#pddf3631b37)" style="fill: #0000ff; fill-opacity: 0.5; stroke: #000000; stroke-width: 0.231631; stroke-linejoin: miter"/>
   </g>
   <g id="patch_121">
    <path d="M 388.688667 384.48 
L 391.004981 384.48 
L 391.004981 274.516364 
L 388.688667 274.516364 
z
" clip-path="url(#pddf3631b37)" style="fill: #0000ff; fill-opacity: 0.5; stroke: #000000; stroke-width: 0.231631; stroke-linejoin: miter"/>
   </g>
   <g id="patch_122">
    <path d="M 391.004981 384.48 
L 393.321295 384.48 
L 393.321295 269.28 
L 391.004981 269.28 
z
" clip-path="url(#pddf3631b37)" style="fill: #0000ff; fill-opacity: 0.5; stroke: #000000; stroke-width: 0.231631; stroke-linejoin: miter"/>
   </g>
   <g id="patch_123">
    <path d="M 393.321295 384.48 
L 395.637609 384.48 
L 395.637609 261.425455 
L 393.321295 261.425455 
z
" clip-path="url(#pddf3631b37)" style="fill: #0000ff; fill-opacity: 0.5; stroke: #000000; stroke-width: 0.231631; stroke-linejoin: miter"/>
   </g>
   <g id="patch_124">
    <path d="M 395.637609 384.48 
L 397.953923 384.48 
L 397.953923 290.225455 
L 395.637609 290.225455 
z
" clip-path="url(#pddf3631b37)" style="fill: #0000ff; fill-opacity: 0.5; stroke: #000000; stroke-width: 0.231631; stroke-linejoin: miter"/>
   </g>
   <g id="patch_125">
    <path d="M 397.953923 384.48 
L 400.270237 384.48 
L 400.270237 264.043636 
L 397.953923 264.043636 
z
" clip-path="url(#pddf3631b37)" style="fill: #0000ff; fill-opacity: 0.5; stroke: #000000; stroke-width: 0.231631; stroke-linejoin: miter"/>
   </g>
   <g id="patch_126">
    <path d="M 400.270237 384.48 
L 402.58655 384.48 
L 402.58655 292.843636 
L 400.270237 292.843636 
z
" clip-path="url(#pddf3631b37)" style="fill: #0000ff; fill-opacity: 0.5; stroke: #000000; stroke-width: 0.231631; stroke-linejoin: miter"/>
   </g>
   <g id="patch_127">
    <path d="M 402.58655 384.48 
L 404.902864 384.48 
L 404.902864 253.570909 
L 402.58655 253.570909 
z
" clip-path="url(#pddf3631b37)" style="fill: #0000ff; fill-opacity: 0.5; stroke: #000000; stroke-width: 0.231631; stroke-linejoin: miter"/>
   </g>
   <g id="patch_128">
    <path d="M 404.902864 384.48 
L 407.219178 384.48 
L 407.219178 269.28 
L 404.902864 269.28 
z
" clip-path="url(#pddf3631b37)" style="fill: #0000ff; fill-opacity: 0.5; stroke: #000000; stroke-width: 0.231631; stroke-linejoin: miter"/>
   </g>
   <g id="patch_129">
    <path d="M 407.219178 384.48 
L 409.535492 384.48 
L 409.535492 290.225455 
L 407.219178 290.225455 
z
" clip-path="url(#pddf3631b37)" style="fill: #0000ff; fill-opacity: 0.5; stroke: #000000; stroke-width: 0.231631; stroke-linejoin: miter"/>
   </g>
   <g id="patch_130">
    <path d="M 409.535492 384.48 
L 411.851806 384.48 
L 411.851806 287.607273 
L 409.535492 287.607273 
z
" clip-path="url(#pddf3631b37)" style="fill: #0000ff; fill-opacity: 0.5; stroke: #000000; stroke-width: 0.231631; stroke-linejoin: miter"/>
   </g>
   <g id="patch_131">
    <path d="M 411.851806 384.48 
L 414.16812 384.48 
L 414.16812 277.134545 
L 411.851806 277.134545 
z
" clip-path="url(#pddf3631b37)" style="fill: #0000ff; fill-opacity: 0.5; stroke: #000000; stroke-width: 0.231631; stroke-linejoin: miter"/>
   </g>
   <g id="patch_132">
    <path d="M 414.16812 384.48 
L 416.484433 384.48 
L 416.484433 305.934545 
L 414.16812 305.934545 
z
" clip-path="url(#pddf3631b37)" style="fill: #0000ff; fill-opacity: 0.5; stroke: #000000; stroke-width: 0.231631; stroke-linejoin: miter"/>
   </g>
   <g id="patch_133">
    <path d="M 416.484433 384.48 
L 418.800747 384.48 
L 418.800747 303.316364 
L 416.484433 303.316364 
z
" clip-path="url(#pddf3631b37)" style="fill: #0000ff; fill-opacity: 0.5; stroke: #000000; stroke-width: 0.231631; stroke-linejoin: miter"/>
   </g>
   <g id="patch_134">
    <path d="M 418.800747 384.48 
L 421.117061 384.48 
L 421.117061 308.552727 
L 418.800747 308.552727 
z
" clip-path="url(#pddf3631b37)" style="fill: #0000ff; fill-opacity: 0.5; stroke: #000000; stroke-width: 0.231631; stroke-linejoin: miter"/>
   </g>
   <g id="patch_135">
    <path d="M 421.117061 384.48 
L 423.433375 384.48 
L 423.433375 292.843636 
L 421.117061 292.843636 
z
" clip-path="url(#pddf3631b37)" style="fill: #0000ff; fill-opacity: 0.5; stroke: #000000; stroke-width: 0.231631; stroke-linejoin: miter"/>
   </g>
   <g id="patch_136">
    <path d="M 423.433375 384.48 
L 425.749689 384.48 
L 425.749689 311.170909 
L 423.433375 311.170909 
z
" clip-path="url(#pddf3631b37)" style="fill: #0000ff; fill-opacity: 0.5; stroke: #000000; stroke-width: 0.231631; stroke-linejoin: miter"/>
   </g>
   <g id="patch_137">
    <path d="M 425.749689 384.48 
L 428.066002 384.48 
L 428.066002 235.243636 
L 425.749689 235.243636 
z
" clip-path="url(#pddf3631b37)" style="fill: #0000ff; fill-opacity: 0.5; stroke: #000000; stroke-width: 0.231631; stroke-linejoin: miter"/>
   </g>
   <g id="patch_138">
    <path d="M 428.066002 384.48 
L 430.382316 384.48 
L 430.382316 300.698182 
L 428.066002 300.698182 
z
" clip-path="url(#pddf3631b37)" style="fill: #0000ff; fill-opacity: 0.5; stroke: #000000; stroke-width: 0.231631; stroke-linejoin: miter"/>
   </g>
   <g id="patch_139">
    <path d="M 430.382316 384.48 
L 432.69863 384.48 
L 432.69863 321.643636 
L 430.382316 321.643636 
z
" clip-path="url(#pddf3631b37)" style="fill: #0000ff; fill-opacity: 0.5; stroke: #000000; stroke-width: 0.231631; stroke-linejoin: miter"/>
   </g>
   <g id="patch_140">
    <path d="M 432.69863 384.48 
L 435.014944 384.48 
L 435.014944 332.116364 
L 432.69863 332.116364 
z
" clip-path="url(#pddf3631b37)" style="fill: #0000ff; fill-opacity: 0.5; stroke: #000000; stroke-width: 0.231631; stroke-linejoin: miter"/>
   </g>
   <g id="patch_141">
    <path d="M 435.014944 384.48 
L 437.331258 384.48 
L 437.331258 334.734545 
L 435.014944 334.734545 
z
" clip-path="url(#pddf3631b37)" style="fill: #0000ff; fill-opacity: 0.5; stroke: #000000; stroke-width: 0.231631; stroke-linejoin: miter"/>
   </g>
   <g id="patch_142">
    <path d="M 437.331258 384.48 
L 439.647572 384.48 
L 439.647572 308.552727 
L 437.331258 308.552727 
z
" clip-path="url(#pddf3631b37)" style="fill: #0000ff; fill-opacity: 0.5; stroke: #000000; stroke-width: 0.231631; stroke-linejoin: miter"/>
   </g>
   <g id="patch_143">
    <path d="M 439.647572 384.48 
L 441.963885 384.48 
L 441.963885 326.88 
L 439.647572 326.88 
z
" clip-path="url(#pddf3631b37)" style="fill: #0000ff; fill-opacity: 0.5; stroke: #000000; stroke-width: 0.231631; stroke-linejoin: miter"/>
   </g>
   <g id="patch_144">
    <path d="M 441.963885 384.48 
L 444.280199 384.48 
L 444.280199 332.116364 
L 441.963885 332.116364 
z
" clip-path="url(#pddf3631b37)" style="fill: #0000ff; fill-opacity: 0.5; stroke: #000000; stroke-width: 0.231631; stroke-linejoin: miter"/>
   </g>
   <g id="patch_145">
    <path d="M 444.280199 384.48 
L 446.596513 384.48 
L 446.596513 292.843636 
L 444.280199 292.843636 
z
" clip-path="url(#pddf3631b37)" style="fill: #0000ff; fill-opacity: 0.5; stroke: #000000; stroke-width: 0.231631; stroke-linejoin: miter"/>
   </g>
   <g id="patch_146">
    <path d="M 446.596513 384.48 
L 448.912827 384.48 
L 448.912827 321.643636 
L 446.596513 321.643636 
z
" clip-path="url(#pddf3631b37)" style="fill: #0000ff; fill-opacity: 0.5; stroke: #000000; stroke-width: 0.231631; stroke-linejoin: miter"/>
   </g>
   <g id="patch_147">
    <path d="M 448.912827 384.48 
L 451.229141 384.48 
L 451.229141 308.552727 
L 448.912827 308.552727 
z
" clip-path="url(#pddf3631b37)" style="fill: #0000ff; fill-opacity: 0.5; stroke: #000000; stroke-width: 0.231631; stroke-linejoin: miter"/>
   </g>
   <g id="patch_148">
    <path d="M 451.229141 384.48 
L 453.545455 384.48 
L 453.545455 311.170909 
L 451.229141 311.170909 
z
" clip-path="url(#pddf3631b37)" style="fill: #0000ff; fill-opacity: 0.5; stroke: #000000; stroke-width: 0.231631; stroke-linejoin: miter"/>
   </g>
   <g id="patch_149">
    <path d="M 453.545455 384.48 
L 455.861768 384.48 
L 455.861768 311.170909 
L 453.545455 311.170909 
z
" clip-path="url(#pddf3631b37)" style="fill: #0000ff; fill-opacity: 0.5; stroke: #000000; stroke-width: 0.231631; stroke-linejoin: miter"/>
   </g>
   <g id="patch_150">
    <path d="M 455.861768 384.48 
L 458.178082 384.48 
L 458.178082 334.734545 
L 455.861768 334.734545 
z
" clip-path="url(#pddf3631b37)" style="fill: #0000ff; fill-opacity: 0.5; stroke: #000000; stroke-width: 0.231631; stroke-linejoin: miter"/>
   </g>
   <g id="patch_151">
    <path d="M 458.178082 384.48 
L 460.494396 384.48 
L 460.494396 319.025455 
L 458.178082 319.025455 
z
" clip-path="url(#pddf3631b37)" style="fill: #0000ff; fill-opacity: 0.5; stroke: #000000; stroke-width: 0.231631; stroke-linejoin: miter"/>
   </g>
   <g id="patch_152">
    <path d="M 460.494396 384.48 
L 462.81071 384.48 
L 462.81071 332.116364 
L 460.494396 332.116364 
z
" clip-path="url(#pddf3631b37)" style="fill: #0000ff; fill-opacity: 0.5; stroke: #000000; stroke-width: 0.231631; stroke-linejoin: miter"/>
   </g>
   <g id="patch_153">
    <path d="M 462.81071 384.48 
L 465.127024 384.48 
L 465.127024 329.498182 
L 462.81071 329.498182 
z
" clip-path="url(#pddf3631b37)" style="fill: #0000ff; fill-opacity: 0.5; stroke: #000000; stroke-width: 0.231631; stroke-linejoin: miter"/>
   </g>
   <g id="patch_154">
    <path d="M 465.127024 384.48 
L 467.443337 384.48 
L 467.443337 290.225455 
L 465.127024 290.225455 
z
" clip-path="url(#pddf3631b37)" style="fill: #0000ff; fill-opacity: 0.5; stroke: #000000; stroke-width: 0.231631; stroke-linejoin: miter"/>
   </g>
   <g id="patch_155">
    <path d="M 467.443337 384.48 
L 469.759651 384.48 
L 469.759651 313.789091 
L 467.443337 313.789091 
z
" clip-path="url(#pddf3631b37)" style="fill: #0000ff; fill-opacity: 0.5; stroke: #000000; stroke-width: 0.231631; stroke-linejoin: miter"/>
   </g>
   <g id="patch_156">
    <path d="M 469.759651 384.48 
L 472.075965 384.48 
L 472.075965 345.207273 
L 469.759651 345.207273 
z
" clip-path="url(#pddf3631b37)" style="fill: #0000ff; fill-opacity: 0.5; stroke: #000000; stroke-width: 0.231631; stroke-linejoin: miter"/>
   </g>
   <g id="patch_157">
    <path d="M 472.075965 384.48 
L 474.392279 384.48 
L 474.392279 350.443636 
L 472.075965 350.443636 
z
" clip-path="url(#pddf3631b37)" style="fill: #0000ff; fill-opacity: 0.5; stroke: #000000; stroke-width: 0.231631; stroke-linejoin: miter"/>
   </g>
   <g id="patch_158">
    <path d="M 474.392279 384.48 
L 476.708593 384.48 
L 476.708593 350.443636 
L 474.392279 350.443636 
z
" clip-path="url(#pddf3631b37)" style="fill: #0000ff; fill-opacity: 0.5; stroke: #000000; stroke-width: 0.231631; stroke-linejoin: miter"/>
   </g>
   <g id="patch_159">
    <path d="M 476.708593 384.48 
L 479.024907 384.48 
L 479.024907 350.443636 
L 476.708593 350.443636 
z
" clip-path="url(#pddf3631b37)" style="fill: #0000ff; fill-opacity: 0.5; stroke: #000000; stroke-width: 0.231631; stroke-linejoin: miter"/>
   </g>
   <g id="patch_160">
    <path d="M 479.024907 384.48 
L 481.34122 384.48 
L 481.34122 358.298182 
L 479.024907 358.298182 
z
" clip-path="url(#pddf3631b37)" style="fill: #0000ff; fill-opacity: 0.5; stroke: #000000; stroke-width: 0.231631; stroke-linejoin: miter"/>
   </g>
   <g id="patch_161">
    <path d="M 481.34122 384.48 
L 483.657534 384.48 
L 483.657534 353.061818 
L 481.34122 353.061818 
z
" clip-path="url(#pddf3631b37)" style="fill: #0000ff; fill-opacity: 0.5; stroke: #000000; stroke-width: 0.231631; stroke-linejoin: miter"/>
   </g>
   <g id="patch_162">
    <path d="M 483.657534 384.48 
L 485.973848 384.48 
L 485.973848 360.916364 
L 483.657534 360.916364 
z
" clip-path="url(#pddf3631b37)" style="fill: #0000ff; fill-opacity: 0.5; stroke: #000000; stroke-width: 0.231631; stroke-linejoin: miter"/>
   </g>
   <g id="patch_163">
    <path d="M 485.973848 384.48 
L 488.290162 384.48 
L 488.290162 358.298182 
L 485.973848 358.298182 
z
" clip-path="url(#pddf3631b37)" style="fill: #0000ff; fill-opacity: 0.5; stroke: #000000; stroke-width: 0.231631; stroke-linejoin: miter"/>
   </g>
   <g id="patch_164">
    <path d="M 488.290162 384.48 
L 490.606476 384.48 
L 490.606476 360.916364 
L 488.290162 360.916364 
z
" clip-path="url(#pddf3631b37)" style="fill: #0000ff; fill-opacity: 0.5; stroke: #000000; stroke-width: 0.231631; stroke-linejoin: miter"/>
   </g>
   <g id="patch_165">
    <path d="M 490.606476 384.48 
L 492.92279 384.48 
L 492.92279 368.770909 
L 490.606476 368.770909 
z
" clip-path="url(#pddf3631b37)" style="fill: #0000ff; fill-opacity: 0.5; stroke: #000000; stroke-width: 0.231631; stroke-linejoin: miter"/>
   </g>
   <g id="patch_166">
    <path d="M 492.92279 384.48 
L 495.239103 384.48 
L 495.239103 371.389091 
L 492.92279 371.389091 
z
" clip-path="url(#pddf3631b37)" style="fill: #0000ff; fill-opacity: 0.5; stroke: #000000; stroke-width: 0.231631; stroke-linejoin: miter"/>
   </g>
   <g id="patch_167">
    <path d="M 495.239103 384.48 
L 497.555417 384.48 
L 497.555417 363.534545 
L 495.239103 363.534545 
z
" clip-path="url(#pddf3631b37)" style="fill: #0000ff; fill-opacity: 0.5; stroke: #000000; stroke-width: 0.231631; stroke-linejoin: miter"/>
   </g>
   <g id="patch_168">
    <path d="M 497.555417 384.48 
L 499.871731 384.48 
L 499.871731 347.825455 
L 497.555417 347.825455 
z
" clip-path="url(#pddf3631b37)" style="fill: #0000ff; fill-opacity: 0.5; stroke: #000000; stroke-width: 0.231631; stroke-linejoin: miter"/>
   </g>
   <g id="patch_169">
    <path d="M 499.871731 384.48 
L 502.188045 384.48 
L 502.188045 353.061818 
L 499.871731 353.061818 
z
" clip-path="url(#pddf3631b37)" style="fill: #0000ff; fill-opacity: 0.5; stroke: #000000; stroke-width: 0.231631; stroke-linejoin: miter"/>
   </g>
   <g id="patch_170">
    <path d="M 502.188045 384.48 
L 504.504359 384.48 
L 504.504359 358.298182 
L 502.188045 358.298182 
z
" clip-path="url(#pddf3631b37)" style="fill: #0000ff; fill-opacity: 0.5; stroke: #000000; stroke-width: 0.231631; stroke-linejoin: miter"/>
   </g>
   <g id="patch_171">
    <path d="M 504.504359 384.48 
L 506.820672 384.48 
L 506.820672 358.298182 
L 504.504359 358.298182 
z
" clip-path="url(#pddf3631b37)" style="fill: #0000ff; fill-opacity: 0.5; stroke: #000000; stroke-width: 0.231631; stroke-linejoin: miter"/>
   </g>
   <g id="patch_172">
    <path d="M 506.820672 384.48 
L 509.136986 384.48 
L 509.136986 366.152727 
L 506.820672 366.152727 
z
" clip-path="url(#pddf3631b37)" style="fill: #0000ff; fill-opacity: 0.5; stroke: #000000; stroke-width: 0.231631; stroke-linejoin: miter"/>
   </g>
   <g id="patch_173">
    <path d="M 509.136986 384.48 
L 511.4533 384.48 
L 511.4533 374.007273 
L 509.136986 374.007273 
z
" clip-path="url(#pddf3631b37)" style="fill: #0000ff; fill-opacity: 0.5; stroke: #000000; stroke-width: 0.231631; stroke-linejoin: miter"/>
   </g>
   <g id="patch_174">
    <path d="M 511.4533 384.48 
L 513.769614 384.48 
L 513.769614 371.389091 
L 511.4533 371.389091 
z
" clip-path="url(#pddf3631b37)" style="fill: #0000ff; fill-opacity: 0.5; stroke: #000000; stroke-width: 0.231631; stroke-linejoin: miter"/>
   </g>
   <g id="patch_175">
    <path d="M 513.769614 384.48 
L 516.085928 384.48 
L 516.085928 371.389091 
L 513.769614 371.389091 
z
" clip-path="url(#pddf3631b37)" style="fill: #0000ff; fill-opacity: 0.5; stroke: #000000; stroke-width: 0.231631; stroke-linejoin: miter"/>
   </g>
   <g id="patch_176">
    <path d="M 516.085928 384.48 
L 518.402242 384.48 
L 518.402242 350.443636 
L 516.085928 350.443636 
z
" clip-path="url(#pddf3631b37)" style="fill: #0000ff; fill-opacity: 0.5; stroke: #000000; stroke-width: 0.231631; stroke-linejoin: miter"/>
   </g>
   <g id="patch_177">
    <path d="M 518.402242 384.48 
L 520.718555 384.48 
L 520.718555 360.916364 
L 518.402242 360.916364 
z
" clip-path="url(#pddf3631b37)" style="fill: #0000ff; fill-opacity: 0.5; stroke: #000000; stroke-width: 0.231631; stroke-linejoin: miter"/>
   </g>
   <g id="patch_178">
    <path d="M 520.718555 384.48 
L 523.034869 384.48 
L 523.034869 368.770909 
L 520.718555 368.770909 
z
" clip-path="url(#pddf3631b37)" style="fill: #0000ff; fill-opacity: 0.5; stroke: #000000; stroke-width: 0.231631; stroke-linejoin: miter"/>
   </g>
   <g id="patch_179">
    <path d="M 523.034869 384.48 
L 525.351183 384.48 
L 525.351183 358.298182 
L 523.034869 358.298182 
z
" clip-path="url(#pddf3631b37)" style="fill: #0000ff; fill-opacity: 0.5; stroke: #000000; stroke-width: 0.231631; stroke-linejoin: miter"/>
   </g>
   <g id="patch_180">
    <path d="M 525.351183 384.48 
L 527.667497 384.48 
L 527.667497 360.916364 
L 525.351183 360.916364 
z
" clip-path="url(#pddf3631b37)" style="fill: #0000ff; fill-opacity: 0.5; stroke: #000000; stroke-width: 0.231631; stroke-linejoin: miter"/>
   </g>
   <g id="patch_181">
    <path d="M 527.667497 384.48 
L 529.983811 384.48 
L 529.983811 363.534545 
L 527.667497 363.534545 
z
" clip-path="url(#pddf3631b37)" style="fill: #0000ff; fill-opacity: 0.5; stroke: #000000; stroke-width: 0.231631; stroke-linejoin: miter"/>
   </g>
   <g id="patch_182">
    <path d="M 529.983811 384.48 
L 532.300125 384.48 
L 532.300125 366.152727 
L 529.983811 366.152727 
z
" clip-path="url(#pddf3631b37)" style="fill: #0000ff; fill-opacity: 0.5; stroke: #000000; stroke-width: 0.231631; stroke-linejoin: miter"/>
   </g>
   <g id="patch_183">
    <path d="M 532.300125 384.48 
L 534.616438 384.48 
L 534.616438 376.625455 
L 532.300125 376.625455 
z
" clip-path="url(#pddf3631b37)" style="fill: #0000ff; fill-opacity: 0.5; stroke: #000000; stroke-width: 0.231631; stroke-linejoin: miter"/>
   </g>
   <g id="patch_184">
    <path d="M 534.616438 384.48 
L 536.932752 384.48 
L 536.932752 366.152727 
L 534.616438 366.152727 
z
" clip-path="url(#pddf3631b37)" style="fill: #0000ff; fill-opacity: 0.5; stroke: #000000; stroke-width: 0.231631; stroke-linejoin: miter"/>
   </g>
   <g id="patch_185">
    <path d="M 536.932752 384.48 
L 539.249066 384.48 
L 539.249066 363.534545 
L 536.932752 363.534545 
z
" clip-path="url(#pddf3631b37)" style="fill: #0000ff; fill-opacity: 0.5; stroke: #000000; stroke-width: 0.231631; stroke-linejoin: miter"/>
   </g>
   <g id="patch_186">
    <path d="M 539.249066 384.48 
L 541.56538 384.48 
L 541.56538 371.389091 
L 539.249066 371.389091 
z
" clip-path="url(#pddf3631b37)" style="fill: #0000ff; fill-opacity: 0.5; stroke: #000000; stroke-width: 0.231631; stroke-linejoin: miter"/>
   </g>
   <g id="patch_187">
    <path d="M 541.56538 384.48 
L 543.881694 384.48 
L 543.881694 366.152727 
L 541.56538 366.152727 
z
" clip-path="url(#pddf3631b37)" style="fill: #0000ff; fill-opacity: 0.5; stroke: #000000; stroke-width: 0.231631; stroke-linejoin: miter"/>
   </g>
   <g id="patch_188">
    <path d="M 543.881694 384.48 
L 546.198007 384.48 
L 546.198007 363.534545 
L 543.881694 363.534545 
z
" clip-path="url(#pddf3631b37)" style="fill: #0000ff; fill-opacity: 0.5; stroke: #000000; stroke-width: 0.231631; stroke-linejoin: miter"/>
   </g>
   <g id="patch_189">
    <path d="M 546.198007 384.48 
L 548.514321 384.48 
L 548.514321 379.243636 
L 546.198007 379.243636 
z
" clip-path="url(#pddf3631b37)" style="fill: #0000ff; fill-opacity: 0.5; stroke: #000000; stroke-width: 0.231631; stroke-linejoin: miter"/>
   </g>
   <g id="patch_190">
    <path d="M 548.514321 384.48 
L 550.830635 384.48 
L 550.830635 368.770909 
L 548.514321 368.770909 
z
" clip-path="url(#pddf3631b37)" style="fill: #0000ff; fill-opacity: 0.5; stroke: #000000; stroke-width: 0.231631; stroke-linejoin: miter"/>
   </g>
   <g id="patch_191">
    <path d="M 550.830635 384.48 
L 553.146949 384.48 
L 553.146949 366.152727 
L 550.830635 366.152727 
z
" clip-path="url(#pddf3631b37)" style="fill: #0000ff; fill-opacity: 0.5; stroke: #000000; stroke-width: 0.231631; stroke-linejoin: miter"/>
   </g>
   <g id="patch_192">
    <path d="M 553.146949 384.48 
L 555.463263 384.48 
L 555.463263 379.243636 
L 553.146949 379.243636 
z
" clip-path="url(#pddf3631b37)" style="fill: #0000ff; fill-opacity: 0.5; stroke: #000000; stroke-width: 0.231631; stroke-linejoin: miter"/>
   </g>
   <g id="patch_193">
    <path d="M 555.463263 384.48 
L 557.779577 384.48 
L 557.779577 376.625455 
L 555.463263 376.625455 
z
" clip-path="url(#pddf3631b37)" style="fill: #0000ff; fill-opacity: 0.5; stroke: #000000; stroke-width: 0.231631; stroke-linejoin: miter"/>
   </g>
   <g id="patch_194">
    <path d="M 557.779577 384.48 
L 560.09589 384.48 
L 560.09589 374.007273 
L 557.779577 374.007273 
z
" clip-path="url(#pddf3631b37)" style="fill: #0000ff; fill-opacity: 0.5; stroke: #000000; stroke-width: 0.231631; stroke-linejoin: miter"/>
   </g>
   <g id="patch_195">
    <path d="M 560.09589 384.48 
L 562.412204 384.48 
L 562.412204 366.152727 
L 560.09589 366.152727 
z
" clip-path="url(#pddf3631b37)" style="fill: #0000ff; fill-opacity: 0.5; stroke: #000000; stroke-width: 0.231631; stroke-linejoin: miter"/>
   </g>
   <g id="patch_196">
    <path d="M 562.412204 384.48 
L 564.728518 384.48 
L 564.728518 379.243636 
L 562.412204 379.243636 
z
" clip-path="url(#pddf3631b37)" style="fill: #0000ff; fill-opacity: 0.5; stroke: #000000; stroke-width: 0.231631; stroke-linejoin: miter"/>
   </g>
   <g id="patch_197">
    <path d="M 564.728518 384.48 
L 567.044832 384.48 
L 567.044832 371.389091 
L 564.728518 371.389091 
z
" clip-path="url(#pddf3631b37)" style="fill: #0000ff; fill-opacity: 0.5; stroke: #000000; stroke-width: 0.231631; stroke-linejoin: miter"/>
   </g>
   <g id="patch_198">
    <path d="M 567.044832 384.48 
L 569.361146 384.48 
L 569.361146 366.152727 
L 567.044832 366.152727 
z
" clip-path="url(#pddf3631b37)" style="fill: #0000ff; fill-opacity: 0.5; stroke: #000000; stroke-width: 0.231631; stroke-linejoin: miter"/>
   </g>
   <g id="patch_199">
    <path d="M 569.361146 384.48 
L 571.67746 384.48 
L 571.67746 374.007273 
L 569.361146 374.007273 
z
" clip-path="url(#pddf3631b37)" style="fill: #0000ff; fill-opacity: 0.5; stroke: #000000; stroke-width: 0.231631; stroke-linejoin: miter"/>
   </g>
   <g id="patch_200">
    <path d="M 571.67746 384.48 
L 573.993773 384.48 
L 573.993773 379.243636 
L 571.67746 379.243636 
z
" clip-path="url(#pddf3631b37)" style="fill: #0000ff; fill-opacity: 0.5; stroke: #000000; stroke-width: 0.231631; stroke-linejoin: miter"/>
   </g>
   <g id="patch_201">
    <path d="M 573.993773 384.48 
L 576.310087 384.48 
L 576.310087 381.861818 
L 573.993773 381.861818 
z
" clip-path="url(#pddf3631b37)" style="fill: #0000ff; fill-opacity: 0.5; stroke: #000000; stroke-width: 0.231631; stroke-linejoin: miter"/>
   </g>
   <g id="patch_202">
    <path d="M 576.310087 384.48 
L 578.626401 384.48 
L 578.626401 381.861818 
L 576.310087 381.861818 
z
" clip-path="url(#pddf3631b37)" style="fill: #0000ff; fill-opacity: 0.5; stroke: #000000; stroke-width: 0.231631; stroke-linejoin: miter"/>
   </g>
   <g id="patch_203">
    <path d="M 578.626401 384.48 
L 580.942715 384.48 
L 580.942715 374.007273 
L 578.626401 374.007273 
z
" clip-path="url(#pddf3631b37)" style="fill: #0000ff; fill-opacity: 0.5; stroke: #000000; stroke-width: 0.231631; stroke-linejoin: miter"/>
   </g>
   <g id="patch_204">
    <path d="M 580.942715 384.48 
L 583.259029 384.48 
L 583.259029 384.48 
L 580.942715 384.48 
z
" clip-path="url(#pddf3631b37)" style="fill: #0000ff; fill-opacity: 0.5; stroke: #000000; stroke-width: 0.231631; stroke-linejoin: miter"/>
   </g>
   <g id="patch_205">
    <path d="M 583.259029 384.48 
L 585.575342 384.48 
L 585.575342 379.243636 
L 583.259029 379.243636 
z
" clip-path="url(#pddf3631b37)" style="fill: #0000ff; fill-opacity: 0.5; stroke: #000000; stroke-width: 0.231631; stroke-linejoin: miter"/>
   </g>
   <g id="patch_206">
    <path d="M 585.575342 384.48 
L 587.891656 384.48 
L 587.891656 384.48 
L 585.575342 384.48 
z
" clip-path="url(#pddf3631b37)" style="fill: #0000ff; fill-opacity: 0.5; stroke: #000000; stroke-width: 0.231631; stroke-linejoin: miter"/>
   </g>
   <g id="patch_207">
    <path d="M 587.891656 384.48 
L 590.20797 384.48 
L 590.20797 381.861818 
L 587.891656 381.861818 
z
" clip-path="url(#pddf3631b37)" style="fill: #0000ff; fill-opacity: 0.5; stroke: #000000; stroke-width: 0.231631; stroke-linejoin: miter"/>
   </g>
   <g id="patch_208">
    <path d="M 590.20797 384.48 
L 592.524284 384.48 
L 592.524284 381.861818 
L 590.20797 381.861818 
z
" clip-path="url(#pddf3631b37)" style="fill: #0000ff; fill-opacity: 0.5; stroke: #000000; stroke-width: 0.231631; stroke-linejoin: miter"/>
   </g>
   <g id="patch_209">
    <path d="M 592.524284 384.48 
L 594.840598 384.48 
L 594.840598 384.48 
L 592.524284 384.48 
z
" clip-path="url(#pddf3631b37)" style="fill: #0000ff; fill-opacity: 0.5; stroke: #000000; stroke-width: 0.231631; stroke-linejoin: miter"/>
   </g>
   <g id="patch_210">
    <path d="M 594.840598 384.48 
L 597.156912 384.48 
L 597.156912 384.48 
L 594.840598 384.48 
z
" clip-path="url(#pddf3631b37)" style="fill: #0000ff; fill-opacity: 0.5; stroke: #000000; stroke-width: 0.231631; stroke-linejoin: miter"/>
   </g>
   <g id="patch_211">
    <path d="M 597.156912 384.48 
L 599.473225 384.48 
L 599.473225 381.861818 
L 597.156912 381.861818 
z
" clip-path="url(#pddf3631b37)" style="fill: #0000ff; fill-opacity: 0.5; stroke: #000000; stroke-width: 0.231631; stroke-linejoin: miter"/>
   </g>
   <g id="patch_212">
    <path d="M 599.473225 384.48 
L 601.789539 384.48 
L 601.789539 381.861818 
L 599.473225 381.861818 
z
" clip-path="url(#pddf3631b37)" style="fill: #0000ff; fill-opacity: 0.5; stroke: #000000; stroke-width: 0.231631; stroke-linejoin: miter"/>
   </g>
   <g id="patch_213">
    <path d="M 601.789539 384.48 
L 604.105853 384.48 
L 604.105853 384.48 
L 601.789539 384.48 
z
" clip-path="url(#pddf3631b37)" style="fill: #0000ff; fill-opacity: 0.5; stroke: #000000; stroke-width: 0.231631; stroke-linejoin: miter"/>
   </g>
   <g id="patch_214">
    <path d="M 604.105853 384.48 
L 606.422167 384.48 
L 606.422167 384.48 
L 604.105853 384.48 
z
" clip-path="url(#pddf3631b37)" style="fill: #0000ff; fill-opacity: 0.5; stroke: #000000; stroke-width: 0.231631; stroke-linejoin: miter"/>
   </g>
   <g id="patch_215">
    <path d="M 606.422167 384.48 
L 608.738481 384.48 
L 608.738481 384.48 
L 606.422167 384.48 
z
" clip-path="url(#pddf3631b37)" style="fill: #0000ff; fill-opacity: 0.5; stroke: #000000; stroke-width: 0.231631; stroke-linejoin: miter"/>
   </g>
   <g id="patch_216">
    <path d="M 608.738481 384.48 
L 611.054795 384.48 
L 611.054795 384.48 
L 608.738481 384.48 
z
" clip-path="url(#pddf3631b37)" style="fill: #0000ff; fill-opacity: 0.5; stroke: #000000; stroke-width: 0.231631; stroke-linejoin: miter"/>
   </g>
   <g id="patch_217">
    <path d="M 611.054795 384.48 
L 613.371108 384.48 
L 613.371108 384.48 
L 611.054795 384.48 
z
" clip-path="url(#pddf3631b37)" style="fill: #0000ff; fill-opacity: 0.5; stroke: #000000; stroke-width: 0.231631; stroke-linejoin: miter"/>
   </g>
   <g id="patch_218">
    <path d="M 613.371108 384.48 
L 615.687422 384.48 
L 615.687422 381.861818 
L 613.371108 381.861818 
z
" clip-path="url(#pddf3631b37)" style="fill: #0000ff; fill-opacity: 0.5; stroke: #000000; stroke-width: 0.231631; stroke-linejoin: miter"/>
   </g>
   <g id="patch_219">
    <path d="M 615.687422 384.48 
L 618.003736 384.48 
L 618.003736 384.48 
L 615.687422 384.48 
z
" clip-path="url(#pddf3631b37)" style="fill: #0000ff; fill-opacity: 0.5; stroke: #000000; stroke-width: 0.231631; stroke-linejoin: miter"/>
   </g>
   <g id="patch_220">
    <path d="M 618.003736 384.48 
L 620.32005 384.48 
L 620.32005 381.861818 
L 618.003736 381.861818 
z
" clip-path="url(#pddf3631b37)" style="fill: #0000ff; fill-opacity: 0.5; stroke: #000000; stroke-width: 0.231631; stroke-linejoin: miter"/>
   </g>
   <g id="patch_221">
    <path d="M 620.32005 384.48 
L 622.636364 384.48 
L 622.636364 379.243636 
L 620.32005 379.243636 
z
" clip-path="url(#pddf3631b37)" style="fill: #0000ff; fill-opacity: 0.5; stroke: #000000; stroke-width: 0.231631; stroke-linejoin: miter"/>
   </g>
   <g id="line2d_16">
    <path d="M 115.363636 381.140706 
L 123.010964 379.025225 
L 130.658291 376.948897 
L 135.75651 375.882482 
L 140.854728 375.151203 
L 148.502056 374.468202 
L 153.600274 374.00754 
L 158.698492 373.311203 
L 161.247602 372.823754 
L 163.796711 372.219364 
L 166.34582 371.479442 
L 168.894929 370.583478 
L 171.444038 369.508706 
L 173.993148 368.230948 
L 176.542257 366.726745 
L 179.091366 364.97659 
L 181.640475 362.96881 
L 184.189584 360.70344 
L 186.738693 358.195317 
L 189.287803 355.475678 
L 194.386021 349.603716 
L 202.033349 340.704181 
L 204.582458 337.96966 
L 207.131567 335.424603 
L 209.680676 333.085038 
L 212.229785 330.946909 
L 214.778894 328.98862 
L 219.877113 325.465866 
L 230.07355 318.841725 
L 235.171768 315.231812 
L 240.269986 311.220502 
L 245.368205 306.714021 
L 250.466423 301.679097 
L 255.564641 296.208128 
L 265.761078 285.042042 
L 270.859296 279.91783 
L 283.604842 267.882591 
L 286.153952 265.190226 
L 288.703061 262.283089 
L 291.25217 259.141295 
L 293.801279 255.768425 
L 298.899497 248.452722 
L 309.095934 233.128077 
L 311.645043 229.521382 
L 314.194153 226.122276 
L 316.743262 222.987277 
L 319.292371 220.176105 
L 321.84148 217.753987 
L 324.390589 215.791578 
L 326.939698 214.361543 
L 329.488808 213.531625 
L 332.037917 213.354993 
L 334.587026 213.859593 
L 337.136135 215.038802 
L 339.685244 216.845803 
L 342.234354 219.193532 
L 344.783463 221.961022 
L 349.881681 228.178774 
L 354.979899 234.39053 
L 357.529009 237.245754 
L 360.078118 239.877304 
L 362.627227 242.291084 
L 367.725445 246.624645 
L 380.470991 256.838631 
L 395.765646 269.696712 
L 400.863865 274.220983 
L 405.962083 279.144252 
L 411.060302 284.538369 
L 423.805847 298.711329 
L 426.354957 301.301619 
L 428.904066 303.71623 
L 431.453175 305.937252 
L 434.002284 307.963337 
L 436.551393 309.810222 
L 441.649612 313.105931 
L 449.296939 317.825423 
L 451.846048 319.554732 
L 454.395158 321.432713 
L 456.944267 323.482321 
L 459.493376 325.710832 
L 464.591594 330.65681 
L 469.689813 336.047516 
L 477.33714 344.169748 
L 482.435359 349.066951 
L 484.984468 351.254458 
L 487.533577 353.241603 
L 490.082686 355.020548 
L 492.631795 356.591887 
L 495.180905 357.963075 
L 497.730014 359.146648 
L 500.279123 360.158569 
L 502.828232 361.016962 
L 507.92645 362.352381 
L 513.024669 363.321993 
L 528.319324 365.793342 
L 533.417542 366.874311 
L 543.613979 369.379301 
L 569.105071 375.809723 
L 581.850617 379.389639 
L 586.948835 380.616886 
L 592.047053 381.607102 
L 597.145272 382.340677 
L 602.24349 382.843267 
L 609.890818 383.287444 
L 622.636364 383.703951 
L 622.636364 383.703951 
" clip-path="url(#pddf3631b37)" style="fill: none; stroke: #0000ff; stroke-width: 1.5; stroke-linecap: square"/>
   </g>
   <g id="patch_222">
    <path d="M 90 384.48 
L 90 51.84 
" style="fill: none; stroke: #000000; stroke-width: 0.8; stroke-linejoin: miter; stroke-linecap: square"/>
   </g>
   <g id="patch_223">
    <path d="M 648 384.48 
L 648 51.84 
" style="fill: none; stroke: #000000; stroke-width: 0.8; stroke-linejoin: miter; stroke-linecap: square"/>
   </g>
   <g id="patch_224">
    <path d="M 90 384.48 
L 648 384.48 
" style="fill: none; stroke: #000000; stroke-width: 0.8; stroke-linejoin: miter; stroke-linecap: square"/>
   </g>
   <g id="patch_225">
    <path d="M 90 51.84 
L 648 51.84 
" style="fill: none; stroke: #000000; stroke-width: 0.8; stroke-linejoin: miter; stroke-linecap: square"/>
   </g>
   <g id="text_15">
    <!-- Time Distribution VLC Marathon Women -->
    <g transform="translate(248.836875 45.84) scale(0.12 -0.12)">
     <defs>
      <path id="DejaVuSans-54" d="M -19 4666 
L 3928 4666 
L 3928 4134 
L 2272 4134 
L 2272 0 
L 1638 0 
L 1638 4134 
L -19 4134 
L -19 4666 
z
" transform="scale(0.015625)"/>
      <path id="DejaVuSans-6d" d="M 3328 2828 
Q 3544 3216 3844 3400 
Q 4144 3584 4550 3584 
Q 5097 3584 5394 3201 
Q 5691 2819 5691 2113 
L 5691 0 
L 5113 0 
L 5113 2094 
Q 5113 2597 4934 2840 
Q 4756 3084 4391 3084 
Q 3944 3084 3684 2787 
Q 3425 2491 3425 1978 
L 3425 0 
L 2847 0 
L 2847 2094 
Q 2847 2600 2669 2842 
Q 2491 3084 2119 3084 
Q 1678 3084 1418 2786 
Q 1159 2488 1159 1978 
L 1159 0 
L 581 0 
L 581 3500 
L 1159 3500 
L 1159 2956 
Q 1356 3278 1631 3431 
Q 1906 3584 2284 3584 
Q 2666 3584 2933 3390 
Q 3200 3197 3328 2828 
z
" transform="scale(0.015625)"/>
      <path id="DejaVuSans-20" transform="scale(0.015625)"/>
      <path id="DejaVuSans-44" d="M 1259 4147 
L 1259 519 
L 2022 519 
Q 2988 519 3436 956 
Q 3884 1394 3884 2338 
Q 3884 3275 3436 3711 
Q 2988 4147 2022 4147 
L 1259 4147 
z
M 628 4666 
L 1925 4666 
Q 3281 4666 3915 4102 
Q 4550 3538 4550 2338 
Q 4550 1131 3912 565 
Q 3275 0 1925 0 
L 628 0 
L 628 4666 
z
" transform="scale(0.015625)"/>
      <path id="DejaVuSans-62" d="M 3116 1747 
Q 3116 2381 2855 2742 
Q 2594 3103 2138 3103 
Q 1681 3103 1420 2742 
Q 1159 2381 1159 1747 
Q 1159 1113 1420 752 
Q 1681 391 2138 391 
Q 2594 391 2855 752 
Q 3116 1113 3116 1747 
z
M 1159 2969 
Q 1341 3281 1617 3432 
Q 1894 3584 2278 3584 
Q 2916 3584 3314 3078 
Q 3713 2572 3713 1747 
Q 3713 922 3314 415 
Q 2916 -91 2278 -91 
Q 1894 -91 1617 61 
Q 1341 213 1159 525 
L 1159 0 
L 581 0 
L 581 4863 
L 1159 4863 
L 1159 2969 
z
" transform="scale(0.015625)"/>
      <path id="DejaVuSans-6f" d="M 1959 3097 
Q 1497 3097 1228 2736 
Q 959 2375 959 1747 
Q 959 1119 1226 758 
Q 1494 397 1959 397 
Q 2419 397 2687 759 
Q 2956 1122 2956 1747 
Q 2956 2369 2687 2733 
Q 2419 3097 1959 3097 
z
M 1959 3584 
Q 2709 3584 3137 3096 
Q 3566 2609 3566 1747 
Q 3566 888 3137 398 
Q 2709 -91 1959 -91 
Q 1206 -91 779 398 
Q 353 888 353 1747 
Q 353 2609 779 3096 
Q 1206 3584 1959 3584 
z
" transform="scale(0.015625)"/>
      <path id="DejaVuSans-56" d="M 1831 0 
L 50 4666 
L 709 4666 
L 2188 738 
L 3669 4666 
L 4325 4666 
L 2547 0 
L 1831 0 
z
" transform="scale(0.015625)"/>
      <path id="DejaVuSans-4c" d="M 628 4666 
L 1259 4666 
L 1259 531 
L 3531 531 
L 3531 0 
L 628 0 
L 628 4666 
z
" transform="scale(0.015625)"/>
      <path id="DejaVuSans-43" d="M 4122 4306 
L 4122 3641 
Q 3803 3938 3442 4084 
Q 3081 4231 2675 4231 
Q 1875 4231 1450 3742 
Q 1025 3253 1025 2328 
Q 1025 1406 1450 917 
Q 1875 428 2675 428 
Q 3081 428 3442 575 
Q 3803 722 4122 1019 
L 4122 359 
Q 3791 134 3420 21 
Q 3050 -91 2638 -91 
Q 1578 -91 968 557 
Q 359 1206 359 2328 
Q 359 3453 968 4101 
Q 1578 4750 2638 4750 
Q 3056 4750 3426 4639 
Q 3797 4528 4122 4306 
z
" transform="scale(0.015625)"/>
      <path id="DejaVuSans-61" d="M 2194 1759 
Q 1497 1759 1228 1600 
Q 959 1441 959 1056 
Q 959 750 1161 570 
Q 1363 391 1709 391 
Q 2188 391 2477 730 
Q 2766 1069 2766 1631 
L 2766 1759 
L 2194 1759 
z
M 3341 1997 
L 3341 0 
L 2766 0 
L 2766 531 
Q 2569 213 2275 61 
Q 1981 -91 1556 -91 
Q 1019 -91 701 211 
Q 384 513 384 1019 
Q 384 1609 779 1909 
Q 1175 2209 1959 2209 
L 2766 2209 
L 2766 2266 
Q 2766 2663 2505 2880 
Q 2244 3097 1772 3097 
Q 1472 3097 1187 3025 
Q 903 2953 641 2809 
L 641 3341 
Q 956 3463 1253 3523 
Q 1550 3584 1831 3584 
Q 2591 3584 2966 3190 
Q 3341 2797 3341 1997 
z
" transform="scale(0.015625)"/>
      <path id="DejaVuSans-68" d="M 3513 2113 
L 3513 0 
L 2938 0 
L 2938 2094 
Q 2938 2591 2744 2837 
Q 2550 3084 2163 3084 
Q 1697 3084 1428 2787 
Q 1159 2491 1159 1978 
L 1159 0 
L 581 0 
L 581 4863 
L 1159 4863 
L 1159 2956 
Q 1366 3272 1645 3428 
Q 1925 3584 2291 3584 
Q 2894 3584 3203 3211 
Q 3513 2838 3513 2113 
z
" transform="scale(0.015625)"/>
      <path id="DejaVuSans-57" d="M 213 4666 
L 850 4666 
L 1831 722 
L 2809 4666 
L 3519 4666 
L 4500 722 
L 5478 4666 
L 6119 4666 
L 4947 0 
L 4153 0 
L 3169 4050 
L 2175 0 
L 1381 0 
L 213 4666 
z
" transform="scale(0.015625)"/>
     </defs>
     <use xlink:href="#DejaVuSans-54"/>
     <use xlink:href="#DejaVuSans-69" x="57.958984"/>
     <use xlink:href="#DejaVuSans-6d" x="85.742188"/>
     <use xlink:href="#DejaVuSans-65" x="183.154297"/>
     <use xlink:href="#DejaVuSans-20" x="244.677734"/>
     <use xlink:href="#DejaVuSans-44" x="276.464844"/>
     <use xlink:href="#DejaVuSans-69" x="353.466797"/>
     <use xlink:href="#DejaVuSans-73" x="381.25"/>
     <use xlink:href="#DejaVuSans-74" x="433.349609"/>
     <use xlink:href="#DejaVuSans-72" x="472.558594"/>
     <use xlink:href="#DejaVuSans-69" x="513.671875"/>
     <use xlink:href="#DejaVuSans-62" x="541.455078"/>
     <use xlink:href="#DejaVuSans-75" x="604.931641"/>
     <use xlink:href="#DejaVuSans-74" x="668.310547"/>
     <use xlink:href="#DejaVuSans-69" x="707.519531"/>
     <use xlink:href="#DejaVuSans-6f" x="735.302734"/>
     <use xlink:href="#DejaVuSans-6e" x="796.484375"/>
     <use xlink:href="#DejaVuSans-20" x="859.863281"/>
     <use xlink:href="#DejaVuSans-56" x="891.650391"/>
     <use xlink:href="#DejaVuSans-4c" x="960.058594"/>
     <use xlink:href="#DejaVuSans-43" x="1015.771484"/>
     <use xlink:href="#DejaVuSans-20" x="1085.595703"/>
     <use xlink:href="#DejaVuSans-4d" x="1117.382812"/>
     <use xlink:href="#DejaVuSans-61" x="1203.662109"/>
     <use xlink:href="#DejaVuSans-72" x="1264.941406"/>
     <use xlink:href="#DejaVuSans-61" x="1306.054688"/>
     <use xlink:href="#DejaVuSans-74" x="1367.333984"/>
     <use xlink:href="#DejaVuSans-68" x="1406.542969"/>
     <use xlink:href="#DejaVuSans-6f" x="1469.921875"/>
     <use xlink:href="#DejaVuSans-6e" x="1531.103516"/>
     <use xlink:href="#DejaVuSans-20" x="1594.482422"/>
     <use xlink:href="#DejaVuSans-57" x="1626.269531"/>
     <use xlink:href="#DejaVuSans-6f" x="1719.271484"/>
     <use xlink:href="#DejaVuSans-6d" x="1780.453125"/>
     <use xlink:href="#DejaVuSans-65" x="1877.865234"/>
     <use xlink:href="#DejaVuSans-6e" x="1939.388672"/>
    </g>
   </g>
   <g id="legend_1">
    <g id="patch_226">
     <path d="M 561.3625 103.874375 
L 641 103.874375 
Q 643 103.874375 643 101.874375 
L 643 58.84 
Q 643 56.84 641 56.84 
L 561.3625 56.84 
Q 559.3625 56.84 559.3625 58.84 
L 559.3625 101.874375 
Q 559.3625 103.874375 561.3625 103.874375 
z
" style="fill: #ffffff; opacity: 0.8; stroke: #cccccc; stroke-linejoin: miter"/>
    </g>
    <g id="line2d_17">
     <path d="M 563.3625 64.938437 
L 573.3625 64.938437 
L 583.3625 64.938437 
" style="fill: none; stroke-dasharray: 3.7,1.6; stroke-dashoffset: 0; stroke: #ff0000"/>
    </g>
    <g id="text_16">
     <!-- Sub 3h -->
     <g transform="translate(591.3625 68.438437) scale(0.1 -0.1)">
      <defs>
       <path id="DejaVuSans-53" d="M 3425 4513 
L 3425 3897 
Q 3066 4069 2747 4153 
Q 2428 4238 2131 4238 
Q 1616 4238 1336 4038 
Q 1056 3838 1056 3469 
Q 1056 3159 1242 3001 
Q 1428 2844 1947 2747 
L 2328 2669 
Q 3034 2534 3370 2195 
Q 3706 1856 3706 1288 
Q 3706 609 3251 259 
Q 2797 -91 1919 -91 
Q 1588 -91 1214 -16 
Q 841 59 441 206 
L 441 856 
Q 825 641 1194 531 
Q 1563 422 1919 422 
Q 2459 422 2753 634 
Q 3047 847 3047 1241 
Q 3047 1584 2836 1778 
Q 2625 1972 2144 2069 
L 1759 2144 
Q 1053 2284 737 2584 
Q 422 2884 422 3419 
Q 422 4038 858 4394 
Q 1294 4750 2059 4750 
Q 2388 4750 2728 4690 
Q 3069 4631 3425 4513 
z
" transform="scale(0.015625)"/>
      </defs>
      <use xlink:href="#DejaVuSans-53"/>
      <use xlink:href="#DejaVuSans-75" x="63.476562"/>
      <use xlink:href="#DejaVuSans-62" x="126.855469"/>
      <use xlink:href="#DejaVuSans-20" x="190.332031"/>
      <use xlink:href="#DejaVuSans-33" x="222.119141"/>
      <use xlink:href="#DejaVuSans-68" x="285.742188"/>
     </g>
    </g>
    <g id="line2d_18">
     <path d="M 563.3625 79.616562 
L 573.3625 79.616562 
L 583.3625 79.616562 
" style="fill: none; stroke-dasharray: 3.7,1.6; stroke-dashoffset: 0; stroke: #ffa500"/>
    </g>
    <g id="text_17">
     <!-- Sub 3h30 -->
     <g transform="translate(591.3625 83.116562) scale(0.1 -0.1)">
      <use xlink:href="#DejaVuSans-53"/>
      <use xlink:href="#DejaVuSans-75" x="63.476562"/>
      <use xlink:href="#DejaVuSans-62" x="126.855469"/>
      <use xlink:href="#DejaVuSans-20" x="190.332031"/>
      <use xlink:href="#DejaVuSans-33" x="222.119141"/>
      <use xlink:href="#DejaVuSans-68" x="285.742188"/>
      <use xlink:href="#DejaVuSans-33" x="349.121094"/>
      <use xlink:href="#DejaVuSans-30" x="412.744141"/>
     </g>
    </g>
    <g id="line2d_19">
     <path d="M 563.3625 94.294687 
L 573.3625 94.294687 
L 583.3625 94.294687 
" style="fill: none; stroke-dasharray: 3.7,1.6; stroke-dashoffset: 0; stroke: #008000"/>
    </g>
    <g id="text_18">
     <!-- Sub 4h -->
     <g transform="translate(591.3625 97.794687) scale(0.1 -0.1)">
      <use xlink:href="#DejaVuSans-53"/>
      <use xlink:href="#DejaVuSans-75" x="63.476562"/>
      <use xlink:href="#DejaVuSans-62" x="126.855469"/>
      <use xlink:href="#DejaVuSans-20" x="190.332031"/>
      <use xlink:href="#DejaVuSans-34" x="222.119141"/>
      <use xlink:href="#DejaVuSans-68" x="285.742188"/>
     </g>
    </g>
   </g>
  </g>
 </g>
 <defs>
  <clipPath id="pddf3631b37">
   <rect x="90" y="51.84" width="558" height="332.64"/>
  </clipPath>
 </defs>
</svg>
