<?xml version="1.0" encoding="utf-8" standalone="no"?>
<!DOCTYPE svg PUBLIC "-//W3C//DTD SVG 1.1//EN"
  "http://www.w3.org/Graphics/SVG/1.1/DTD/svg11.dtd">
<svg xmlns:xlink="http://www.w3.org/1999/xlink" width="720pt" height="432pt" viewBox="0 0 720 432" xmlns="http://www.w3.org/2000/svg" version="1.1">
 <metadata>
  <rdf:RDF xmlns:dc="http://purl.org/dc/elements/1.1/" xmlns:cc="http://creativecommons.org/ns#" xmlns:rdf="http://www.w3.org/1999/02/22-rdf-syntax-ns#">
   <cc:Work>
    <dc:type rdf:resource="http://purl.org/dc/dcmitype/StillImage"/>
    <dc:date>2024-12-02T08:41:30.670423</dc:date>
    <dc:format>image/svg+xml</dc:format>
    <dc:creator>
     <cc:Agent>
      <dc:title>Matplotlib v3.9.2, https://matplotlib.org/</dc:title>
     </cc:Agent>
    </dc:creator>
   </cc:Work>
  </rdf:RDF>
 </metadata>
 <defs>
  <style type="text/css">*{stroke-linejoin: round; stroke-linecap: butt}</style>
 </defs>
 <g id="figure_1">
  <g id="patch_1">
   <path d="M 0 432 
L 720 432 
L 720 0 
L 0 0 
z
" style="fill: #ffffff"/>
  </g>
  <g id="axes_1">
   <g id="patch_2">
    <path d="M 90 384.48 
L 648 384.48 
L 648 51.84 
L 90 51.84 
z
" style="fill: #ffffff"/>
   </g>
   <g id="line2d_1">
    <path d="M 228.971591 384.48 
L 228.971591 51.84 
" clip-path="url(#pf7337c4691)" style="fill: none; stroke-dasharray: 3.7,1.6; stroke-dashoffset: 0; stroke: #ff0000"/>
   </g>
   <g id="line2d_2">
    <path d="M 308.232955 384.48 
L 308.232955 51.84 
" clip-path="url(#pf7337c4691)" style="fill: none; stroke-dasharray: 3.7,1.6; stroke-dashoffset: 0; stroke: #ffa500"/>
   </g>
   <g id="line2d_3">
    <path d="M 387.494318 384.48 
L 387.494318 51.84 
" clip-path="url(#pf7337c4691)" style="fill: none; stroke-dasharray: 3.7,1.6; stroke-dashoffset: 0; stroke: #008000"/>
   </g>
   <g id="matplotlib.axis_1">
    <g id="xtick_1">
     <g id="line2d_4">
      <defs>
       <path id="m155eb6fa3a" d="M 0 0 
L 0 3.5 
" style="stroke: #000000; stroke-width: 0.8"/>
      </defs>
      <g>
       <use xlink:href="#m155eb6fa3a" x="149.710227" y="384.48" style="stroke: #000000; stroke-width: 0.8"/>
      </g>
     </g>
     <g id="text_1">
      <!-- 150 -->
      <g transform="translate(142.075227 397.55875) scale(0.08 -0.08)">
       <defs>
        <path id="DejaVuSans-31" d="M 794 531 
L 1825 531 
L 1825 4091 
L 703 3866 
L 703 4441 
L 1819 4666 
L 2450 4666 
L 2450 531 
L 3481 531 
L 3481 0 
L 794 0 
L 794 531 
z
" transform="scale(0.015625)"/>
        <path id="DejaVuSans-35" d="M 691 4666 
L 3169 4666 
L 3169 4134 
L 1269 4134 
L 1269 2991 
Q 1406 3038 1543 3061 
Q 1681 3084 1819 3084 
Q 2600 3084 3056 2656 
Q 3513 2228 3513 1497 
Q 3513 744 3044 326 
Q 2575 -91 1722 -91 
Q 1428 -91 1123 -41 
Q 819 9 494 109 
L 494 744 
Q 775 591 1075 516 
Q 1375 441 1709 441 
Q 2250 441 2565 725 
Q 2881 1009 2881 1497 
Q 2881 1984 2565 2268 
Q 2250 2553 1709 2553 
Q 1456 2553 1204 2497 
Q 953 2441 691 2322 
L 691 4666 
z
" transform="scale(0.015625)"/>
        <path id="DejaVuSans-30" d="M 2034 4250 
Q 1547 4250 1301 3770 
Q 1056 3291 1056 2328 
Q 1056 1369 1301 889 
Q 1547 409 2034 409 
Q 2525 409 2770 889 
Q 3016 1369 3016 2328 
Q 3016 3291 2770 3770 
Q 2525 4250 2034 4250 
z
M 2034 4750 
Q 2819 4750 3233 4129 
Q 3647 3509 3647 2328 
Q 3647 1150 3233 529 
Q 2819 -91 2034 -91 
Q 1250 -91 836 529 
Q 422 1150 422 2328 
Q 422 3509 836 4129 
Q 1250 4750 2034 4750 
z
" transform="scale(0.015625)"/>
       </defs>
       <use xlink:href="#DejaVuSans-31"/>
       <use xlink:href="#DejaVuSans-35" x="63.623047"/>
       <use xlink:href="#DejaVuSans-30" x="127.246094"/>
      </g>
     </g>
    </g>
    <g id="xtick_2">
     <g id="line2d_5">
      <g>
       <use xlink:href="#m155eb6fa3a" x="215.761364" y="384.48" style="stroke: #000000; stroke-width: 0.8"/>
      </g>
     </g>
     <g id="text_2">
      <!-- 175 -->
      <g transform="translate(208.126364 397.55875) scale(0.08 -0.08)">
       <defs>
        <path id="DejaVuSans-37" d="M 525 4666 
L 3525 4666 
L 3525 4397 
L 1831 0 
L 1172 0 
L 2766 4134 
L 525 4134 
L 525 4666 
z
" transform="scale(0.015625)"/>
       </defs>
       <use xlink:href="#DejaVuSans-31"/>
       <use xlink:href="#DejaVuSans-37" x="63.623047"/>
       <use xlink:href="#DejaVuSans-35" x="127.246094"/>
      </g>
     </g>
    </g>
    <g id="xtick_3">
     <g id="line2d_6">
      <g>
       <use xlink:href="#m155eb6fa3a" x="281.8125" y="384.48" style="stroke: #000000; stroke-width: 0.8"/>
      </g>
     </g>
     <g id="text_3">
      <!-- 200 -->
      <g transform="translate(274.1775 397.55875) scale(0.08 -0.08)">
       <defs>
        <path id="DejaVuSans-32" d="M 1228 531 
L 3431 531 
L 3431 0 
L 469 0 
L 469 531 
Q 828 903 1448 1529 
Q 2069 2156 2228 2338 
Q 2531 2678 2651 2914 
Q 2772 3150 2772 3378 
Q 2772 3750 2511 3984 
Q 2250 4219 1831 4219 
Q 1534 4219 1204 4116 
Q 875 4013 500 3803 
L 500 4441 
Q 881 4594 1212 4672 
Q 1544 4750 1819 4750 
Q 2544 4750 2975 4387 
Q 3406 4025 3406 3419 
Q 3406 3131 3298 2873 
Q 3191 2616 2906 2266 
Q 2828 2175 2409 1742 
Q 1991 1309 1228 531 
z
" transform="scale(0.015625)"/>
       </defs>
       <use xlink:href="#DejaVuSans-32"/>
       <use xlink:href="#DejaVuSans-30" x="63.623047"/>
       <use xlink:href="#DejaVuSans-30" x="127.246094"/>
      </g>
     </g>
    </g>
    <g id="xtick_4">
     <g id="line2d_7">
      <g>
       <use xlink:href="#m155eb6fa3a" x="347.863636" y="384.48" style="stroke: #000000; stroke-width: 0.8"/>
      </g>
     </g>
     <g id="text_4">
      <!-- 225 -->
      <g transform="translate(340.228636 397.55875) scale(0.08 -0.08)">
       <use xlink:href="#DejaVuSans-32"/>
       <use xlink:href="#DejaVuSans-32" x="63.623047"/>
       <use xlink:href="#DejaVuSans-35" x="127.246094"/>
      </g>
     </g>
    </g>
    <g id="xtick_5">
     <g id="line2d_8">
      <g>
       <use xlink:href="#m155eb6fa3a" x="413.914773" y="384.48" style="stroke: #000000; stroke-width: 0.8"/>
      </g>
     </g>
     <g id="text_5">
      <!-- 250 -->
      <g transform="translate(406.279773 397.55875) scale(0.08 -0.08)">
       <use xlink:href="#DejaVuSans-32"/>
       <use xlink:href="#DejaVuSans-35" x="63.623047"/>
       <use xlink:href="#DejaVuSans-30" x="127.246094"/>
      </g>
     </g>
    </g>
    <g id="xtick_6">
     <g id="line2d_9">
      <g>
       <use xlink:href="#m155eb6fa3a" x="479.965909" y="384.48" style="stroke: #000000; stroke-width: 0.8"/>
      </g>
     </g>
     <g id="text_6">
      <!-- 275 -->
      <g transform="translate(472.330909 397.55875) scale(0.08 -0.08)">
       <use xlink:href="#DejaVuSans-32"/>
       <use xlink:href="#DejaVuSans-37" x="63.623047"/>
       <use xlink:href="#DejaVuSans-35" x="127.246094"/>
      </g>
     </g>
    </g>
    <g id="xtick_7">
     <g id="line2d_10">
      <g>
       <use xlink:href="#m155eb6fa3a" x="546.017045" y="384.48" style="stroke: #000000; stroke-width: 0.8"/>
      </g>
     </g>
     <g id="text_7">
      <!-- 300 -->
      <g transform="translate(538.382045 397.55875) scale(0.08 -0.08)">
       <defs>
        <path id="DejaVuSans-33" d="M 2597 2516 
Q 3050 2419 3304 2112 
Q 3559 1806 3559 1356 
Q 3559 666 3084 287 
Q 2609 -91 1734 -91 
Q 1441 -91 1130 -33 
Q 819 25 488 141 
L 488 750 
Q 750 597 1062 519 
Q 1375 441 1716 441 
Q 2309 441 2620 675 
Q 2931 909 2931 1356 
Q 2931 1769 2642 2001 
Q 2353 2234 1838 2234 
L 1294 2234 
L 1294 2753 
L 1863 2753 
Q 2328 2753 2575 2939 
Q 2822 3125 2822 3475 
Q 2822 3834 2567 4026 
Q 2313 4219 1838 4219 
Q 1578 4219 1281 4162 
Q 984 4106 628 3988 
L 628 4550 
Q 988 4650 1302 4700 
Q 1616 4750 1894 4750 
Q 2613 4750 3031 4423 
Q 3450 4097 3450 3541 
Q 3450 3153 3228 2886 
Q 3006 2619 2597 2516 
z
" transform="scale(0.015625)"/>
       </defs>
       <use xlink:href="#DejaVuSans-33"/>
       <use xlink:href="#DejaVuSans-30" x="63.623047"/>
       <use xlink:href="#DejaVuSans-30" x="127.246094"/>
      </g>
     </g>
    </g>
    <g id="xtick_8">
     <g id="line2d_11">
      <g>
       <use xlink:href="#m155eb6fa3a" x="612.068182" y="384.48" style="stroke: #000000; stroke-width: 0.8"/>
      </g>
     </g>
     <g id="text_8">
      <!-- 325 -->
      <g transform="translate(604.433182 397.55875) scale(0.08 -0.08)">
       <use xlink:href="#DejaVuSans-33"/>
       <use xlink:href="#DejaVuSans-32" x="63.623047"/>
       <use xlink:href="#DejaVuSans-35" x="127.246094"/>
      </g>
     </g>
    </g>
    <g id="text_9">
     <!-- Minutes -->
     <g transform="translate(349.317969 410.820938) scale(0.1 -0.1)">
      <defs>
       <path id="DejaVuSans-4d" d="M 628 4666 
L 1569 4666 
L 2759 1491 
L 3956 4666 
L 4897 4666 
L 4897 0 
L 4281 0 
L 4281 4097 
L 3078 897 
L 2444 897 
L 1241 4097 
L 1241 0 
L 628 0 
L 628 4666 
z
" transform="scale(0.015625)"/>
       <path id="DejaVuSans-69" d="M 603 3500 
L 1178 3500 
L 1178 0 
L 603 0 
L 603 3500 
z
M 603 4863 
L 1178 4863 
L 1178 4134 
L 603 4134 
L 603 4863 
z
" transform="scale(0.015625)"/>
       <path id="DejaVuSans-6e" d="M 3513 2113 
L 3513 0 
L 2938 0 
L 2938 2094 
Q 2938 2591 2744 2837 
Q 2550 3084 2163 3084 
Q 1697 3084 1428 2787 
Q 1159 2491 1159 1978 
L 1159 0 
L 581 0 
L 581 3500 
L 1159 3500 
L 1159 2956 
Q 1366 3272 1645 3428 
Q 1925 3584 2291 3584 
Q 2894 3584 3203 3211 
Q 3513 2838 3513 2113 
z
" transform="scale(0.015625)"/>
       <path id="DejaVuSans-75" d="M 544 1381 
L 544 3500 
L 1119 3500 
L 1119 1403 
Q 1119 906 1312 657 
Q 1506 409 1894 409 
Q 2359 409 2629 706 
Q 2900 1003 2900 1516 
L 2900 3500 
L 3475 3500 
L 3475 0 
L 2900 0 
L 2900 538 
Q 2691 219 2414 64 
Q 2138 -91 1772 -91 
Q 1169 -91 856 284 
Q 544 659 544 1381 
z
M 1991 3584 
L 1991 3584 
z
" transform="scale(0.015625)"/>
       <path id="DejaVuSans-74" d="M 1172 4494 
L 1172 3500 
L 2356 3500 
L 2356 3053 
L 1172 3053 
L 1172 1153 
Q 1172 725 1289 603 
Q 1406 481 1766 481 
L 2356 481 
L 2356 0 
L 1766 0 
Q 1100 0 847 248 
Q 594 497 594 1153 
L 594 3053 
L 172 3053 
L 172 3500 
L 594 3500 
L 594 4494 
L 1172 4494 
z
" transform="scale(0.015625)"/>
       <path id="DejaVuSans-65" d="M 3597 1894 
L 3597 1613 
L 953 1613 
Q 991 1019 1311 708 
Q 1631 397 2203 397 
Q 2534 397 2845 478 
Q 3156 559 3463 722 
L 3463 178 
Q 3153 47 2828 -22 
Q 2503 -91 2169 -91 
Q 1331 -91 842 396 
Q 353 884 353 1716 
Q 353 2575 817 3079 
Q 1281 3584 2069 3584 
Q 2775 3584 3186 3129 
Q 3597 2675 3597 1894 
z
M 3022 2063 
Q 3016 2534 2758 2815 
Q 2500 3097 2075 3097 
Q 1594 3097 1305 2825 
Q 1016 2553 972 2059 
L 3022 2063 
z
" transform="scale(0.015625)"/>
       <path id="DejaVuSans-73" d="M 2834 3397 
L 2834 2853 
Q 2591 2978 2328 3040 
Q 2066 3103 1784 3103 
Q 1356 3103 1142 2972 
Q 928 2841 928 2578 
Q 928 2378 1081 2264 
Q 1234 2150 1697 2047 
L 1894 2003 
Q 2506 1872 2764 1633 
Q 3022 1394 3022 966 
Q 3022 478 2636 193 
Q 2250 -91 1575 -91 
Q 1294 -91 989 -36 
Q 684 19 347 128 
L 347 722 
Q 666 556 975 473 
Q 1284 391 1588 391 
Q 1994 391 2212 530 
Q 2431 669 2431 922 
Q 2431 1156 2273 1281 
Q 2116 1406 1581 1522 
L 1381 1569 
Q 847 1681 609 1914 
Q 372 2147 372 2553 
Q 372 3047 722 3315 
Q 1072 3584 1716 3584 
Q 2034 3584 2315 3537 
Q 2597 3491 2834 3397 
z
" transform="scale(0.015625)"/>
      </defs>
      <use xlink:href="#DejaVuSans-4d"/>
      <use xlink:href="#DejaVuSans-69" x="86.279297"/>
      <use xlink:href="#DejaVuSans-6e" x="114.0625"/>
      <use xlink:href="#DejaVuSans-75" x="177.441406"/>
      <use xlink:href="#DejaVuSans-74" x="240.820312"/>
      <use xlink:href="#DejaVuSans-65" x="280.029297"/>
      <use xlink:href="#DejaVuSans-73" x="341.552734"/>
     </g>
    </g>
   </g>
   <g id="matplotlib.axis_2">
    <g id="ytick_1">
     <g id="line2d_12">
      <defs>
       <path id="m517f461250" d="M 0 0 
L -3.5 0 
" style="stroke: #000000; stroke-width: 0.8"/>
      </defs>
      <g>
       <use xlink:href="#m517f461250" x="90" y="384.48" style="stroke: #000000; stroke-width: 0.8"/>
      </g>
     </g>
     <g id="text_10">
      <!-- 0 -->
      <g transform="translate(77.91 387.519375) scale(0.08 -0.08)">
       <use xlink:href="#DejaVuSans-30"/>
      </g>
     </g>
    </g>
    <g id="ytick_2">
     <g id="line2d_13">
      <g>
       <use xlink:href="#m517f461250" x="90" y="314.853626" style="stroke: #000000; stroke-width: 0.8"/>
      </g>
     </g>
     <g id="text_11">
      <!-- 20 -->
      <g transform="translate(72.82 317.893001) scale(0.08 -0.08)">
       <use xlink:href="#DejaVuSans-32"/>
       <use xlink:href="#DejaVuSans-30" x="63.623047"/>
      </g>
     </g>
    </g>
    <g id="ytick_3">
     <g id="line2d_14">
      <g>
       <use xlink:href="#m517f461250" x="90" y="245.227253" style="stroke: #000000; stroke-width: 0.8"/>
      </g>
     </g>
     <g id="text_12">
      <!-- 40 -->
      <g transform="translate(72.82 248.266628) scale(0.08 -0.08)">
       <defs>
        <path id="DejaVuSans-34" d="M 2419 4116 
L 825 1625 
L 2419 1625 
L 2419 4116 
z
M 2253 4666 
L 3047 4666 
L 3047 1625 
L 3713 1625 
L 3713 1100 
L 3047 1100 
L 3047 0 
L 2419 0 
L 2419 1100 
L 313 1100 
L 313 1709 
L 2253 4666 
z
" transform="scale(0.015625)"/>
       </defs>
       <use xlink:href="#DejaVuSans-34"/>
       <use xlink:href="#DejaVuSans-30" x="63.623047"/>
      </g>
     </g>
    </g>
    <g id="ytick_4">
     <g id="line2d_15">
      <g>
       <use xlink:href="#m517f461250" x="90" y="175.600879" style="stroke: #000000; stroke-width: 0.8"/>
      </g>
     </g>
     <g id="text_13">
      <!-- 60 -->
      <g transform="translate(72.82 178.640254) scale(0.08 -0.08)">
       <defs>
        <path id="DejaVuSans-36" d="M 2113 2584 
Q 1688 2584 1439 2293 
Q 1191 2003 1191 1497 
Q 1191 994 1439 701 
Q 1688 409 2113 409 
Q 2538 409 2786 701 
Q 3034 994 3034 1497 
Q 3034 2003 2786 2293 
Q 2538 2584 2113 2584 
z
M 3366 4563 
L 3366 3988 
Q 3128 4100 2886 4159 
Q 2644 4219 2406 4219 
Q 1781 4219 1451 3797 
Q 1122 3375 1075 2522 
Q 1259 2794 1537 2939 
Q 1816 3084 2150 3084 
Q 2853 3084 3261 2657 
Q 3669 2231 3669 1497 
Q 3669 778 3244 343 
Q 2819 -91 2113 -91 
Q 1303 -91 875 529 
Q 447 1150 447 2328 
Q 447 3434 972 4092 
Q 1497 4750 2381 4750 
Q 2619 4750 2861 4703 
Q 3103 4656 3366 4563 
z
" transform="scale(0.015625)"/>
       </defs>
       <use xlink:href="#DejaVuSans-36"/>
       <use xlink:href="#DejaVuSans-30" x="63.623047"/>
      </g>
     </g>
    </g>
    <g id="ytick_5">
     <g id="line2d_16">
      <g>
       <use xlink:href="#m517f461250" x="90" y="105.974505" style="stroke: #000000; stroke-width: 0.8"/>
      </g>
     </g>
     <g id="text_14">
      <!-- 80 -->
      <g transform="translate(72.82 109.01388) scale(0.08 -0.08)">
       <defs>
        <path id="DejaVuSans-38" d="M 2034 2216 
Q 1584 2216 1326 1975 
Q 1069 1734 1069 1313 
Q 1069 891 1326 650 
Q 1584 409 2034 409 
Q 2484 409 2743 651 
Q 3003 894 3003 1313 
Q 3003 1734 2745 1975 
Q 2488 2216 2034 2216 
z
M 1403 2484 
Q 997 2584 770 2862 
Q 544 3141 544 3541 
Q 544 4100 942 4425 
Q 1341 4750 2034 4750 
Q 2731 4750 3128 4425 
Q 3525 4100 3525 3541 
Q 3525 3141 3298 2862 
Q 3072 2584 2669 2484 
Q 3125 2378 3379 2068 
Q 3634 1759 3634 1313 
Q 3634 634 3220 271 
Q 2806 -91 2034 -91 
Q 1263 -91 848 271 
Q 434 634 434 1313 
Q 434 1759 690 2068 
Q 947 2378 1403 2484 
z
M 1172 3481 
Q 1172 3119 1398 2916 
Q 1625 2713 2034 2713 
Q 2441 2713 2670 2916 
Q 2900 3119 2900 3481 
Q 2900 3844 2670 4047 
Q 2441 4250 2034 4250 
Q 1625 4250 1398 4047 
Q 1172 3844 1172 3481 
z
" transform="scale(0.015625)"/>
       </defs>
       <use xlink:href="#DejaVuSans-38"/>
       <use xlink:href="#DejaVuSans-30" x="63.623047"/>
      </g>
     </g>
    </g>
    <g id="text_15">
     <!-- Runners -->
     <g transform="translate(66.740312 238.652187) rotate(-90) scale(0.1 -0.1)">
      <defs>
       <path id="DejaVuSans-52" d="M 2841 2188 
Q 3044 2119 3236 1894 
Q 3428 1669 3622 1275 
L 4263 0 
L 3584 0 
L 2988 1197 
Q 2756 1666 2539 1819 
Q 2322 1972 1947 1972 
L 1259 1972 
L 1259 0 
L 628 0 
L 628 4666 
L 2053 4666 
Q 2853 4666 3247 4331 
Q 3641 3997 3641 3322 
Q 3641 2881 3436 2590 
Q 3231 2300 2841 2188 
z
M 1259 4147 
L 1259 2491 
L 2053 2491 
Q 2509 2491 2742 2702 
Q 2975 2913 2975 3322 
Q 2975 3731 2742 3939 
Q 2509 4147 2053 4147 
L 1259 4147 
z
" transform="scale(0.015625)"/>
       <path id="DejaVuSans-72" d="M 2631 2963 
Q 2534 3019 2420 3045 
Q 2306 3072 2169 3072 
Q 1681 3072 1420 2755 
Q 1159 2438 1159 1844 
L 1159 0 
L 581 0 
L 581 3500 
L 1159 3500 
L 1159 2956 
Q 1341 3275 1631 3429 
Q 1922 3584 2338 3584 
Q 2397 3584 2469 3576 
Q 2541 3569 2628 3553 
L 2631 2963 
z
" transform="scale(0.015625)"/>
      </defs>
      <use xlink:href="#DejaVuSans-52"/>
      <use xlink:href="#DejaVuSans-75" x="64.982422"/>
      <use xlink:href="#DejaVuSans-6e" x="128.361328"/>
      <use xlink:href="#DejaVuSans-6e" x="191.740234"/>
      <use xlink:href="#DejaVuSans-65" x="255.119141"/>
      <use xlink:href="#DejaVuSans-72" x="316.642578"/>
      <use xlink:href="#DejaVuSans-73" x="357.755859"/>
     </g>
    </g>
   </g>
   <g id="patch_3">
    <path d="M 115.363636 384.48 
L 118.005682 384.48 
L 118.005682 380.998681 
L 115.363636 380.998681 
z
" clip-path="url(#pf7337c4691)" style="fill: #0000ff; fill-opacity: 0.5; stroke: #000000; stroke-width: 0.264205; stroke-linejoin: miter"/>
   </g>
   <g id="patch_4">
    <path d="M 118.005682 384.48 
L 120.647727 384.48 
L 120.647727 380.998681 
L 118.005682 380.998681 
z
" clip-path="url(#pf7337c4691)" style="fill: #0000ff; fill-opacity: 0.5; stroke: #000000; stroke-width: 0.264205; stroke-linejoin: miter"/>
   </g>
   <g id="patch_5">
    <path d="M 120.647727 384.48 
L 123.289773 384.48 
L 123.289773 380.998681 
L 120.647727 380.998681 
z
" clip-path="url(#pf7337c4691)" style="fill: #0000ff; fill-opacity: 0.5; stroke: #000000; stroke-width: 0.264205; stroke-linejoin: miter"/>
   </g>
   <g id="patch_6">
    <path d="M 123.289773 384.48 
L 125.931818 384.48 
L 125.931818 384.48 
L 123.289773 384.48 
z
" clip-path="url(#pf7337c4691)" style="fill: #0000ff; fill-opacity: 0.5; stroke: #000000; stroke-width: 0.264205; stroke-linejoin: miter"/>
   </g>
   <g id="patch_7">
    <path d="M 125.931818 384.48 
L 128.573864 384.48 
L 128.573864 380.998681 
L 125.931818 380.998681 
z
" clip-path="url(#pf7337c4691)" style="fill: #0000ff; fill-opacity: 0.5; stroke: #000000; stroke-width: 0.264205; stroke-linejoin: miter"/>
   </g>
   <g id="patch_8">
    <path d="M 128.573864 384.48 
L 131.215909 384.48 
L 131.215909 374.036044 
L 128.573864 374.036044 
z
" clip-path="url(#pf7337c4691)" style="fill: #0000ff; fill-opacity: 0.5; stroke: #000000; stroke-width: 0.264205; stroke-linejoin: miter"/>
   </g>
   <g id="patch_9">
    <path d="M 131.215909 384.48 
L 133.857955 384.48 
L 133.857955 380.998681 
L 131.215909 380.998681 
z
" clip-path="url(#pf7337c4691)" style="fill: #0000ff; fill-opacity: 0.5; stroke: #000000; stroke-width: 0.264205; stroke-linejoin: miter"/>
   </g>
   <g id="patch_10">
    <path d="M 133.857955 384.48 
L 136.5 384.48 
L 136.5 370.554725 
L 133.857955 370.554725 
z
" clip-path="url(#pf7337c4691)" style="fill: #0000ff; fill-opacity: 0.5; stroke: #000000; stroke-width: 0.264205; stroke-linejoin: miter"/>
   </g>
   <g id="patch_11">
    <path d="M 136.5 384.48 
L 139.142045 384.48 
L 139.142045 377.517363 
L 136.5 377.517363 
z
" clip-path="url(#pf7337c4691)" style="fill: #0000ff; fill-opacity: 0.5; stroke: #000000; stroke-width: 0.264205; stroke-linejoin: miter"/>
   </g>
   <g id="patch_12">
    <path d="M 139.142045 384.48 
L 141.784091 384.48 
L 141.784091 374.036044 
L 139.142045 374.036044 
z
" clip-path="url(#pf7337c4691)" style="fill: #0000ff; fill-opacity: 0.5; stroke: #000000; stroke-width: 0.264205; stroke-linejoin: miter"/>
   </g>
   <g id="patch_13">
    <path d="M 141.784091 384.48 
L 144.426136 384.48 
L 144.426136 380.998681 
L 141.784091 380.998681 
z
" clip-path="url(#pf7337c4691)" style="fill: #0000ff; fill-opacity: 0.5; stroke: #000000; stroke-width: 0.264205; stroke-linejoin: miter"/>
   </g>
   <g id="patch_14">
    <path d="M 144.426136 384.48 
L 147.068182 384.48 
L 147.068182 377.517363 
L 144.426136 377.517363 
z
" clip-path="url(#pf7337c4691)" style="fill: #0000ff; fill-opacity: 0.5; stroke: #000000; stroke-width: 0.264205; stroke-linejoin: miter"/>
   </g>
   <g id="patch_15">
    <path d="M 147.068182 384.48 
L 149.710227 384.48 
L 149.710227 374.036044 
L 147.068182 374.036044 
z
" clip-path="url(#pf7337c4691)" style="fill: #0000ff; fill-opacity: 0.5; stroke: #000000; stroke-width: 0.264205; stroke-linejoin: miter"/>
   </g>
   <g id="patch_16">
    <path d="M 149.710227 384.48 
L 152.352273 384.48 
L 152.352273 380.998681 
L 149.710227 380.998681 
z
" clip-path="url(#pf7337c4691)" style="fill: #0000ff; fill-opacity: 0.5; stroke: #000000; stroke-width: 0.264205; stroke-linejoin: miter"/>
   </g>
   <g id="patch_17">
    <path d="M 152.352273 384.48 
L 154.994318 384.48 
L 154.994318 374.036044 
L 152.352273 374.036044 
z
" clip-path="url(#pf7337c4691)" style="fill: #0000ff; fill-opacity: 0.5; stroke: #000000; stroke-width: 0.264205; stroke-linejoin: miter"/>
   </g>
   <g id="patch_18">
    <path d="M 154.994318 384.48 
L 157.636364 384.48 
L 157.636364 380.998681 
L 154.994318 380.998681 
z
" clip-path="url(#pf7337c4691)" style="fill: #0000ff; fill-opacity: 0.5; stroke: #000000; stroke-width: 0.264205; stroke-linejoin: miter"/>
   </g>
   <g id="patch_19">
    <path d="M 157.636364 384.48 
L 160.278409 384.48 
L 160.278409 363.592088 
L 157.636364 363.592088 
z
" clip-path="url(#pf7337c4691)" style="fill: #0000ff; fill-opacity: 0.5; stroke: #000000; stroke-width: 0.264205; stroke-linejoin: miter"/>
   </g>
   <g id="patch_20">
    <path d="M 160.278409 384.48 
L 162.920455 384.48 
L 162.920455 377.517363 
L 160.278409 377.517363 
z
" clip-path="url(#pf7337c4691)" style="fill: #0000ff; fill-opacity: 0.5; stroke: #000000; stroke-width: 0.264205; stroke-linejoin: miter"/>
   </g>
   <g id="patch_21">
    <path d="M 162.920455 384.48 
L 165.5625 384.48 
L 165.5625 377.517363 
L 162.920455 377.517363 
z
" clip-path="url(#pf7337c4691)" style="fill: #0000ff; fill-opacity: 0.5; stroke: #000000; stroke-width: 0.264205; stroke-linejoin: miter"/>
   </g>
   <g id="patch_22">
    <path d="M 165.5625 384.48 
L 168.204545 384.48 
L 168.204545 377.517363 
L 165.5625 377.517363 
z
" clip-path="url(#pf7337c4691)" style="fill: #0000ff; fill-opacity: 0.5; stroke: #000000; stroke-width: 0.264205; stroke-linejoin: miter"/>
   </g>
   <g id="patch_23">
    <path d="M 168.204545 384.48 
L 170.846591 384.48 
L 170.846591 370.554725 
L 168.204545 370.554725 
z
" clip-path="url(#pf7337c4691)" style="fill: #0000ff; fill-opacity: 0.5; stroke: #000000; stroke-width: 0.264205; stroke-linejoin: miter"/>
   </g>
   <g id="patch_24">
    <path d="M 170.846591 384.48 
L 173.488636 384.48 
L 173.488636 367.073407 
L 170.846591 367.073407 
z
" clip-path="url(#pf7337c4691)" style="fill: #0000ff; fill-opacity: 0.5; stroke: #000000; stroke-width: 0.264205; stroke-linejoin: miter"/>
   </g>
   <g id="patch_25">
    <path d="M 173.488636 384.48 
L 176.130682 384.48 
L 176.130682 370.554725 
L 173.488636 370.554725 
z
" clip-path="url(#pf7337c4691)" style="fill: #0000ff; fill-opacity: 0.5; stroke: #000000; stroke-width: 0.264205; stroke-linejoin: miter"/>
   </g>
   <g id="patch_26">
    <path d="M 176.130682 384.48 
L 178.772727 384.48 
L 178.772727 367.073407 
L 176.130682 367.073407 
z
" clip-path="url(#pf7337c4691)" style="fill: #0000ff; fill-opacity: 0.5; stroke: #000000; stroke-width: 0.264205; stroke-linejoin: miter"/>
   </g>
   <g id="patch_27">
    <path d="M 178.772727 384.48 
L 181.414773 384.48 
L 181.414773 370.554725 
L 178.772727 370.554725 
z
" clip-path="url(#pf7337c4691)" style="fill: #0000ff; fill-opacity: 0.5; stroke: #000000; stroke-width: 0.264205; stroke-linejoin: miter"/>
   </g>
   <g id="patch_28">
    <path d="M 181.414773 384.48 
L 184.056818 384.48 
L 184.056818 374.036044 
L 181.414773 374.036044 
z
" clip-path="url(#pf7337c4691)" style="fill: #0000ff; fill-opacity: 0.5; stroke: #000000; stroke-width: 0.264205; stroke-linejoin: miter"/>
   </g>
   <g id="patch_29">
    <path d="M 184.056818 384.48 
L 186.698864 384.48 
L 186.698864 367.073407 
L 184.056818 367.073407 
z
" clip-path="url(#pf7337c4691)" style="fill: #0000ff; fill-opacity: 0.5; stroke: #000000; stroke-width: 0.264205; stroke-linejoin: miter"/>
   </g>
   <g id="patch_30">
    <path d="M 186.698864 384.48 
L 189.340909 384.48 
L 189.340909 360.110769 
L 186.698864 360.110769 
z
" clip-path="url(#pf7337c4691)" style="fill: #0000ff; fill-opacity: 0.5; stroke: #000000; stroke-width: 0.264205; stroke-linejoin: miter"/>
   </g>
   <g id="patch_31">
    <path d="M 189.340909 384.48 
L 191.982955 384.48 
L 191.982955 363.592088 
L 189.340909 363.592088 
z
" clip-path="url(#pf7337c4691)" style="fill: #0000ff; fill-opacity: 0.5; stroke: #000000; stroke-width: 0.264205; stroke-linejoin: miter"/>
   </g>
   <g id="patch_32">
    <path d="M 191.982955 384.48 
L 194.625 384.48 
L 194.625 360.110769 
L 191.982955 360.110769 
z
" clip-path="url(#pf7337c4691)" style="fill: #0000ff; fill-opacity: 0.5; stroke: #000000; stroke-width: 0.264205; stroke-linejoin: miter"/>
   </g>
   <g id="patch_33">
    <path d="M 194.625 384.48 
L 197.267045 384.48 
L 197.267045 353.148132 
L 194.625 353.148132 
z
" clip-path="url(#pf7337c4691)" style="fill: #0000ff; fill-opacity: 0.5; stroke: #000000; stroke-width: 0.264205; stroke-linejoin: miter"/>
   </g>
   <g id="patch_34">
    <path d="M 197.267045 384.48 
L 199.909091 384.48 
L 199.909091 367.073407 
L 197.267045 367.073407 
z
" clip-path="url(#pf7337c4691)" style="fill: #0000ff; fill-opacity: 0.5; stroke: #000000; stroke-width: 0.264205; stroke-linejoin: miter"/>
   </g>
   <g id="patch_35">
    <path d="M 199.909091 384.48 
L 202.551136 384.48 
L 202.551136 370.554725 
L 199.909091 370.554725 
z
" clip-path="url(#pf7337c4691)" style="fill: #0000ff; fill-opacity: 0.5; stroke: #000000; stroke-width: 0.264205; stroke-linejoin: miter"/>
   </g>
   <g id="patch_36">
    <path d="M 202.551136 384.48 
L 205.193182 384.48 
L 205.193182 346.185495 
L 202.551136 346.185495 
z
" clip-path="url(#pf7337c4691)" style="fill: #0000ff; fill-opacity: 0.5; stroke: #000000; stroke-width: 0.264205; stroke-linejoin: miter"/>
   </g>
   <g id="patch_37">
    <path d="M 205.193182 384.48 
L 207.835227 384.48 
L 207.835227 363.592088 
L 205.193182 363.592088 
z
" clip-path="url(#pf7337c4691)" style="fill: #0000ff; fill-opacity: 0.5; stroke: #000000; stroke-width: 0.264205; stroke-linejoin: miter"/>
   </g>
   <g id="patch_38">
    <path d="M 207.835227 384.48 
L 210.477273 384.48 
L 210.477273 367.073407 
L 207.835227 367.073407 
z
" clip-path="url(#pf7337c4691)" style="fill: #0000ff; fill-opacity: 0.5; stroke: #000000; stroke-width: 0.264205; stroke-linejoin: miter"/>
   </g>
   <g id="patch_39">
    <path d="M 210.477273 384.48 
L 213.119318 384.48 
L 213.119318 349.666813 
L 210.477273 349.666813 
z
" clip-path="url(#pf7337c4691)" style="fill: #0000ff; fill-opacity: 0.5; stroke: #000000; stroke-width: 0.264205; stroke-linejoin: miter"/>
   </g>
   <g id="patch_40">
    <path d="M 213.119318 384.48 
L 215.761364 384.48 
L 215.761364 335.741538 
L 213.119318 335.741538 
z
" clip-path="url(#pf7337c4691)" style="fill: #0000ff; fill-opacity: 0.5; stroke: #000000; stroke-width: 0.264205; stroke-linejoin: miter"/>
   </g>
   <g id="patch_41">
    <path d="M 215.761364 384.48 
L 218.403409 384.48 
L 218.403409 349.666813 
L 215.761364 349.666813 
z
" clip-path="url(#pf7337c4691)" style="fill: #0000ff; fill-opacity: 0.5; stroke: #000000; stroke-width: 0.264205; stroke-linejoin: miter"/>
   </g>
   <g id="patch_42">
    <path d="M 218.403409 384.48 
L 221.045455 384.48 
L 221.045455 311.372308 
L 218.403409 311.372308 
z
" clip-path="url(#pf7337c4691)" style="fill: #0000ff; fill-opacity: 0.5; stroke: #000000; stroke-width: 0.264205; stroke-linejoin: miter"/>
   </g>
   <g id="patch_43">
    <path d="M 221.045455 384.48 
L 223.6875 384.48 
L 223.6875 314.853626 
L 221.045455 314.853626 
z
" clip-path="url(#pf7337c4691)" style="fill: #0000ff; fill-opacity: 0.5; stroke: #000000; stroke-width: 0.264205; stroke-linejoin: miter"/>
   </g>
   <g id="patch_44">
    <path d="M 223.6875 384.48 
L 226.329545 384.48 
L 226.329545 314.853626 
L 223.6875 314.853626 
z
" clip-path="url(#pf7337c4691)" style="fill: #0000ff; fill-opacity: 0.5; stroke: #000000; stroke-width: 0.264205; stroke-linejoin: miter"/>
   </g>
   <g id="patch_45">
    <path d="M 226.329545 384.48 
L 228.971591 384.48 
L 228.971591 297.447033 
L 226.329545 297.447033 
z
" clip-path="url(#pf7337c4691)" style="fill: #0000ff; fill-opacity: 0.5; stroke: #000000; stroke-width: 0.264205; stroke-linejoin: miter"/>
   </g>
   <g id="patch_46">
    <path d="M 228.971591 384.48 
L 231.613636 384.48 
L 231.613636 304.40967 
L 228.971591 304.40967 
z
" clip-path="url(#pf7337c4691)" style="fill: #0000ff; fill-opacity: 0.5; stroke: #000000; stroke-width: 0.264205; stroke-linejoin: miter"/>
   </g>
   <g id="patch_47">
    <path d="M 231.613636 384.48 
L 234.255682 384.48 
L 234.255682 335.741538 
L 231.613636 335.741538 
z
" clip-path="url(#pf7337c4691)" style="fill: #0000ff; fill-opacity: 0.5; stroke: #000000; stroke-width: 0.264205; stroke-linejoin: miter"/>
   </g>
   <g id="patch_48">
    <path d="M 234.255682 384.48 
L 236.897727 384.48 
L 236.897727 325.297582 
L 234.255682 325.297582 
z
" clip-path="url(#pf7337c4691)" style="fill: #0000ff; fill-opacity: 0.5; stroke: #000000; stroke-width: 0.264205; stroke-linejoin: miter"/>
   </g>
   <g id="patch_49">
    <path d="M 236.897727 384.48 
L 239.539773 384.48 
L 239.539773 328.778901 
L 236.897727 328.778901 
z
" clip-path="url(#pf7337c4691)" style="fill: #0000ff; fill-opacity: 0.5; stroke: #000000; stroke-width: 0.264205; stroke-linejoin: miter"/>
   </g>
   <g id="patch_50">
    <path d="M 239.539773 384.48 
L 242.181818 384.48 
L 242.181818 314.853626 
L 239.539773 314.853626 
z
" clip-path="url(#pf7337c4691)" style="fill: #0000ff; fill-opacity: 0.5; stroke: #000000; stroke-width: 0.264205; stroke-linejoin: miter"/>
   </g>
   <g id="patch_51">
    <path d="M 242.181818 384.48 
L 244.823864 384.48 
L 244.823864 293.965714 
L 242.181818 293.965714 
z
" clip-path="url(#pf7337c4691)" style="fill: #0000ff; fill-opacity: 0.5; stroke: #000000; stroke-width: 0.264205; stroke-linejoin: miter"/>
   </g>
   <g id="patch_52">
    <path d="M 244.823864 384.48 
L 247.465909 384.48 
L 247.465909 304.40967 
L 244.823864 304.40967 
z
" clip-path="url(#pf7337c4691)" style="fill: #0000ff; fill-opacity: 0.5; stroke: #000000; stroke-width: 0.264205; stroke-linejoin: miter"/>
   </g>
   <g id="patch_53">
    <path d="M 247.465909 384.48 
L 250.107955 384.48 
L 250.107955 297.447033 
L 247.465909 297.447033 
z
" clip-path="url(#pf7337c4691)" style="fill: #0000ff; fill-opacity: 0.5; stroke: #000000; stroke-width: 0.264205; stroke-linejoin: miter"/>
   </g>
   <g id="patch_54">
    <path d="M 250.107955 384.48 
L 252.75 384.48 
L 252.75 311.372308 
L 250.107955 311.372308 
z
" clip-path="url(#pf7337c4691)" style="fill: #0000ff; fill-opacity: 0.5; stroke: #000000; stroke-width: 0.264205; stroke-linejoin: miter"/>
   </g>
   <g id="patch_55">
    <path d="M 252.75 384.48 
L 255.392045 384.48 
L 255.392045 238.264615 
L 252.75 238.264615 
z
" clip-path="url(#pf7337c4691)" style="fill: #0000ff; fill-opacity: 0.5; stroke: #000000; stroke-width: 0.264205; stroke-linejoin: miter"/>
   </g>
   <g id="patch_56">
    <path d="M 255.392045 384.48 
L 258.034091 384.48 
L 258.034091 259.152527 
L 255.392045 259.152527 
z
" clip-path="url(#pf7337c4691)" style="fill: #0000ff; fill-opacity: 0.5; stroke: #000000; stroke-width: 0.264205; stroke-linejoin: miter"/>
   </g>
   <g id="patch_57">
    <path d="M 258.034091 384.48 
L 260.676136 384.48 
L 260.676136 287.003077 
L 258.034091 287.003077 
z
" clip-path="url(#pf7337c4691)" style="fill: #0000ff; fill-opacity: 0.5; stroke: #000000; stroke-width: 0.264205; stroke-linejoin: miter"/>
   </g>
   <g id="patch_58">
    <path d="M 260.676136 384.48 
L 263.318182 384.48 
L 263.318182 293.965714 
L 260.676136 293.965714 
z
" clip-path="url(#pf7337c4691)" style="fill: #0000ff; fill-opacity: 0.5; stroke: #000000; stroke-width: 0.264205; stroke-linejoin: miter"/>
   </g>
   <g id="patch_59">
    <path d="M 263.318182 384.48 
L 265.960227 384.48 
L 265.960227 283.521758 
L 263.318182 283.521758 
z
" clip-path="url(#pf7337c4691)" style="fill: #0000ff; fill-opacity: 0.5; stroke: #000000; stroke-width: 0.264205; stroke-linejoin: miter"/>
   </g>
   <g id="patch_60">
    <path d="M 265.960227 384.48 
L 268.602273 384.48 
L 268.602273 227.820659 
L 265.960227 227.820659 
z
" clip-path="url(#pf7337c4691)" style="fill: #0000ff; fill-opacity: 0.5; stroke: #000000; stroke-width: 0.264205; stroke-linejoin: miter"/>
   </g>
   <g id="patch_61">
    <path d="M 268.602273 384.48 
L 271.244318 384.48 
L 271.244318 220.858022 
L 268.602273 220.858022 
z
" clip-path="url(#pf7337c4691)" style="fill: #0000ff; fill-opacity: 0.5; stroke: #000000; stroke-width: 0.264205; stroke-linejoin: miter"/>
   </g>
   <g id="patch_62">
    <path d="M 271.244318 384.48 
L 273.886364 384.48 
L 273.886364 269.596484 
L 271.244318 269.596484 
z
" clip-path="url(#pf7337c4691)" style="fill: #0000ff; fill-opacity: 0.5; stroke: #000000; stroke-width: 0.264205; stroke-linejoin: miter"/>
   </g>
   <g id="patch_63">
    <path d="M 273.886364 384.48 
L 276.528409 384.48 
L 276.528409 269.596484 
L 273.886364 269.596484 
z
" clip-path="url(#pf7337c4691)" style="fill: #0000ff; fill-opacity: 0.5; stroke: #000000; stroke-width: 0.264205; stroke-linejoin: miter"/>
   </g>
   <g id="patch_64">
    <path d="M 276.528409 384.48 
L 279.170455 384.48 
L 279.170455 269.596484 
L 276.528409 269.596484 
z
" clip-path="url(#pf7337c4691)" style="fill: #0000ff; fill-opacity: 0.5; stroke: #000000; stroke-width: 0.264205; stroke-linejoin: miter"/>
   </g>
   <g id="patch_65">
    <path d="M 279.170455 384.48 
L 281.8125 384.48 
L 281.8125 262.633846 
L 279.170455 262.633846 
z
" clip-path="url(#pf7337c4691)" style="fill: #0000ff; fill-opacity: 0.5; stroke: #000000; stroke-width: 0.264205; stroke-linejoin: miter"/>
   </g>
   <g id="patch_66">
    <path d="M 281.8125 384.48 
L 284.454545 384.48 
L 284.454545 179.082198 
L 281.8125 179.082198 
z
" clip-path="url(#pf7337c4691)" style="fill: #0000ff; fill-opacity: 0.5; stroke: #000000; stroke-width: 0.264205; stroke-linejoin: miter"/>
   </g>
   <g id="patch_67">
    <path d="M 284.454545 384.48 
L 287.096591 384.48 
L 287.096591 252.18989 
L 284.454545 252.18989 
z
" clip-path="url(#pf7337c4691)" style="fill: #0000ff; fill-opacity: 0.5; stroke: #000000; stroke-width: 0.264205; stroke-linejoin: miter"/>
   </g>
   <g id="patch_68">
    <path d="M 287.096591 384.48 
L 289.738636 384.48 
L 289.738636 266.115165 
L 287.096591 266.115165 
z
" clip-path="url(#pf7337c4691)" style="fill: #0000ff; fill-opacity: 0.5; stroke: #000000; stroke-width: 0.264205; stroke-linejoin: miter"/>
   </g>
   <g id="patch_69">
    <path d="M 289.738636 384.48 
L 292.380682 384.48 
L 292.380682 245.227253 
L 289.738636 245.227253 
z
" clip-path="url(#pf7337c4691)" style="fill: #0000ff; fill-opacity: 0.5; stroke: #000000; stroke-width: 0.264205; stroke-linejoin: miter"/>
   </g>
   <g id="patch_70">
    <path d="M 292.380682 384.48 
L 295.022727 384.48 
L 295.022727 262.633846 
L 292.380682 262.633846 
z
" clip-path="url(#pf7337c4691)" style="fill: #0000ff; fill-opacity: 0.5; stroke: #000000; stroke-width: 0.264205; stroke-linejoin: miter"/>
   </g>
   <g id="patch_71">
    <path d="M 295.022727 384.48 
L 297.664773 384.48 
L 297.664773 182.563516 
L 295.022727 182.563516 
z
" clip-path="url(#pf7337c4691)" style="fill: #0000ff; fill-opacity: 0.5; stroke: #000000; stroke-width: 0.264205; stroke-linejoin: miter"/>
   </g>
   <g id="patch_72">
    <path d="M 297.664773 384.48 
L 300.306818 384.48 
L 300.306818 203.451429 
L 297.664773 203.451429 
z
" clip-path="url(#pf7337c4691)" style="fill: #0000ff; fill-opacity: 0.5; stroke: #000000; stroke-width: 0.264205; stroke-linejoin: miter"/>
   </g>
   <g id="patch_73">
    <path d="M 300.306818 384.48 
L 302.948864 384.48 
L 302.948864 213.895385 
L 300.306818 213.895385 
z
" clip-path="url(#pf7337c4691)" style="fill: #0000ff; fill-opacity: 0.5; stroke: #000000; stroke-width: 0.264205; stroke-linejoin: miter"/>
   </g>
   <g id="patch_74">
    <path d="M 302.948864 384.48 
L 305.590909 384.48 
L 305.590909 206.932747 
L 302.948864 206.932747 
z
" clip-path="url(#pf7337c4691)" style="fill: #0000ff; fill-opacity: 0.5; stroke: #000000; stroke-width: 0.264205; stroke-linejoin: miter"/>
   </g>
   <g id="patch_75">
    <path d="M 305.590909 384.48 
L 308.232955 384.48 
L 308.232955 165.156923 
L 305.590909 165.156923 
z
" clip-path="url(#pf7337c4691)" style="fill: #0000ff; fill-opacity: 0.5; stroke: #000000; stroke-width: 0.264205; stroke-linejoin: miter"/>
   </g>
   <g id="patch_76">
    <path d="M 308.232955 384.48 
L 310.875 384.48 
L 310.875 168.638242 
L 308.232955 168.638242 
z
" clip-path="url(#pf7337c4691)" style="fill: #0000ff; fill-opacity: 0.5; stroke: #000000; stroke-width: 0.264205; stroke-linejoin: miter"/>
   </g>
   <g id="patch_77">
    <path d="M 310.875 384.48 
L 313.517045 384.48 
L 313.517045 224.339341 
L 310.875 224.339341 
z
" clip-path="url(#pf7337c4691)" style="fill: #0000ff; fill-opacity: 0.5; stroke: #000000; stroke-width: 0.264205; stroke-linejoin: miter"/>
   </g>
   <g id="patch_78">
    <path d="M 313.517045 384.48 
L 316.159091 384.48 
L 316.159091 168.638242 
L 313.517045 168.638242 
z
" clip-path="url(#pf7337c4691)" style="fill: #0000ff; fill-opacity: 0.5; stroke: #000000; stroke-width: 0.264205; stroke-linejoin: miter"/>
   </g>
   <g id="patch_79">
    <path d="M 316.159091 384.48 
L 318.801136 384.48 
L 318.801136 238.264615 
L 316.159091 238.264615 
z
" clip-path="url(#pf7337c4691)" style="fill: #0000ff; fill-opacity: 0.5; stroke: #000000; stroke-width: 0.264205; stroke-linejoin: miter"/>
   </g>
   <g id="patch_80">
    <path d="M 318.801136 384.48 
L 321.443182 384.48 
L 321.443182 220.858022 
L 318.801136 220.858022 
z
" clip-path="url(#pf7337c4691)" style="fill: #0000ff; fill-opacity: 0.5; stroke: #000000; stroke-width: 0.264205; stroke-linejoin: miter"/>
   </g>
   <g id="patch_81">
    <path d="M 321.443182 384.48 
L 324.085227 384.48 
L 324.085227 224.339341 
L 321.443182 224.339341 
z
" clip-path="url(#pf7337c4691)" style="fill: #0000ff; fill-opacity: 0.5; stroke: #000000; stroke-width: 0.264205; stroke-linejoin: miter"/>
   </g>
   <g id="patch_82">
    <path d="M 324.085227 384.48 
L 326.727273 384.48 
L 326.727273 165.156923 
L 324.085227 165.156923 
z
" clip-path="url(#pf7337c4691)" style="fill: #0000ff; fill-opacity: 0.5; stroke: #000000; stroke-width: 0.264205; stroke-linejoin: miter"/>
   </g>
   <g id="patch_83">
    <path d="M 326.727273 384.48 
L 329.369318 384.48 
L 329.369318 203.451429 
L 326.727273 203.451429 
z
" clip-path="url(#pf7337c4691)" style="fill: #0000ff; fill-opacity: 0.5; stroke: #000000; stroke-width: 0.264205; stroke-linejoin: miter"/>
   </g>
   <g id="patch_84">
    <path d="M 329.369318 384.48 
L 332.011364 384.48 
L 332.011364 245.227253 
L 329.369318 245.227253 
z
" clip-path="url(#pf7337c4691)" style="fill: #0000ff; fill-opacity: 0.5; stroke: #000000; stroke-width: 0.264205; stroke-linejoin: miter"/>
   </g>
   <g id="patch_85">
    <path d="M 332.011364 384.48 
L 334.653409 384.48 
L 334.653409 193.007473 
L 332.011364 193.007473 
z
" clip-path="url(#pf7337c4691)" style="fill: #0000ff; fill-opacity: 0.5; stroke: #000000; stroke-width: 0.264205; stroke-linejoin: miter"/>
   </g>
   <g id="patch_86">
    <path d="M 334.653409 384.48 
L 337.295455 384.48 
L 337.295455 186.044835 
L 334.653409 186.044835 
z
" clip-path="url(#pf7337c4691)" style="fill: #0000ff; fill-opacity: 0.5; stroke: #000000; stroke-width: 0.264205; stroke-linejoin: miter"/>
   </g>
   <g id="patch_87">
    <path d="M 337.295455 384.48 
L 339.9375 384.48 
L 339.9375 151.231648 
L 337.295455 151.231648 
z
" clip-path="url(#pf7337c4691)" style="fill: #0000ff; fill-opacity: 0.5; stroke: #000000; stroke-width: 0.264205; stroke-linejoin: miter"/>
   </g>
   <g id="patch_88">
    <path d="M 339.9375 384.48 
L 342.579545 384.48 
L 342.579545 193.007473 
L 339.9375 193.007473 
z
" clip-path="url(#pf7337c4691)" style="fill: #0000ff; fill-opacity: 0.5; stroke: #000000; stroke-width: 0.264205; stroke-linejoin: miter"/>
   </g>
   <g id="patch_89">
    <path d="M 342.579545 384.48 
L 345.221591 384.48 
L 345.221591 193.007473 
L 342.579545 193.007473 
z
" clip-path="url(#pf7337c4691)" style="fill: #0000ff; fill-opacity: 0.5; stroke: #000000; stroke-width: 0.264205; stroke-linejoin: miter"/>
   </g>
   <g id="patch_90">
    <path d="M 345.221591 384.48 
L 347.863636 384.48 
L 347.863636 175.600879 
L 345.221591 175.600879 
z
" clip-path="url(#pf7337c4691)" style="fill: #0000ff; fill-opacity: 0.5; stroke: #000000; stroke-width: 0.264205; stroke-linejoin: miter"/>
   </g>
   <g id="patch_91">
    <path d="M 347.863636 384.48 
L 350.505682 384.48 
L 350.505682 165.156923 
L 347.863636 165.156923 
z
" clip-path="url(#pf7337c4691)" style="fill: #0000ff; fill-opacity: 0.5; stroke: #000000; stroke-width: 0.264205; stroke-linejoin: miter"/>
   </g>
   <g id="patch_92">
    <path d="M 350.505682 384.48 
L 353.147727 384.48 
L 353.147727 151.231648 
L 350.505682 151.231648 
z
" clip-path="url(#pf7337c4691)" style="fill: #0000ff; fill-opacity: 0.5; stroke: #000000; stroke-width: 0.264205; stroke-linejoin: miter"/>
   </g>
   <g id="patch_93">
    <path d="M 353.147727 384.48 
L 355.789773 384.48 
L 355.789773 165.156923 
L 353.147727 165.156923 
z
" clip-path="url(#pf7337c4691)" style="fill: #0000ff; fill-opacity: 0.5; stroke: #000000; stroke-width: 0.264205; stroke-linejoin: miter"/>
   </g>
   <g id="patch_94">
    <path d="M 355.789773 384.48 
L 358.431818 384.48 
L 358.431818 151.231648 
L 355.789773 151.231648 
z
" clip-path="url(#pf7337c4691)" style="fill: #0000ff; fill-opacity: 0.5; stroke: #000000; stroke-width: 0.264205; stroke-linejoin: miter"/>
   </g>
   <g id="patch_95">
    <path d="M 358.431818 384.48 
L 361.073864 384.48 
L 361.073864 172.11956 
L 358.431818 172.11956 
z
" clip-path="url(#pf7337c4691)" style="fill: #0000ff; fill-opacity: 0.5; stroke: #000000; stroke-width: 0.264205; stroke-linejoin: miter"/>
   </g>
   <g id="patch_96">
    <path d="M 361.073864 384.48 
L 363.715909 384.48 
L 363.715909 158.194286 
L 361.073864 158.194286 
z
" clip-path="url(#pf7337c4691)" style="fill: #0000ff; fill-opacity: 0.5; stroke: #000000; stroke-width: 0.264205; stroke-linejoin: miter"/>
   </g>
   <g id="patch_97">
    <path d="M 363.715909 384.48 
L 366.357955 384.48 
L 366.357955 154.712967 
L 363.715909 154.712967 
z
" clip-path="url(#pf7337c4691)" style="fill: #0000ff; fill-opacity: 0.5; stroke: #000000; stroke-width: 0.264205; stroke-linejoin: miter"/>
   </g>
   <g id="patch_98">
    <path d="M 366.357955 384.48 
L 369 384.48 
L 369 99.011868 
L 366.357955 99.011868 
z
" clip-path="url(#pf7337c4691)" style="fill: #0000ff; fill-opacity: 0.5; stroke: #000000; stroke-width: 0.264205; stroke-linejoin: miter"/>
   </g>
   <g id="patch_99">
    <path d="M 369 384.48 
L 371.642045 384.48 
L 371.642045 182.563516 
L 369 182.563516 
z
" clip-path="url(#pf7337c4691)" style="fill: #0000ff; fill-opacity: 0.5; stroke: #000000; stroke-width: 0.264205; stroke-linejoin: miter"/>
   </g>
   <g id="patch_100">
    <path d="M 371.642045 384.48 
L 374.284091 384.48 
L 374.284091 199.97011 
L 371.642045 199.97011 
z
" clip-path="url(#pf7337c4691)" style="fill: #0000ff; fill-opacity: 0.5; stroke: #000000; stroke-width: 0.264205; stroke-linejoin: miter"/>
   </g>
   <g id="patch_101">
    <path d="M 374.284091 384.48 
L 376.926136 384.48 
L 376.926136 140.787692 
L 374.284091 140.787692 
z
" clip-path="url(#pf7337c4691)" style="fill: #0000ff; fill-opacity: 0.5; stroke: #000000; stroke-width: 0.264205; stroke-linejoin: miter"/>
   </g>
   <g id="patch_102">
    <path d="M 376.926136 384.48 
L 379.568182 384.48 
L 379.568182 133.825055 
L 376.926136 133.825055 
z
" clip-path="url(#pf7337c4691)" style="fill: #0000ff; fill-opacity: 0.5; stroke: #000000; stroke-width: 0.264205; stroke-linejoin: miter"/>
   </g>
   <g id="patch_103">
    <path d="M 379.568182 384.48 
L 382.210227 384.48 
L 382.210227 71.161319 
L 379.568182 71.161319 
z
" clip-path="url(#pf7337c4691)" style="fill: #0000ff; fill-opacity: 0.5; stroke: #000000; stroke-width: 0.264205; stroke-linejoin: miter"/>
   </g>
   <g id="patch_104">
    <path d="M 382.210227 384.48 
L 384.852273 384.48 
L 384.852273 67.68 
L 382.210227 67.68 
z
" clip-path="url(#pf7337c4691)" style="fill: #0000ff; fill-opacity: 0.5; stroke: #000000; stroke-width: 0.264205; stroke-linejoin: miter"/>
   </g>
   <g id="patch_105">
    <path d="M 384.852273 384.48 
L 387.494318 384.48 
L 387.494318 85.086593 
L 384.852273 85.086593 
z
" clip-path="url(#pf7337c4691)" style="fill: #0000ff; fill-opacity: 0.5; stroke: #000000; stroke-width: 0.264205; stroke-linejoin: miter"/>
   </g>
   <g id="patch_106">
    <path d="M 387.494318 384.48 
L 390.136364 384.48 
L 390.136364 147.75033 
L 387.494318 147.75033 
z
" clip-path="url(#pf7337c4691)" style="fill: #0000ff; fill-opacity: 0.5; stroke: #000000; stroke-width: 0.264205; stroke-linejoin: miter"/>
   </g>
   <g id="patch_107">
    <path d="M 390.136364 384.48 
L 392.778409 384.48 
L 392.778409 151.231648 
L 390.136364 151.231648 
z
" clip-path="url(#pf7337c4691)" style="fill: #0000ff; fill-opacity: 0.5; stroke: #000000; stroke-width: 0.264205; stroke-linejoin: miter"/>
   </g>
   <g id="patch_108">
    <path d="M 392.778409 384.48 
L 395.420455 384.48 
L 395.420455 144.269011 
L 392.778409 144.269011 
z
" clip-path="url(#pf7337c4691)" style="fill: #0000ff; fill-opacity: 0.5; stroke: #000000; stroke-width: 0.264205; stroke-linejoin: miter"/>
   </g>
   <g id="patch_109">
    <path d="M 395.420455 384.48 
L 398.0625 384.48 
L 398.0625 154.712967 
L 395.420455 154.712967 
z
" clip-path="url(#pf7337c4691)" style="fill: #0000ff; fill-opacity: 0.5; stroke: #000000; stroke-width: 0.264205; stroke-linejoin: miter"/>
   </g>
   <g id="patch_110">
    <path d="M 398.0625 384.48 
L 400.704545 384.48 
L 400.704545 137.306374 
L 398.0625 137.306374 
z
" clip-path="url(#pf7337c4691)" style="fill: #0000ff; fill-opacity: 0.5; stroke: #000000; stroke-width: 0.264205; stroke-linejoin: miter"/>
   </g>
   <g id="patch_111">
    <path d="M 400.704545 384.48 
L 403.346591 384.48 
L 403.346591 210.414066 
L 400.704545 210.414066 
z
" clip-path="url(#pf7337c4691)" style="fill: #0000ff; fill-opacity: 0.5; stroke: #000000; stroke-width: 0.264205; stroke-linejoin: miter"/>
   </g>
   <g id="patch_112">
    <path d="M 403.346591 384.48 
L 405.988636 384.48 
L 405.988636 213.895385 
L 403.346591 213.895385 
z
" clip-path="url(#pf7337c4691)" style="fill: #0000ff; fill-opacity: 0.5; stroke: #000000; stroke-width: 0.264205; stroke-linejoin: miter"/>
   </g>
   <g id="patch_113">
    <path d="M 405.988636 384.48 
L 408.630682 384.48 
L 408.630682 224.339341 
L 405.988636 224.339341 
z
" clip-path="url(#pf7337c4691)" style="fill: #0000ff; fill-opacity: 0.5; stroke: #000000; stroke-width: 0.264205; stroke-linejoin: miter"/>
   </g>
   <g id="patch_114">
    <path d="M 408.630682 384.48 
L 411.272727 384.48 
L 411.272727 179.082198 
L 408.630682 179.082198 
z
" clip-path="url(#pf7337c4691)" style="fill: #0000ff; fill-opacity: 0.5; stroke: #000000; stroke-width: 0.264205; stroke-linejoin: miter"/>
   </g>
   <g id="patch_115">
    <path d="M 411.272727 384.48 
L 413.914773 384.48 
L 413.914773 140.787692 
L 411.272727 140.787692 
z
" clip-path="url(#pf7337c4691)" style="fill: #0000ff; fill-opacity: 0.5; stroke: #000000; stroke-width: 0.264205; stroke-linejoin: miter"/>
   </g>
   <g id="patch_116">
    <path d="M 413.914773 384.48 
L 416.556818 384.48 
L 416.556818 206.932747 
L 413.914773 206.932747 
z
" clip-path="url(#pf7337c4691)" style="fill: #0000ff; fill-opacity: 0.5; stroke: #000000; stroke-width: 0.264205; stroke-linejoin: miter"/>
   </g>
   <g id="patch_117">
    <path d="M 416.556818 384.48 
L 419.198864 384.48 
L 419.198864 140.787692 
L 416.556818 140.787692 
z
" clip-path="url(#pf7337c4691)" style="fill: #0000ff; fill-opacity: 0.5; stroke: #000000; stroke-width: 0.264205; stroke-linejoin: miter"/>
   </g>
   <g id="patch_118">
    <path d="M 419.198864 384.48 
L 421.840909 384.48 
L 421.840909 210.414066 
L 419.198864 210.414066 
z
" clip-path="url(#pf7337c4691)" style="fill: #0000ff; fill-opacity: 0.5; stroke: #000000; stroke-width: 0.264205; stroke-linejoin: miter"/>
   </g>
   <g id="patch_119">
    <path d="M 421.840909 384.48 
L 424.482955 384.48 
L 424.482955 227.820659 
L 421.840909 227.820659 
z
" clip-path="url(#pf7337c4691)" style="fill: #0000ff; fill-opacity: 0.5; stroke: #000000; stroke-width: 0.264205; stroke-linejoin: miter"/>
   </g>
   <g id="patch_120">
    <path d="M 424.482955 384.48 
L 427.125 384.48 
L 427.125 203.451429 
L 424.482955 203.451429 
z
" clip-path="url(#pf7337c4691)" style="fill: #0000ff; fill-opacity: 0.5; stroke: #000000; stroke-width: 0.264205; stroke-linejoin: miter"/>
   </g>
   <g id="patch_121">
    <path d="M 427.125 384.48 
L 429.767045 384.48 
L 429.767045 231.301978 
L 427.125 231.301978 
z
" clip-path="url(#pf7337c4691)" style="fill: #0000ff; fill-opacity: 0.5; stroke: #000000; stroke-width: 0.264205; stroke-linejoin: miter"/>
   </g>
   <g id="patch_122">
    <path d="M 429.767045 384.48 
L 432.409091 384.48 
L 432.409091 220.858022 
L 429.767045 220.858022 
z
" clip-path="url(#pf7337c4691)" style="fill: #0000ff; fill-opacity: 0.5; stroke: #000000; stroke-width: 0.264205; stroke-linejoin: miter"/>
   </g>
   <g id="patch_123">
    <path d="M 432.409091 384.48 
L 435.051136 384.48 
L 435.051136 199.97011 
L 432.409091 199.97011 
z
" clip-path="url(#pf7337c4691)" style="fill: #0000ff; fill-opacity: 0.5; stroke: #000000; stroke-width: 0.264205; stroke-linejoin: miter"/>
   </g>
   <g id="patch_124">
    <path d="M 435.051136 384.48 
L 437.693182 384.48 
L 437.693182 189.526154 
L 435.051136 189.526154 
z
" clip-path="url(#pf7337c4691)" style="fill: #0000ff; fill-opacity: 0.5; stroke: #000000; stroke-width: 0.264205; stroke-linejoin: miter"/>
   </g>
   <g id="patch_125">
    <path d="M 437.693182 384.48 
L 440.335227 384.48 
L 440.335227 224.339341 
L 437.693182 224.339341 
z
" clip-path="url(#pf7337c4691)" style="fill: #0000ff; fill-opacity: 0.5; stroke: #000000; stroke-width: 0.264205; stroke-linejoin: miter"/>
   </g>
   <g id="patch_126">
    <path d="M 440.335227 384.48 
L 442.977273 384.48 
L 442.977273 213.895385 
L 440.335227 213.895385 
z
" clip-path="url(#pf7337c4691)" style="fill: #0000ff; fill-opacity: 0.5; stroke: #000000; stroke-width: 0.264205; stroke-linejoin: miter"/>
   </g>
   <g id="patch_127">
    <path d="M 442.977273 384.48 
L 445.619318 384.48 
L 445.619318 158.194286 
L 442.977273 158.194286 
z
" clip-path="url(#pf7337c4691)" style="fill: #0000ff; fill-opacity: 0.5; stroke: #000000; stroke-width: 0.264205; stroke-linejoin: miter"/>
   </g>
   <g id="patch_128">
    <path d="M 445.619318 384.48 
L 448.261364 384.48 
L 448.261364 206.932747 
L 445.619318 206.932747 
z
" clip-path="url(#pf7337c4691)" style="fill: #0000ff; fill-opacity: 0.5; stroke: #000000; stroke-width: 0.264205; stroke-linejoin: miter"/>
   </g>
   <g id="patch_129">
    <path d="M 448.261364 384.48 
L 450.903409 384.48 
L 450.903409 238.264615 
L 448.261364 238.264615 
z
" clip-path="url(#pf7337c4691)" style="fill: #0000ff; fill-opacity: 0.5; stroke: #000000; stroke-width: 0.264205; stroke-linejoin: miter"/>
   </g>
   <g id="patch_130">
    <path d="M 450.903409 384.48 
L 453.545455 384.48 
L 453.545455 206.932747 
L 450.903409 206.932747 
z
" clip-path="url(#pf7337c4691)" style="fill: #0000ff; fill-opacity: 0.5; stroke: #000000; stroke-width: 0.264205; stroke-linejoin: miter"/>
   </g>
   <g id="patch_131">
    <path d="M 453.545455 384.48 
L 456.1875 384.48 
L 456.1875 206.932747 
L 453.545455 206.932747 
z
" clip-path="url(#pf7337c4691)" style="fill: #0000ff; fill-opacity: 0.5; stroke: #000000; stroke-width: 0.264205; stroke-linejoin: miter"/>
   </g>
   <g id="patch_132">
    <path d="M 456.1875 384.48 
L 458.829545 384.48 
L 458.829545 224.339341 
L 456.1875 224.339341 
z
" clip-path="url(#pf7337c4691)" style="fill: #0000ff; fill-opacity: 0.5; stroke: #000000; stroke-width: 0.264205; stroke-linejoin: miter"/>
   </g>
   <g id="patch_133">
    <path d="M 458.829545 384.48 
L 461.471591 384.48 
L 461.471591 227.820659 
L 458.829545 227.820659 
z
" clip-path="url(#pf7337c4691)" style="fill: #0000ff; fill-opacity: 0.5; stroke: #000000; stroke-width: 0.264205; stroke-linejoin: miter"/>
   </g>
   <g id="patch_134">
    <path d="M 461.471591 384.48 
L 464.113636 384.48 
L 464.113636 248.708571 
L 461.471591 248.708571 
z
" clip-path="url(#pf7337c4691)" style="fill: #0000ff; fill-opacity: 0.5; stroke: #000000; stroke-width: 0.264205; stroke-linejoin: miter"/>
   </g>
   <g id="patch_135">
    <path d="M 464.113636 384.48 
L 466.755682 384.48 
L 466.755682 206.932747 
L 464.113636 206.932747 
z
" clip-path="url(#pf7337c4691)" style="fill: #0000ff; fill-opacity: 0.5; stroke: #000000; stroke-width: 0.264205; stroke-linejoin: miter"/>
   </g>
   <g id="patch_136">
    <path d="M 466.755682 384.48 
L 469.397727 384.48 
L 469.397727 234.783297 
L 466.755682 234.783297 
z
" clip-path="url(#pf7337c4691)" style="fill: #0000ff; fill-opacity: 0.5; stroke: #000000; stroke-width: 0.264205; stroke-linejoin: miter"/>
   </g>
   <g id="patch_137">
    <path d="M 469.397727 384.48 
L 472.039773 384.48 
L 472.039773 259.152527 
L 469.397727 259.152527 
z
" clip-path="url(#pf7337c4691)" style="fill: #0000ff; fill-opacity: 0.5; stroke: #000000; stroke-width: 0.264205; stroke-linejoin: miter"/>
   </g>
   <g id="patch_138">
    <path d="M 472.039773 384.48 
L 474.681818 384.48 
L 474.681818 269.596484 
L 472.039773 269.596484 
z
" clip-path="url(#pf7337c4691)" style="fill: #0000ff; fill-opacity: 0.5; stroke: #000000; stroke-width: 0.264205; stroke-linejoin: miter"/>
   </g>
   <g id="patch_139">
    <path d="M 474.681818 384.48 
L 477.323864 384.48 
L 477.323864 241.745934 
L 474.681818 241.745934 
z
" clip-path="url(#pf7337c4691)" style="fill: #0000ff; fill-opacity: 0.5; stroke: #000000; stroke-width: 0.264205; stroke-linejoin: miter"/>
   </g>
   <g id="patch_140">
    <path d="M 477.323864 384.48 
L 479.965909 384.48 
L 479.965909 227.820659 
L 477.323864 227.820659 
z
" clip-path="url(#pf7337c4691)" style="fill: #0000ff; fill-opacity: 0.5; stroke: #000000; stroke-width: 0.264205; stroke-linejoin: miter"/>
   </g>
   <g id="patch_141">
    <path d="M 479.965909 384.48 
L 482.607955 384.48 
L 482.607955 213.895385 
L 479.965909 213.895385 
z
" clip-path="url(#pf7337c4691)" style="fill: #0000ff; fill-opacity: 0.5; stroke: #000000; stroke-width: 0.264205; stroke-linejoin: miter"/>
   </g>
   <g id="patch_142">
    <path d="M 482.607955 384.48 
L 485.25 384.48 
L 485.25 255.671209 
L 482.607955 255.671209 
z
" clip-path="url(#pf7337c4691)" style="fill: #0000ff; fill-opacity: 0.5; stroke: #000000; stroke-width: 0.264205; stroke-linejoin: miter"/>
   </g>
   <g id="patch_143">
    <path d="M 485.25 384.48 
L 487.892045 384.48 
L 487.892045 266.115165 
L 485.25 266.115165 
z
" clip-path="url(#pf7337c4691)" style="fill: #0000ff; fill-opacity: 0.5; stroke: #000000; stroke-width: 0.264205; stroke-linejoin: miter"/>
   </g>
   <g id="patch_144">
    <path d="M 487.892045 384.48 
L 490.534091 384.48 
L 490.534091 217.376703 
L 487.892045 217.376703 
z
" clip-path="url(#pf7337c4691)" style="fill: #0000ff; fill-opacity: 0.5; stroke: #000000; stroke-width: 0.264205; stroke-linejoin: miter"/>
   </g>
   <g id="patch_145">
    <path d="M 490.534091 384.48 
L 493.176136 384.48 
L 493.176136 248.708571 
L 490.534091 248.708571 
z
" clip-path="url(#pf7337c4691)" style="fill: #0000ff; fill-opacity: 0.5; stroke: #000000; stroke-width: 0.264205; stroke-linejoin: miter"/>
   </g>
   <g id="patch_146">
    <path d="M 493.176136 384.48 
L 495.818182 384.48 
L 495.818182 262.633846 
L 493.176136 262.633846 
z
" clip-path="url(#pf7337c4691)" style="fill: #0000ff; fill-opacity: 0.5; stroke: #000000; stroke-width: 0.264205; stroke-linejoin: miter"/>
   </g>
   <g id="patch_147">
    <path d="M 495.818182 384.48 
L 498.460227 384.48 
L 498.460227 280.04044 
L 495.818182 280.04044 
z
" clip-path="url(#pf7337c4691)" style="fill: #0000ff; fill-opacity: 0.5; stroke: #000000; stroke-width: 0.264205; stroke-linejoin: miter"/>
   </g>
   <g id="patch_148">
    <path d="M 498.460227 384.48 
L 501.102273 384.48 
L 501.102273 252.18989 
L 498.460227 252.18989 
z
" clip-path="url(#pf7337c4691)" style="fill: #0000ff; fill-opacity: 0.5; stroke: #000000; stroke-width: 0.264205; stroke-linejoin: miter"/>
   </g>
   <g id="patch_149">
    <path d="M 501.102273 384.48 
L 503.744318 384.48 
L 503.744318 252.18989 
L 501.102273 252.18989 
z
" clip-path="url(#pf7337c4691)" style="fill: #0000ff; fill-opacity: 0.5; stroke: #000000; stroke-width: 0.264205; stroke-linejoin: miter"/>
   </g>
   <g id="patch_150">
    <path d="M 503.744318 384.48 
L 506.386364 384.48 
L 506.386364 293.965714 
L 503.744318 293.965714 
z
" clip-path="url(#pf7337c4691)" style="fill: #0000ff; fill-opacity: 0.5; stroke: #000000; stroke-width: 0.264205; stroke-linejoin: miter"/>
   </g>
   <g id="patch_151">
    <path d="M 506.386364 384.48 
L 509.028409 384.48 
L 509.028409 241.745934 
L 506.386364 241.745934 
z
" clip-path="url(#pf7337c4691)" style="fill: #0000ff; fill-opacity: 0.5; stroke: #000000; stroke-width: 0.264205; stroke-linejoin: miter"/>
   </g>
   <g id="patch_152">
    <path d="M 509.028409 384.48 
L 511.670455 384.48 
L 511.670455 262.633846 
L 509.028409 262.633846 
z
" clip-path="url(#pf7337c4691)" style="fill: #0000ff; fill-opacity: 0.5; stroke: #000000; stroke-width: 0.264205; stroke-linejoin: miter"/>
   </g>
   <g id="patch_153">
    <path d="M 511.670455 384.48 
L 514.3125 384.48 
L 514.3125 293.965714 
L 511.670455 293.965714 
z
" clip-path="url(#pf7337c4691)" style="fill: #0000ff; fill-opacity: 0.5; stroke: #000000; stroke-width: 0.264205; stroke-linejoin: miter"/>
   </g>
   <g id="patch_154">
    <path d="M 514.3125 384.48 
L 516.954545 384.48 
L 516.954545 259.152527 
L 514.3125 259.152527 
z
" clip-path="url(#pf7337c4691)" style="fill: #0000ff; fill-opacity: 0.5; stroke: #000000; stroke-width: 0.264205; stroke-linejoin: miter"/>
   </g>
   <g id="patch_155">
    <path d="M 516.954545 384.48 
L 519.596591 384.48 
L 519.596591 311.372308 
L 516.954545 311.372308 
z
" clip-path="url(#pf7337c4691)" style="fill: #0000ff; fill-opacity: 0.5; stroke: #000000; stroke-width: 0.264205; stroke-linejoin: miter"/>
   </g>
   <g id="patch_156">
    <path d="M 519.596591 384.48 
L 522.238636 384.48 
L 522.238636 318.334945 
L 519.596591 318.334945 
z
" clip-path="url(#pf7337c4691)" style="fill: #0000ff; fill-opacity: 0.5; stroke: #000000; stroke-width: 0.264205; stroke-linejoin: miter"/>
   </g>
   <g id="patch_157">
    <path d="M 522.238636 384.48 
L 524.880682 384.48 
L 524.880682 276.559121 
L 522.238636 276.559121 
z
" clip-path="url(#pf7337c4691)" style="fill: #0000ff; fill-opacity: 0.5; stroke: #000000; stroke-width: 0.264205; stroke-linejoin: miter"/>
   </g>
   <g id="patch_158">
    <path d="M 524.880682 384.48 
L 527.522727 384.48 
L 527.522727 297.447033 
L 524.880682 297.447033 
z
" clip-path="url(#pf7337c4691)" style="fill: #0000ff; fill-opacity: 0.5; stroke: #000000; stroke-width: 0.264205; stroke-linejoin: miter"/>
   </g>
   <g id="patch_159">
    <path d="M 527.522727 384.48 
L 530.164773 384.48 
L 530.164773 314.853626 
L 527.522727 314.853626 
z
" clip-path="url(#pf7337c4691)" style="fill: #0000ff; fill-opacity: 0.5; stroke: #000000; stroke-width: 0.264205; stroke-linejoin: miter"/>
   </g>
   <g id="patch_160">
    <path d="M 530.164773 384.48 
L 532.806818 384.48 
L 532.806818 307.890989 
L 530.164773 307.890989 
z
" clip-path="url(#pf7337c4691)" style="fill: #0000ff; fill-opacity: 0.5; stroke: #000000; stroke-width: 0.264205; stroke-linejoin: miter"/>
   </g>
   <g id="patch_161">
    <path d="M 532.806818 384.48 
L 535.448864 384.48 
L 535.448864 314.853626 
L 532.806818 314.853626 
z
" clip-path="url(#pf7337c4691)" style="fill: #0000ff; fill-opacity: 0.5; stroke: #000000; stroke-width: 0.264205; stroke-linejoin: miter"/>
   </g>
   <g id="patch_162">
    <path d="M 535.448864 384.48 
L 538.090909 384.48 
L 538.090909 280.04044 
L 535.448864 280.04044 
z
" clip-path="url(#pf7337c4691)" style="fill: #0000ff; fill-opacity: 0.5; stroke: #000000; stroke-width: 0.264205; stroke-linejoin: miter"/>
   </g>
   <g id="patch_163">
    <path d="M 538.090909 384.48 
L 540.732955 384.48 
L 540.732955 314.853626 
L 538.090909 314.853626 
z
" clip-path="url(#pf7337c4691)" style="fill: #0000ff; fill-opacity: 0.5; stroke: #000000; stroke-width: 0.264205; stroke-linejoin: miter"/>
   </g>
   <g id="patch_164">
    <path d="M 540.732955 384.48 
L 543.375 384.48 
L 543.375 311.372308 
L 540.732955 311.372308 
z
" clip-path="url(#pf7337c4691)" style="fill: #0000ff; fill-opacity: 0.5; stroke: #000000; stroke-width: 0.264205; stroke-linejoin: miter"/>
   </g>
   <g id="patch_165">
    <path d="M 543.375 384.48 
L 546.017045 384.48 
L 546.017045 287.003077 
L 543.375 287.003077 
z
" clip-path="url(#pf7337c4691)" style="fill: #0000ff; fill-opacity: 0.5; stroke: #000000; stroke-width: 0.264205; stroke-linejoin: miter"/>
   </g>
   <g id="patch_166">
    <path d="M 546.017045 384.48 
L 548.659091 384.48 
L 548.659091 325.297582 
L 546.017045 325.297582 
z
" clip-path="url(#pf7337c4691)" style="fill: #0000ff; fill-opacity: 0.5; stroke: #000000; stroke-width: 0.264205; stroke-linejoin: miter"/>
   </g>
   <g id="patch_167">
    <path d="M 548.659091 384.48 
L 551.301136 384.48 
L 551.301136 321.816264 
L 548.659091 321.816264 
z
" clip-path="url(#pf7337c4691)" style="fill: #0000ff; fill-opacity: 0.5; stroke: #000000; stroke-width: 0.264205; stroke-linejoin: miter"/>
   </g>
   <g id="patch_168">
    <path d="M 551.301136 384.48 
L 553.943182 384.48 
L 553.943182 311.372308 
L 551.301136 311.372308 
z
" clip-path="url(#pf7337c4691)" style="fill: #0000ff; fill-opacity: 0.5; stroke: #000000; stroke-width: 0.264205; stroke-linejoin: miter"/>
   </g>
   <g id="patch_169">
    <path d="M 553.943182 384.48 
L 556.585227 384.48 
L 556.585227 335.741538 
L 553.943182 335.741538 
z
" clip-path="url(#pf7337c4691)" style="fill: #0000ff; fill-opacity: 0.5; stroke: #000000; stroke-width: 0.264205; stroke-linejoin: miter"/>
   </g>
   <g id="patch_170">
    <path d="M 556.585227 384.48 
L 559.227273 384.48 
L 559.227273 328.778901 
L 556.585227 328.778901 
z
" clip-path="url(#pf7337c4691)" style="fill: #0000ff; fill-opacity: 0.5; stroke: #000000; stroke-width: 0.264205; stroke-linejoin: miter"/>
   </g>
   <g id="patch_171">
    <path d="M 559.227273 384.48 
L 561.869318 384.48 
L 561.869318 318.334945 
L 559.227273 318.334945 
z
" clip-path="url(#pf7337c4691)" style="fill: #0000ff; fill-opacity: 0.5; stroke: #000000; stroke-width: 0.264205; stroke-linejoin: miter"/>
   </g>
   <g id="patch_172">
    <path d="M 561.869318 384.48 
L 564.511364 384.48 
L 564.511364 321.816264 
L 561.869318 321.816264 
z
" clip-path="url(#pf7337c4691)" style="fill: #0000ff; fill-opacity: 0.5; stroke: #000000; stroke-width: 0.264205; stroke-linejoin: miter"/>
   </g>
   <g id="patch_173">
    <path d="M 564.511364 384.48 
L 567.153409 384.48 
L 567.153409 325.297582 
L 564.511364 325.297582 
z
" clip-path="url(#pf7337c4691)" style="fill: #0000ff; fill-opacity: 0.5; stroke: #000000; stroke-width: 0.264205; stroke-linejoin: miter"/>
   </g>
   <g id="patch_174">
    <path d="M 567.153409 384.48 
L 569.795455 384.48 
L 569.795455 314.853626 
L 567.153409 314.853626 
z
" clip-path="url(#pf7337c4691)" style="fill: #0000ff; fill-opacity: 0.5; stroke: #000000; stroke-width: 0.264205; stroke-linejoin: miter"/>
   </g>
   <g id="patch_175">
    <path d="M 569.795455 384.48 
L 572.4375 384.48 
L 572.4375 349.666813 
L 569.795455 349.666813 
z
" clip-path="url(#pf7337c4691)" style="fill: #0000ff; fill-opacity: 0.5; stroke: #000000; stroke-width: 0.264205; stroke-linejoin: miter"/>
   </g>
   <g id="patch_176">
    <path d="M 572.4375 384.48 
L 575.079545 384.48 
L 575.079545 335.741538 
L 572.4375 335.741538 
z
" clip-path="url(#pf7337c4691)" style="fill: #0000ff; fill-opacity: 0.5; stroke: #000000; stroke-width: 0.264205; stroke-linejoin: miter"/>
   </g>
   <g id="patch_177">
    <path d="M 575.079545 384.48 
L 577.721591 384.48 
L 577.721591 339.222857 
L 575.079545 339.222857 
z
" clip-path="url(#pf7337c4691)" style="fill: #0000ff; fill-opacity: 0.5; stroke: #000000; stroke-width: 0.264205; stroke-linejoin: miter"/>
   </g>
   <g id="patch_178">
    <path d="M 577.721591 384.48 
L 580.363636 384.48 
L 580.363636 328.778901 
L 577.721591 328.778901 
z
" clip-path="url(#pf7337c4691)" style="fill: #0000ff; fill-opacity: 0.5; stroke: #000000; stroke-width: 0.264205; stroke-linejoin: miter"/>
   </g>
   <g id="patch_179">
    <path d="M 580.363636 384.48 
L 583.005682 384.48 
L 583.005682 332.26022 
L 580.363636 332.26022 
z
" clip-path="url(#pf7337c4691)" style="fill: #0000ff; fill-opacity: 0.5; stroke: #000000; stroke-width: 0.264205; stroke-linejoin: miter"/>
   </g>
   <g id="patch_180">
    <path d="M 583.005682 384.48 
L 585.647727 384.48 
L 585.647727 349.666813 
L 583.005682 349.666813 
z
" clip-path="url(#pf7337c4691)" style="fill: #0000ff; fill-opacity: 0.5; stroke: #000000; stroke-width: 0.264205; stroke-linejoin: miter"/>
   </g>
   <g id="patch_181">
    <path d="M 585.647727 384.48 
L 588.289773 384.48 
L 588.289773 325.297582 
L 585.647727 325.297582 
z
" clip-path="url(#pf7337c4691)" style="fill: #0000ff; fill-opacity: 0.5; stroke: #000000; stroke-width: 0.264205; stroke-linejoin: miter"/>
   </g>
   <g id="patch_182">
    <path d="M 588.289773 384.48 
L 590.931818 384.48 
L 590.931818 339.222857 
L 588.289773 339.222857 
z
" clip-path="url(#pf7337c4691)" style="fill: #0000ff; fill-opacity: 0.5; stroke: #000000; stroke-width: 0.264205; stroke-linejoin: miter"/>
   </g>
   <g id="patch_183">
    <path d="M 590.931818 384.48 
L 593.573864 384.48 
L 593.573864 332.26022 
L 590.931818 332.26022 
z
" clip-path="url(#pf7337c4691)" style="fill: #0000ff; fill-opacity: 0.5; stroke: #000000; stroke-width: 0.264205; stroke-linejoin: miter"/>
   </g>
   <g id="patch_184">
    <path d="M 593.573864 384.48 
L 596.215909 384.48 
L 596.215909 332.26022 
L 593.573864 332.26022 
z
" clip-path="url(#pf7337c4691)" style="fill: #0000ff; fill-opacity: 0.5; stroke: #000000; stroke-width: 0.264205; stroke-linejoin: miter"/>
   </g>
   <g id="patch_185">
    <path d="M 596.215909 384.48 
L 598.857955 384.48 
L 598.857955 360.110769 
L 596.215909 360.110769 
z
" clip-path="url(#pf7337c4691)" style="fill: #0000ff; fill-opacity: 0.5; stroke: #000000; stroke-width: 0.264205; stroke-linejoin: miter"/>
   </g>
   <g id="patch_186">
    <path d="M 598.857955 384.48 
L 601.5 384.48 
L 601.5 353.148132 
L 598.857955 353.148132 
z
" clip-path="url(#pf7337c4691)" style="fill: #0000ff; fill-opacity: 0.5; stroke: #000000; stroke-width: 0.264205; stroke-linejoin: miter"/>
   </g>
   <g id="patch_187">
    <path d="M 601.5 384.48 
L 604.142045 384.48 
L 604.142045 339.222857 
L 601.5 339.222857 
z
" clip-path="url(#pf7337c4691)" style="fill: #0000ff; fill-opacity: 0.5; stroke: #000000; stroke-width: 0.264205; stroke-linejoin: miter"/>
   </g>
   <g id="patch_188">
    <path d="M 604.142045 384.48 
L 606.784091 384.48 
L 606.784091 356.629451 
L 604.142045 356.629451 
z
" clip-path="url(#pf7337c4691)" style="fill: #0000ff; fill-opacity: 0.5; stroke: #000000; stroke-width: 0.264205; stroke-linejoin: miter"/>
   </g>
   <g id="patch_189">
    <path d="M 606.784091 384.48 
L 609.426136 384.48 
L 609.426136 370.554725 
L 606.784091 370.554725 
z
" clip-path="url(#pf7337c4691)" style="fill: #0000ff; fill-opacity: 0.5; stroke: #000000; stroke-width: 0.264205; stroke-linejoin: miter"/>
   </g>
   <g id="patch_190">
    <path d="M 609.426136 384.48 
L 612.068182 384.48 
L 612.068182 370.554725 
L 609.426136 370.554725 
z
" clip-path="url(#pf7337c4691)" style="fill: #0000ff; fill-opacity: 0.5; stroke: #000000; stroke-width: 0.264205; stroke-linejoin: miter"/>
   </g>
   <g id="patch_191">
    <path d="M 612.068182 384.48 
L 614.710227 384.48 
L 614.710227 360.110769 
L 612.068182 360.110769 
z
" clip-path="url(#pf7337c4691)" style="fill: #0000ff; fill-opacity: 0.5; stroke: #000000; stroke-width: 0.264205; stroke-linejoin: miter"/>
   </g>
   <g id="patch_192">
    <path d="M 614.710227 384.48 
L 617.352273 384.48 
L 617.352273 367.073407 
L 614.710227 367.073407 
z
" clip-path="url(#pf7337c4691)" style="fill: #0000ff; fill-opacity: 0.5; stroke: #000000; stroke-width: 0.264205; stroke-linejoin: miter"/>
   </g>
   <g id="patch_193">
    <path d="M 617.352273 384.48 
L 619.994318 384.48 
L 619.994318 356.629451 
L 617.352273 356.629451 
z
" clip-path="url(#pf7337c4691)" style="fill: #0000ff; fill-opacity: 0.5; stroke: #000000; stroke-width: 0.264205; stroke-linejoin: miter"/>
   </g>
   <g id="patch_194">
    <path d="M 619.994318 384.48 
L 622.636364 384.48 
L 622.636364 363.592088 
L 619.994318 363.592088 
z
" clip-path="url(#pf7337c4691)" style="fill: #0000ff; fill-opacity: 0.5; stroke: #000000; stroke-width: 0.264205; stroke-linejoin: miter"/>
   </g>
   <g id="line2d_17">
    <path d="M 115.363636 381.662091 
L 125.560073 379.824361 
L 138.305619 377.527857 
L 151.051165 375.293439 
L 158.698492 373.689226 
L 163.796711 372.402943 
L 168.894929 370.900563 
L 173.993148 369.147547 
L 179.091366 367.093323 
L 184.189584 364.654815 
L 186.738693 363.254968 
L 189.287803 361.711602 
L 191.836912 360.006894 
L 194.386021 358.124578 
L 196.93513 356.051869 
L 199.484239 353.781393 
L 202.033349 351.312791 
L 204.582458 348.653695 
L 209.680676 342.833788 
L 214.778894 336.518721 
L 222.426222 326.600828 
L 232.622659 313.064726 
L 237.720877 306.037268 
L 242.819095 298.7099 
L 250.466423 287.208193 
L 260.66286 271.695468 
L 268.310187 260.499791 
L 291.25217 227.834454 
L 296.350388 221.062391 
L 298.899497 217.934703 
L 301.448607 215.023366 
L 303.997716 212.346101 
L 306.546825 209.904101 
L 309.095934 207.680636 
L 314.194153 203.739325 
L 321.84148 198.254617 
L 326.939698 194.21486 
L 329.488808 191.958287 
L 332.037917 189.522323 
L 334.587026 186.908851 
L 339.685244 181.214155 
L 344.783463 175.073129 
L 357.529009 159.366013 
L 362.627227 153.636455 
L 365.176336 151.074154 
L 367.725445 148.802709 
L 370.274555 146.899605 
L 372.823664 145.445909 
L 375.372773 144.519943 
L 377.921882 144.189783 
L 380.470991 144.505581 
L 383.020101 145.492872 
L 385.56921 147.147941 
L 388.118319 149.436074 
L 390.667428 152.293047 
L 393.216537 155.629727 
L 395.765646 159.339127 
L 400.863865 167.410221 
L 405.962083 175.614978 
L 411.060302 183.262853 
L 413.609411 186.743179 
L 416.15852 189.959894 
L 418.707629 192.907354 
L 421.256738 195.593336 
L 423.805847 198.03683 
L 426.354957 200.266086 
L 431.453175 204.230318 
L 446.74783 215.240794 
L 451.846048 219.457644 
L 456.944267 224.006671 
L 472.238922 237.998556 
L 484.984468 249.338942 
L 490.082686 254.257711 
L 495.180905 259.601329 
L 500.279123 265.389018 
L 505.377341 271.532267 
L 518.122887 287.164106 
L 523.221106 292.958693 
L 528.319324 298.28447 
L 533.417542 303.13829 
L 538.515761 307.594962 
L 543.613979 311.755141 
L 548.712197 315.696715 
L 556.359525 321.264451 
L 564.006852 326.422995 
L 574.203289 332.84908 
L 581.850617 337.775671 
L 586.948835 341.366159 
L 592.047053 345.313941 
L 597.145272 349.630643 
L 602.24349 354.240567 
L 614.989036 365.989492 
L 620.087254 370.272543 
L 622.636364 372.234847 
L 622.636364 372.234847 
" clip-path="url(#pf7337c4691)" style="fill: none; stroke: #0000ff; stroke-width: 1.5; stroke-linecap: square"/>
   </g>
   <g id="patch_195">
    <path d="M 90 384.48 
L 90 51.84 
" style="fill: none; stroke: #000000; stroke-width: 0.8; stroke-linejoin: miter; stroke-linecap: square"/>
   </g>
   <g id="patch_196">
    <path d="M 648 384.48 
L 648 51.84 
" style="fill: none; stroke: #000000; stroke-width: 0.8; stroke-linejoin: miter; stroke-linecap: square"/>
   </g>
   <g id="patch_197">
    <path d="M 90 384.48 
L 648 384.48 
" style="fill: none; stroke: #000000; stroke-width: 0.8; stroke-linejoin: miter; stroke-linecap: square"/>
   </g>
   <g id="patch_198">
    <path d="M 90 51.84 
L 648 51.84 
" style="fill: none; stroke: #000000; stroke-width: 0.8; stroke-linejoin: miter; stroke-linecap: square"/>
   </g>
   <g id="text_16">
    <!-- Time Distribution VLC Marathon Women -->
    <g transform="translate(248.836875 45.84) scale(0.12 -0.12)">
     <defs>
      <path id="DejaVuSans-54" d="M -19 4666 
L 3928 4666 
L 3928 4134 
L 2272 4134 
L 2272 0 
L 1638 0 
L 1638 4134 
L -19 4134 
L -19 4666 
z
" transform="scale(0.015625)"/>
      <path id="DejaVuSans-6d" d="M 3328 2828 
Q 3544 3216 3844 3400 
Q 4144 3584 4550 3584 
Q 5097 3584 5394 3201 
Q 5691 2819 5691 2113 
L 5691 0 
L 5113 0 
L 5113 2094 
Q 5113 2597 4934 2840 
Q 4756 3084 4391 3084 
Q 3944 3084 3684 2787 
Q 3425 2491 3425 1978 
L 3425 0 
L 2847 0 
L 2847 2094 
Q 2847 2600 2669 2842 
Q 2491 3084 2119 3084 
Q 1678 3084 1418 2786 
Q 1159 2488 1159 1978 
L 1159 0 
L 581 0 
L 581 3500 
L 1159 3500 
L 1159 2956 
Q 1356 3278 1631 3431 
Q 1906 3584 2284 3584 
Q 2666 3584 2933 3390 
Q 3200 3197 3328 2828 
z
" transform="scale(0.015625)"/>
      <path id="DejaVuSans-20" transform="scale(0.015625)"/>
      <path id="DejaVuSans-44" d="M 1259 4147 
L 1259 519 
L 2022 519 
Q 2988 519 3436 956 
Q 3884 1394 3884 2338 
Q 3884 3275 3436 3711 
Q 2988 4147 2022 4147 
L 1259 4147 
z
M 628 4666 
L 1925 4666 
Q 3281 4666 3915 4102 
Q 4550 3538 4550 2338 
Q 4550 1131 3912 565 
Q 3275 0 1925 0 
L 628 0 
L 628 4666 
z
" transform="scale(0.015625)"/>
      <path id="DejaVuSans-62" d="M 3116 1747 
Q 3116 2381 2855 2742 
Q 2594 3103 2138 3103 
Q 1681 3103 1420 2742 
Q 1159 2381 1159 1747 
Q 1159 1113 1420 752 
Q 1681 391 2138 391 
Q 2594 391 2855 752 
Q 3116 1113 3116 1747 
z
M 1159 2969 
Q 1341 3281 1617 3432 
Q 1894 3584 2278 3584 
Q 2916 3584 3314 3078 
Q 3713 2572 3713 1747 
Q 3713 922 3314 415 
Q 2916 -91 2278 -91 
Q 1894 -91 1617 61 
Q 1341 213 1159 525 
L 1159 0 
L 581 0 
L 581 4863 
L 1159 4863 
L 1159 2969 
z
" transform="scale(0.015625)"/>
      <path id="DejaVuSans-6f" d="M 1959 3097 
Q 1497 3097 1228 2736 
Q 959 2375 959 1747 
Q 959 1119 1226 758 
Q 1494 397 1959 397 
Q 2419 397 2687 759 
Q 2956 1122 2956 1747 
Q 2956 2369 2687 2733 
Q 2419 3097 1959 3097 
z
M 1959 3584 
Q 2709 3584 3137 3096 
Q 3566 2609 3566 1747 
Q 3566 888 3137 398 
Q 2709 -91 1959 -91 
Q 1206 -91 779 398 
Q 353 888 353 1747 
Q 353 2609 779 3096 
Q 1206 3584 1959 3584 
z
" transform="scale(0.015625)"/>
      <path id="DejaVuSans-56" d="M 1831 0 
L 50 4666 
L 709 4666 
L 2188 738 
L 3669 4666 
L 4325 4666 
L 2547 0 
L 1831 0 
z
" transform="scale(0.015625)"/>
      <path id="DejaVuSans-4c" d="M 628 4666 
L 1259 4666 
L 1259 531 
L 3531 531 
L 3531 0 
L 628 0 
L 628 4666 
z
" transform="scale(0.015625)"/>
      <path id="DejaVuSans-43" d="M 4122 4306 
L 4122 3641 
Q 3803 3938 3442 4084 
Q 3081 4231 2675 4231 
Q 1875 4231 1450 3742 
Q 1025 3253 1025 2328 
Q 1025 1406 1450 917 
Q 1875 428 2675 428 
Q 3081 428 3442 575 
Q 3803 722 4122 1019 
L 4122 359 
Q 3791 134 3420 21 
Q 3050 -91 2638 -91 
Q 1578 -91 968 557 
Q 359 1206 359 2328 
Q 359 3453 968 4101 
Q 1578 4750 2638 4750 
Q 3056 4750 3426 4639 
Q 3797 4528 4122 4306 
z
" transform="scale(0.015625)"/>
      <path id="DejaVuSans-61" d="M 2194 1759 
Q 1497 1759 1228 1600 
Q 959 1441 959 1056 
Q 959 750 1161 570 
Q 1363 391 1709 391 
Q 2188 391 2477 730 
Q 2766 1069 2766 1631 
L 2766 1759 
L 2194 1759 
z
M 3341 1997 
L 3341 0 
L 2766 0 
L 2766 531 
Q 2569 213 2275 61 
Q 1981 -91 1556 -91 
Q 1019 -91 701 211 
Q 384 513 384 1019 
Q 384 1609 779 1909 
Q 1175 2209 1959 2209 
L 2766 2209 
L 2766 2266 
Q 2766 2663 2505 2880 
Q 2244 3097 1772 3097 
Q 1472 3097 1187 3025 
Q 903 2953 641 2809 
L 641 3341 
Q 956 3463 1253 3523 
Q 1550 3584 1831 3584 
Q 2591 3584 2966 3190 
Q 3341 2797 3341 1997 
z
" transform="scale(0.015625)"/>
      <path id="DejaVuSans-68" d="M 3513 2113 
L 3513 0 
L 2938 0 
L 2938 2094 
Q 2938 2591 2744 2837 
Q 2550 3084 2163 3084 
Q 1697 3084 1428 2787 
Q 1159 2491 1159 1978 
L 1159 0 
L 581 0 
L 581 4863 
L 1159 4863 
L 1159 2956 
Q 1366 3272 1645 3428 
Q 1925 3584 2291 3584 
Q 2894 3584 3203 3211 
Q 3513 2838 3513 2113 
z
" transform="scale(0.015625)"/>
      <path id="DejaVuSans-57" d="M 213 4666 
L 850 4666 
L 1831 722 
L 2809 4666 
L 3519 4666 
L 4500 722 
L 5478 4666 
L 6119 4666 
L 4947 0 
L 4153 0 
L 3169 4050 
L 2175 0 
L 1381 0 
L 213 4666 
z
" transform="scale(0.015625)"/>
     </defs>
     <use xlink:href="#DejaVuSans-54"/>
     <use xlink:href="#DejaVuSans-69" x="57.958984"/>
     <use xlink:href="#DejaVuSans-6d" x="85.742188"/>
     <use xlink:href="#DejaVuSans-65" x="183.154297"/>
     <use xlink:href="#DejaVuSans-20" x="244.677734"/>
     <use xlink:href="#DejaVuSans-44" x="276.464844"/>
     <use xlink:href="#DejaVuSans-69" x="353.466797"/>
     <use xlink:href="#DejaVuSans-73" x="381.25"/>
     <use xlink:href="#DejaVuSans-74" x="433.349609"/>
     <use xlink:href="#DejaVuSans-72" x="472.558594"/>
     <use xlink:href="#DejaVuSans-69" x="513.671875"/>
     <use xlink:href="#DejaVuSans-62" x="541.455078"/>
     <use xlink:href="#DejaVuSans-75" x="604.931641"/>
     <use xlink:href="#DejaVuSans-74" x="668.310547"/>
     <use xlink:href="#DejaVuSans-69" x="707.519531"/>
     <use xlink:href="#DejaVuSans-6f" x="735.302734"/>
     <use xlink:href="#DejaVuSans-6e" x="796.484375"/>
     <use xlink:href="#DejaVuSans-20" x="859.863281"/>
     <use xlink:href="#DejaVuSans-56" x="891.650391"/>
     <use xlink:href="#DejaVuSans-4c" x="960.058594"/>
     <use xlink:href="#DejaVuSans-43" x="1015.771484"/>
     <use xlink:href="#DejaVuSans-20" x="1085.595703"/>
     <use xlink:href="#DejaVuSans-4d" x="1117.382812"/>
     <use xlink:href="#DejaVuSans-61" x="1203.662109"/>
     <use xlink:href="#DejaVuSans-72" x="1264.941406"/>
     <use xlink:href="#DejaVuSans-61" x="1306.054688"/>
     <use xlink:href="#DejaVuSans-74" x="1367.333984"/>
     <use xlink:href="#DejaVuSans-68" x="1406.542969"/>
     <use xlink:href="#DejaVuSans-6f" x="1469.921875"/>
     <use xlink:href="#DejaVuSans-6e" x="1531.103516"/>
     <use xlink:href="#DejaVuSans-20" x="1594.482422"/>
     <use xlink:href="#DejaVuSans-57" x="1626.269531"/>
     <use xlink:href="#DejaVuSans-6f" x="1719.271484"/>
     <use xlink:href="#DejaVuSans-6d" x="1780.453125"/>
     <use xlink:href="#DejaVuSans-65" x="1877.865234"/>
     <use xlink:href="#DejaVuSans-6e" x="1939.388672"/>
    </g>
   </g>
   <g id="legend_1">
    <g id="patch_199">
     <path d="M 561.3625 103.874375 
L 641 103.874375 
Q 643 103.874375 643 101.874375 
L 643 58.84 
Q 643 56.84 641 56.84 
L 561.3625 56.84 
Q 559.3625 56.84 559.3625 58.84 
L 559.3625 101.874375 
Q 559.3625 103.874375 561.3625 103.874375 
z
" style="fill: #ffffff; opacity: 0.8; stroke: #cccccc; stroke-linejoin: miter"/>
    </g>
    <g id="line2d_18">
     <path d="M 563.3625 64.938437 
L 573.3625 64.938437 
L 583.3625 64.938437 
" style="fill: none; stroke-dasharray: 3.7,1.6; stroke-dashoffset: 0; stroke: #ff0000"/>
    </g>
    <g id="text_17">
     <!-- Sub 3h -->
     <g transform="translate(591.3625 68.438437) scale(0.1 -0.1)">
      <defs>
       <path id="DejaVuSans-53" d="M 3425 4513 
L 3425 3897 
Q 3066 4069 2747 4153 
Q 2428 4238 2131 4238 
Q 1616 4238 1336 4038 
Q 1056 3838 1056 3469 
Q 1056 3159 1242 3001 
Q 1428 2844 1947 2747 
L 2328 2669 
Q 3034 2534 3370 2195 
Q 3706 1856 3706 1288 
Q 3706 609 3251 259 
Q 2797 -91 1919 -91 
Q 1588 -91 1214 -16 
Q 841 59 441 206 
L 441 856 
Q 825 641 1194 531 
Q 1563 422 1919 422 
Q 2459 422 2753 634 
Q 3047 847 3047 1241 
Q 3047 1584 2836 1778 
Q 2625 1972 2144 2069 
L 1759 2144 
Q 1053 2284 737 2584 
Q 422 2884 422 3419 
Q 422 4038 858 4394 
Q 1294 4750 2059 4750 
Q 2388 4750 2728 4690 
Q 3069 4631 3425 4513 
z
" transform="scale(0.015625)"/>
      </defs>
      <use xlink:href="#DejaVuSans-53"/>
      <use xlink:href="#DejaVuSans-75" x="63.476562"/>
      <use xlink:href="#DejaVuSans-62" x="126.855469"/>
      <use xlink:href="#DejaVuSans-20" x="190.332031"/>
      <use xlink:href="#DejaVuSans-33" x="222.119141"/>
      <use xlink:href="#DejaVuSans-68" x="285.742188"/>
     </g>
    </g>
    <g id="line2d_19">
     <path d="M 563.3625 79.616562 
L 573.3625 79.616562 
L 583.3625 79.616562 
" style="fill: none; stroke-dasharray: 3.7,1.6; stroke-dashoffset: 0; stroke: #ffa500"/>
    </g>
    <g id="text_18">
     <!-- Sub 3h30 -->
     <g transform="translate(591.3625 83.116562) scale(0.1 -0.1)">
      <use xlink:href="#DejaVuSans-53"/>
      <use xlink:href="#DejaVuSans-75" x="63.476562"/>
      <use xlink:href="#DejaVuSans-62" x="126.855469"/>
      <use xlink:href="#DejaVuSans-20" x="190.332031"/>
      <use xlink:href="#DejaVuSans-33" x="222.119141"/>
      <use xlink:href="#DejaVuSans-68" x="285.742188"/>
      <use xlink:href="#DejaVuSans-33" x="349.121094"/>
      <use xlink:href="#DejaVuSans-30" x="412.744141"/>
     </g>
    </g>
    <g id="line2d_20">
     <path d="M 563.3625 94.294687 
L 573.3625 94.294687 
L 583.3625 94.294687 
" style="fill: none; stroke-dasharray: 3.7,1.6; stroke-dashoffset: 0; stroke: #008000"/>
    </g>
    <g id="text_19">
     <!-- Sub 4h -->
     <g transform="translate(591.3625 97.794687) scale(0.1 -0.1)">
      <use xlink:href="#DejaVuSans-53"/>
      <use xlink:href="#DejaVuSans-75" x="63.476562"/>
      <use xlink:href="#DejaVuSans-62" x="126.855469"/>
      <use xlink:href="#DejaVuSans-20" x="190.332031"/>
      <use xlink:href="#DejaVuSans-34" x="222.119141"/>
      <use xlink:href="#DejaVuSans-68" x="285.742188"/>
     </g>
    </g>
   </g>
  </g>
 </g>
 <defs>
  <clipPath id="pf7337c4691">
   <rect x="90" y="51.84" width="558" height="332.64"/>
  </clipPath>
 </defs>
</svg>
